<svg width="283" height="56" viewBox="0 0 283 56" fill="none" xmlns="http://www.w3.org/2000/svg">
<path d="M91.3252 16.6714C91.3252 15.5679 91.4717 14.5083 91.7646 13.4927C92.0625 12.4771 92.5044 11.5542 93.0903 10.7241C93.6763 9.89404 94.2842 9.30811 94.9141 8.96631L95.1924 9.85986C94.4795 10.4067 93.8936 11.2417 93.4346 12.3647C92.9805 13.4878 92.7314 14.7451 92.6875 16.1367L92.6802 16.7593C92.6802 18.644 93.0244 20.2798 93.7129 21.6665C94.1279 22.4966 94.6211 23.146 95.1924 23.6147L94.9141 24.4424C94.2646 24.0811 93.6445 23.4756 93.0537 22.626C91.9014 20.9658 91.3252 18.981 91.3252 16.6714ZM98.8584 14.0347C99.459 13.2974 100.24 12.9287 101.202 12.9287C102.877 12.9287 103.722 13.8735 103.736 15.7632V21H102.381V15.7559C102.376 15.1846 102.245 14.7622 101.986 14.4888C101.732 14.2153 101.334 14.0786 100.792 14.0786C100.353 14.0786 99.9668 14.1958 99.6348 14.4302C99.3027 14.6646 99.0439 14.9722 98.8584 15.353V21H97.5034V9.75H98.8584V14.0347ZM110.054 21.1465C108.979 21.1465 108.105 20.7949 107.432 20.0918C106.758 19.3838 106.421 18.439 106.421 17.2573V17.0083C106.421 16.2222 106.57 15.5215 106.868 14.9062C107.17 14.2861 107.59 13.8027 108.127 13.4561C108.669 13.1045 109.255 12.9287 109.885 12.9287C110.916 12.9287 111.716 13.2681 112.288 13.9468C112.859 14.6255 113.145 15.5972 113.145 16.8618V17.4258H107.776C107.795 18.207 108.022 18.8394 108.457 19.3228C108.896 19.8013 109.453 20.0405 110.127 20.0405C110.605 20.0405 111.011 19.9429 111.343 19.7476C111.675 19.5522 111.965 19.2935 112.214 18.9712L113.042 19.6157C112.378 20.6362 111.382 21.1465 110.054 21.1465ZM109.885 14.042C109.338 14.042 108.879 14.2422 108.508 14.6426C108.137 15.0381 107.908 15.5947 107.82 16.3125H111.79V16.21C111.75 15.5215 111.565 14.9893 111.233 14.6133C110.901 14.2324 110.452 14.042 109.885 14.042ZM117.191 21H115.836V13.0752H117.191V21ZM115.727 10.9731C115.727 10.7534 115.792 10.5679 115.924 10.4165C116.061 10.2651 116.261 10.1895 116.525 10.1895C116.789 10.1895 116.989 10.2651 117.125 10.4165C117.262 10.5679 117.331 10.7534 117.331 10.9731C117.331 11.1929 117.262 11.376 117.125 11.5225C116.989 11.6689 116.789 11.7422 116.525 11.7422C116.261 11.7422 116.061 11.6689 115.924 11.5225C115.792 11.376 115.727 11.1929 115.727 10.9731ZM120.044 16.9717C120.044 15.7363 120.33 14.7549 120.901 14.0273C121.473 13.2949 122.229 12.9287 123.172 12.9287C124.139 12.9287 124.893 13.2705 125.435 13.9541L125.501 13.0752H126.739V20.8096C126.739 21.835 126.434 22.6431 125.823 23.2339C125.218 23.8247 124.402 24.1201 123.377 24.1201C122.806 24.1201 122.247 23.998 121.7 23.7539C121.153 23.5098 120.735 23.1753 120.447 22.7505L121.15 21.9375C121.731 22.6553 122.442 23.0142 123.282 23.0142C123.941 23.0142 124.454 22.8286 124.82 22.4575C125.191 22.0864 125.376 21.564 125.376 20.8901V20.209C124.834 20.834 124.095 21.1465 123.157 21.1465C122.229 21.1465 121.478 20.7729 120.901 20.0259C120.33 19.2788 120.044 18.2607 120.044 16.9717ZM121.407 17.1255C121.407 18.019 121.59 18.7222 121.956 19.2349C122.322 19.7427 122.835 19.9966 123.494 19.9966C124.349 19.9966 124.976 19.6084 125.376 18.832V15.2139C124.961 14.457 124.339 14.0786 123.509 14.0786C122.85 14.0786 122.334 14.335 121.963 14.8477C121.592 15.3604 121.407 16.1196 121.407 17.1255ZM131.145 14.0347C131.745 13.2974 132.526 12.9287 133.488 12.9287C135.163 12.9287 136.008 13.8735 136.022 15.7632V21H134.667V15.7559C134.663 15.1846 134.531 14.7622 134.272 14.4888C134.018 14.2153 133.62 14.0786 133.078 14.0786C132.639 14.0786 132.253 14.1958 131.921 14.4302C131.589 14.6646 131.33 14.9722 131.145 15.353V21H129.79V9.75H131.145V14.0347ZM140.89 11.1562V13.0752H142.369V14.1226H140.89V19.0371C140.89 19.3545 140.956 19.5938 141.087 19.7549C141.219 19.9111 141.444 19.9893 141.761 19.9893C141.917 19.9893 142.132 19.96 142.406 19.9014V21C142.049 21.0977 141.703 21.1465 141.366 21.1465C140.76 21.1465 140.304 20.9634 139.996 20.5972C139.688 20.231 139.535 19.7109 139.535 19.0371V14.1226H138.092V13.0752H139.535V11.1562H140.89ZM144.907 16.6714C144.907 15.5679 145.054 14.5083 145.347 13.4927C145.645 12.4771 146.086 11.5542 146.672 10.7241C147.258 9.89404 147.866 9.30811 148.496 8.96631L148.774 9.85986C148.062 10.4067 147.476 11.2417 147.017 12.3647C146.562 13.4878 146.313 14.7451 146.27 16.1367L146.262 16.7593C146.262 18.644 146.606 20.2798 147.295 21.6665C147.71 22.4966 148.203 23.146 148.774 23.6147L148.496 24.4424C147.847 24.0811 147.227 23.4756 146.636 22.626C145.483 20.9658 144.907 18.981 144.907 16.6714ZM154.264 20.0405C154.748 20.0405 155.17 19.894 155.531 19.6011C155.893 19.3081 156.093 18.9419 156.132 18.5024H157.414C157.389 18.9565 157.233 19.3887 156.945 19.7988C156.657 20.209 156.271 20.5361 155.788 20.7803C155.309 21.0244 154.801 21.1465 154.264 21.1465C153.185 21.1465 152.326 20.7876 151.686 20.0698C151.051 19.3472 150.734 18.3608 150.734 17.1108V16.8838C150.734 16.1123 150.875 15.4263 151.159 14.8257C151.442 14.2251 151.847 13.7588 152.375 13.4268C152.907 13.0947 153.534 12.9287 154.257 12.9287C155.146 12.9287 155.883 13.1948 156.469 13.7271C157.06 14.2593 157.375 14.9502 157.414 15.7998H156.132C156.093 15.2871 155.897 14.8672 155.546 14.54C155.199 14.208 154.77 14.042 154.257 14.042C153.568 14.042 153.034 14.291 152.653 14.7891C152.277 15.2822 152.089 15.9976 152.089 16.9351V17.1914C152.089 18.1045 152.277 18.8076 152.653 19.3008C153.029 19.7939 153.566 20.0405 154.264 20.0405ZM161.211 13.0752L161.248 13.9541C161.829 13.2705 162.613 12.9287 163.599 12.9287C164.708 12.9287 165.462 13.3535 165.862 14.2031C166.126 13.8223 166.468 13.5146 166.888 13.2803C167.312 13.0459 167.813 12.9287 168.389 12.9287C170.127 12.9287 171.011 13.8491 171.041 15.6899V21H169.686V15.7705C169.686 15.2041 169.556 14.7817 169.297 14.5034C169.039 14.2202 168.604 14.0786 167.994 14.0786C167.491 14.0786 167.073 14.23 166.741 14.5327C166.409 14.8306 166.216 15.2334 166.163 15.7412V21H164.8V15.8071C164.8 14.6548 164.236 14.0786 163.108 14.0786C162.22 14.0786 161.612 14.457 161.285 15.2139V21H159.93V13.0752H161.211ZM177.219 16.7446C177.219 17.8335 177.075 18.8784 176.787 19.8794C176.503 20.8755 176.066 21.7959 175.476 22.6406C174.89 23.4854 174.274 24.0859 173.63 24.4424L173.344 23.6147C174.096 23.0386 174.699 22.145 175.153 20.9341C175.612 19.7183 175.847 18.3706 175.856 16.8911V16.6567C175.856 15.6313 175.749 14.6792 175.534 13.8003C175.319 12.9165 175.019 12.1255 174.633 11.4272C174.252 10.729 173.823 10.1846 173.344 9.79395L173.63 8.96631C174.274 9.32275 174.887 9.91846 175.468 10.7534C176.054 11.5884 176.491 12.5088 176.779 13.5146C177.072 14.5205 177.219 15.5972 177.219 16.7446ZM181.698 13.8003L179.486 13.1411L179.823 12.0352L182.035 12.8555L181.969 10.3359H183.089L183.016 12.8921L185.191 12.0864L185.528 13.1997L183.28 13.8662L184.73 15.8511L183.822 16.5396L182.459 14.4302L181.141 16.4883L180.226 15.8218L181.698 13.8003ZM194.783 19.1323L196.306 13.0752H197.661L195.354 21H194.255L192.329 14.9941L190.454 21H189.355L187.056 13.0752H188.403L189.963 19.0078L191.809 13.0752H192.9L194.783 19.1323ZM203.334 21.1465C202.26 21.1465 201.386 20.7949 200.712 20.0918C200.038 19.3838 199.701 18.439 199.701 17.2573V17.0083C199.701 16.2222 199.85 15.5215 200.148 14.9062C200.451 14.2861 200.871 13.8027 201.408 13.4561C201.95 13.1045 202.536 12.9287 203.166 12.9287C204.196 12.9287 204.997 13.2681 205.568 13.9468C206.139 14.6255 206.425 15.5972 206.425 16.8618V17.4258H201.056C201.076 18.207 201.303 18.8394 201.737 19.3228C202.177 19.8013 202.733 20.0405 203.407 20.0405C203.886 20.0405 204.291 19.9429 204.623 19.7476C204.955 19.5522 205.246 19.2935 205.495 18.9712L206.322 19.6157C205.658 20.6362 204.662 21.1465 203.334 21.1465ZM203.166 14.042C202.619 14.042 202.16 14.2422 201.789 14.6426C201.417 15.0381 201.188 15.5947 201.1 16.3125H205.07V16.21C205.031 15.5215 204.845 14.9893 204.513 14.6133C204.181 14.2324 203.732 14.042 203.166 14.042ZM210.472 21H209.117V13.0752H210.472V21ZM209.007 10.9731C209.007 10.7534 209.073 10.5679 209.205 10.4165C209.341 10.2651 209.542 10.1895 209.805 10.1895C210.069 10.1895 210.269 10.2651 210.406 10.4165C210.542 10.5679 210.611 10.7534 210.611 10.9731C210.611 11.1929 210.542 11.376 210.406 11.5225C210.269 11.6689 210.069 11.7422 209.805 11.7422C209.542 11.7422 209.341 11.6689 209.205 11.5225C209.073 11.376 209.007 11.1929 209.007 10.9731ZM213.325 16.9717C213.325 15.7363 213.61 14.7549 214.182 14.0273C214.753 13.2949 215.51 12.9287 216.452 12.9287C217.419 12.9287 218.173 13.2705 218.715 13.9541L218.781 13.0752H220.019V20.8096C220.019 21.835 219.714 22.6431 219.104 23.2339C218.498 23.8247 217.683 24.1201 216.657 24.1201C216.086 24.1201 215.527 23.998 214.98 23.7539C214.433 23.5098 214.016 23.1753 213.728 22.7505L214.431 21.9375C215.012 22.6553 215.722 23.0142 216.562 23.0142C217.221 23.0142 217.734 22.8286 218.1 22.4575C218.471 22.0864 218.657 21.564 218.657 20.8901V20.209C218.115 20.834 217.375 21.1465 216.438 21.1465C215.51 21.1465 214.758 20.7729 214.182 20.0259C213.61 19.2788 213.325 18.2607 213.325 16.9717ZM214.687 17.1255C214.687 18.019 214.87 18.7222 215.236 19.2349C215.603 19.7427 216.115 19.9966 216.774 19.9966C217.629 19.9966 218.256 19.6084 218.657 18.832V15.2139C218.242 14.457 217.619 14.0786 216.789 14.0786C216.13 14.0786 215.615 14.335 215.244 14.8477C214.873 15.3604 214.687 16.1196 214.687 17.1255ZM224.425 14.0347C225.025 13.2974 225.807 12.9287 226.769 12.9287C228.443 12.9287 229.288 13.8735 229.303 15.7632V21H227.948V15.7559C227.943 15.1846 227.811 14.7622 227.552 14.4888C227.298 14.2153 226.9 14.0786 226.358 14.0786C225.919 14.0786 225.533 14.1958 225.201 14.4302C224.869 14.6646 224.61 14.9722 224.425 15.353V21H223.07V9.75H224.425V14.0347ZM234.17 11.1562V13.0752H235.649V14.1226H234.17V19.0371C234.17 19.3545 234.236 19.5938 234.368 19.7549C234.5 19.9111 234.724 19.9893 235.042 19.9893C235.198 19.9893 235.413 19.96 235.686 19.9014V21C235.33 21.0977 234.983 21.1465 234.646 21.1465C234.041 21.1465 233.584 20.9634 233.276 20.5972C232.969 20.231 232.815 19.7109 232.815 19.0371V14.1226H231.372V13.0752H232.815V11.1562H234.17ZM238.188 16.6714C238.188 15.5679 238.334 14.5083 238.627 13.4927C238.925 12.4771 239.367 11.5542 239.953 10.7241C240.539 9.89404 241.146 9.30811 241.776 8.96631L242.055 9.85986C241.342 10.4067 240.756 11.2417 240.297 12.3647C239.843 13.4878 239.594 14.7451 239.55 16.1367L239.542 16.7593C239.542 18.644 239.887 20.2798 240.575 21.6665C240.99 22.4966 241.483 23.146 242.055 23.6147L241.776 24.4424C241.127 24.0811 240.507 23.4756 239.916 22.626C238.764 20.9658 238.188 18.981 238.188 16.6714ZM246.578 17.3306L245.728 18.2168V21H244.373V9.75H245.728V16.5542L246.453 15.6826L248.921 13.0752H250.569L247.486 16.3857L250.928 21H249.339L246.578 17.3306ZM252.5 16.9717C252.5 15.7363 252.785 14.7549 253.356 14.0273C253.928 13.2949 254.685 12.9287 255.627 12.9287C256.594 12.9287 257.348 13.2705 257.89 13.9541L257.956 13.0752H259.194V20.8096C259.194 21.835 258.889 22.6431 258.278 23.2339C257.673 23.8247 256.857 24.1201 255.832 24.1201C255.261 24.1201 254.702 23.998 254.155 23.7539C253.608 23.5098 253.19 23.1753 252.902 22.7505L253.605 21.9375C254.187 22.6553 254.897 23.0142 255.737 23.0142C256.396 23.0142 256.909 22.8286 257.275 22.4575C257.646 22.0864 257.832 21.564 257.832 20.8901V20.209C257.29 20.834 256.55 21.1465 255.612 21.1465C254.685 21.1465 253.933 20.7729 253.356 20.0259C252.785 19.2788 252.5 18.2607 252.5 16.9717ZM253.862 17.1255C253.862 18.019 254.045 18.7222 254.411 19.2349C254.777 19.7427 255.29 19.9966 255.949 19.9966C256.804 19.9966 257.431 19.6084 257.832 18.832V15.2139C257.417 14.457 256.794 14.0786 255.964 14.0786C255.305 14.0786 254.79 14.335 254.418 14.8477C254.047 15.3604 253.862 16.1196 253.862 17.1255ZM265.372 16.7446C265.372 17.8335 265.228 18.8784 264.94 19.8794C264.657 20.8755 264.22 21.7959 263.629 22.6406C263.043 23.4854 262.428 24.0859 261.783 24.4424L261.498 23.6147C262.25 23.0386 262.853 22.145 263.307 20.9341C263.766 19.7183 264 18.3706 264.01 16.8911V16.6567C264.01 15.6313 263.902 14.6792 263.688 13.8003C263.473 12.9165 263.172 12.1255 262.787 11.4272C262.406 10.729 261.976 10.1846 261.498 9.79395L261.783 8.96631C262.428 9.32275 263.041 9.91846 263.622 10.7534C264.208 11.5884 264.645 12.5088 264.933 13.5146C265.226 14.5205 265.372 15.5972 265.372 16.7446ZM271.587 16.7446C271.587 17.8335 271.443 18.8784 271.155 19.8794C270.872 20.8755 270.435 21.7959 269.844 22.6406C269.258 23.4854 268.643 24.0859 267.998 24.4424L267.712 23.6147C268.464 23.0386 269.067 22.145 269.521 20.9341C269.98 19.7183 270.215 18.3706 270.225 16.8911V16.6567C270.225 15.6313 270.117 14.6792 269.902 13.8003C269.688 12.9165 269.387 12.1255 269.001 11.4272C268.621 10.729 268.191 10.1846 267.712 9.79395L267.998 8.96631C268.643 9.32275 269.255 9.91846 269.836 10.7534C270.422 11.5884 270.859 12.5088 271.147 13.5146C271.44 14.5205 271.587 15.5972 271.587 16.7446Z" fill="#0B247A"/>
<path d="M91.5 28H271.5" stroke="#0B247A" stroke-width="1.5" stroke-linecap="round"/>
<path d="M165.078 42.6094H166.164C166.846 42.599 167.383 42.4193 167.773 42.0703C168.164 41.7214 168.359 41.25 168.359 40.6562C168.359 39.3229 167.695 38.6562 166.367 38.6562C165.742 38.6562 165.242 38.8359 164.867 39.1953C164.497 39.5495 164.312 40.0208 164.312 40.6094H162.867C162.867 39.7083 163.195 38.9609 163.852 38.3672C164.513 37.7682 165.352 37.4688 166.367 37.4688C167.44 37.4688 168.281 37.7526 168.891 38.3203C169.5 38.888 169.805 39.6771 169.805 40.6875C169.805 41.1823 169.643 41.6615 169.32 42.125C169.003 42.5885 168.568 42.9349 168.016 43.1641C168.641 43.362 169.122 43.6901 169.461 44.1484C169.805 44.6068 169.977 45.1667 169.977 45.8281C169.977 46.849 169.643 47.6589 168.977 48.2578C168.31 48.8568 167.443 49.1562 166.375 49.1562C165.307 49.1562 164.438 48.8672 163.766 48.2891C163.099 47.7109 162.766 46.9479 162.766 46H164.219C164.219 46.599 164.414 47.0781 164.805 47.4375C165.195 47.7969 165.719 47.9766 166.375 47.9766C167.073 47.9766 167.607 47.7943 167.977 47.4297C168.346 47.0651 168.531 46.5417 168.531 45.8594C168.531 45.1979 168.328 44.6901 167.922 44.3359C167.516 43.9818 166.93 43.7995 166.164 43.7891H165.078V42.6094ZM178.633 37.6172V38.8438H178.367C177.242 38.8646 176.346 39.1979 175.68 39.8438C175.013 40.4896 174.628 41.3984 174.523 42.5703C175.122 41.8828 175.94 41.5391 176.977 41.5391C177.966 41.5391 178.755 41.888 179.344 42.5859C179.938 43.2839 180.234 44.1849 180.234 45.2891C180.234 46.4609 179.914 47.3984 179.273 48.1016C178.638 48.8047 177.784 49.1562 176.711 49.1562C175.622 49.1562 174.74 48.7396 174.062 47.9062C173.385 47.0677 173.047 45.9896 173.047 44.6719V44.1172C173.047 42.0234 173.492 40.4245 174.383 39.3203C175.279 38.2109 176.609 37.6432 178.375 37.6172H178.633ZM176.734 42.7422C176.24 42.7422 175.784 42.8906 175.367 43.1875C174.951 43.4844 174.661 43.8568 174.5 44.3047V44.8359C174.5 45.7734 174.711 46.5286 175.133 47.1016C175.555 47.6745 176.081 47.9609 176.711 47.9609C177.362 47.9609 177.872 47.7214 178.242 47.2422C178.617 46.763 178.805 46.1354 178.805 45.3594C178.805 44.5781 178.615 43.9479 178.234 43.4688C177.859 42.9844 177.359 42.7422 176.734 42.7422ZM190.078 44.1484C190.078 45.8411 189.789 47.099 189.211 47.9219C188.633 48.7448 187.729 49.1562 186.5 49.1562C185.286 49.1562 184.388 48.7552 183.805 47.9531C183.221 47.1458 182.919 45.9427 182.898 44.3438V42.4141C182.898 40.7422 183.188 39.5 183.766 38.6875C184.344 37.875 185.25 37.4688 186.484 37.4688C187.708 37.4688 188.609 37.862 189.188 38.6484C189.766 39.4297 190.062 40.638 190.078 42.2734V44.1484ZM188.633 42.1719C188.633 40.9479 188.461 40.0573 188.117 39.5C187.773 38.9375 187.229 38.6562 186.484 38.6562C185.745 38.6562 185.206 38.9349 184.867 39.4922C184.529 40.0495 184.354 40.9062 184.344 42.0625V44.375C184.344 45.6042 184.521 46.513 184.875 47.1016C185.234 47.6849 185.776 47.9766 186.5 47.9766C187.214 47.9766 187.742 47.7005 188.086 47.1484C188.435 46.5964 188.617 45.7266 188.633 44.5391V42.1719ZM200.062 44.1484C200.062 45.8411 199.773 47.099 199.195 47.9219C198.617 48.7448 197.714 49.1562 196.484 49.1562C195.271 49.1562 194.372 48.7552 193.789 47.9531C193.206 47.1458 192.904 45.9427 192.883 44.3438V42.4141C192.883 40.7422 193.172 39.5 193.75 38.6875C194.328 37.875 195.234 37.4688 196.469 37.4688C197.693 37.4688 198.594 37.862 199.172 38.6484C199.75 39.4297 200.047 40.638 200.062 42.2734V44.1484ZM198.617 42.1719C198.617 40.9479 198.445 40.0573 198.102 39.5C197.758 38.9375 197.214 38.6562 196.469 38.6562C195.729 38.6562 195.19 38.9349 194.852 39.4922C194.513 40.0495 194.339 40.9062 194.328 42.0625V44.375C194.328 45.6042 194.505 46.513 194.859 47.1016C195.219 47.6849 195.76 47.9766 196.484 47.9766C197.198 47.9766 197.727 47.7005 198.07 47.1484C198.419 46.5964 198.602 45.7266 198.617 44.5391V42.1719Z" fill="#0B247A"/>
<path d="M75.5 33.9592H79.3054L83.8027 52V1H282" stroke="#0B247A" stroke-width="1.5" stroke-linecap="round"/>
<path d="M1.23779 37V26.3359H4.72412C5.88135 26.3359 6.75049 26.5752 7.33154 27.0537C7.91748 27.5322 8.21045 28.2402 8.21045 29.1777C8.21045 29.6758 8.06885 30.1177 7.78564 30.5034C7.50244 30.8843 7.1167 31.1797 6.62842 31.3896C7.20459 31.5508 7.65869 31.8584 7.99072 32.3125C8.32764 32.7617 8.49609 33.2988 8.49609 33.9238C8.49609 34.8809 8.18604 35.6328 7.56592 36.1797C6.9458 36.7266 6.06934 37 4.93652 37H1.23779ZM2.64404 32.0122V35.8501H4.96582C5.62012 35.8501 6.13525 35.6816 6.51123 35.3447C6.89209 35.0029 7.08252 34.5342 7.08252 33.9385C7.08252 32.6543 6.38428 32.0122 4.98779 32.0122H2.64404ZM2.64404 30.8843H4.76807C5.3833 30.8843 5.87402 30.7305 6.24023 30.4229C6.61133 30.1152 6.79688 29.6978 6.79688 29.1704C6.79688 28.5845 6.62598 28.1597 6.28418 27.896C5.94238 27.6274 5.42236 27.4932 4.72412 27.4932H2.64404V30.8843ZM14.7256 32.2466C13.5195 31.8999 12.6406 31.4751 12.0889 30.9722C11.542 30.4644 11.2686 29.8394 11.2686 29.0972C11.2686 28.2573 11.603 27.564 12.272 27.0171C12.9458 26.4653 13.8198 26.1895 14.894 26.1895C15.6265 26.1895 16.2783 26.3311 16.8496 26.6143C17.4258 26.8975 17.8701 27.2881 18.1826 27.7861C18.5 28.2842 18.6587 28.8286 18.6587 29.4194H17.2451C17.2451 28.7749 17.04 28.2695 16.6299 27.9033C16.2197 27.5322 15.6411 27.3467 14.894 27.3467C14.2007 27.3467 13.6587 27.5005 13.2681 27.8081C12.8823 28.1108 12.6895 28.5332 12.6895 29.0752C12.6895 29.5098 12.8726 29.8784 13.2388 30.1812C13.6099 30.479 14.2373 30.7524 15.1211 31.0015C16.0098 31.2505 16.7031 31.5264 17.2012 31.8291C17.7041 32.127 18.0752 32.4761 18.3145 32.8765C18.5586 33.2769 18.6807 33.748 18.6807 34.29C18.6807 35.1543 18.3438 35.8477 17.6699 36.3701C16.9961 36.8877 16.0952 37.1465 14.9673 37.1465C14.2349 37.1465 13.5513 37.0073 12.9165 36.729C12.2817 36.4458 11.791 36.0601 11.4443 35.5718C11.1025 35.0835 10.9316 34.5293 10.9316 33.9092H12.3452C12.3452 34.5537 12.582 35.064 13.0557 35.4399C13.5342 35.811 14.1714 35.9966 14.9673 35.9966C15.7095 35.9966 16.2783 35.8452 16.6738 35.5425C17.0693 35.2397 17.2671 34.8271 17.2671 34.3047C17.2671 33.7822 17.084 33.3794 16.7178 33.0962C16.3516 32.8081 15.6875 32.5249 14.7256 32.2466ZM27.3784 34.2168H22.9106L21.9072 37H20.457L24.5293 26.3359H25.7598L29.8394 37H28.3965L27.3784 34.2168ZM23.3354 33.0596H26.9609L25.1445 28.0718L23.3354 33.0596ZM32.0112 32.6714C32.0112 31.5679 32.1577 30.5083 32.4507 29.4927C32.7485 28.4771 33.1904 27.5542 33.7764 26.7241C34.3623 25.894 34.9702 25.3081 35.6001 24.9663L35.8784 25.8599C35.1655 26.4067 34.5796 27.2417 34.1206 28.3647C33.6665 29.4878 33.4175 30.7451 33.3735 32.1367L33.3662 32.7593C33.3662 34.644 33.7104 36.2798 34.3989 37.6665C34.814 38.4966 35.3071 39.146 35.8784 39.6147L35.6001 40.4424C34.9507 40.0811 34.3306 39.4756 33.7397 38.626C32.5874 36.9658 32.0112 34.981 32.0112 32.6714ZM39.4639 29.0752L39.5005 29.9541C40.0815 29.2705 40.8652 28.9287 41.8516 28.9287C42.96 28.9287 43.7144 29.3535 44.1147 30.2031C44.3784 29.8223 44.7202 29.5146 45.1401 29.2803C45.5649 29.0459 46.0654 28.9287 46.6416 28.9287C48.3799 28.9287 49.2637 29.8491 49.293 31.6899V37H47.938V31.7705C47.938 31.2041 47.8086 30.7817 47.5498 30.5034C47.291 30.2202 46.8564 30.0786 46.2461 30.0786C45.7432 30.0786 45.3257 30.23 44.9937 30.5327C44.6616 30.8306 44.4688 31.2334 44.415 31.7412V37H43.0527V31.8071C43.0527 30.6548 42.4888 30.0786 41.3608 30.0786C40.4722 30.0786 39.8643 30.457 39.5371 31.2139V37H38.1821V29.0752H39.4639ZM56.3208 32.1147H51.9336V31.3237L54.1309 29.2583C54.6631 28.7603 54.9292 28.3428 54.9292 28.0059C54.9292 27.7666 54.8511 27.5737 54.6948 27.4272C54.5386 27.2759 54.314 27.2002 54.021 27.2002C53.6548 27.2002 53.3838 27.293 53.208 27.4785C53.0371 27.6641 52.9517 27.896 52.9517 28.1743H51.8018C51.8018 27.6177 52.0044 27.1587 52.4097 26.7974C52.8198 26.436 53.3472 26.2554 53.9917 26.2554C54.6362 26.2554 55.1465 26.4116 55.5225 26.7241C55.8984 27.0317 56.0864 27.4541 56.0864 27.9912C56.0864 28.499 55.8252 29.0142 55.3027 29.5366L54.6875 30.1152L53.3984 31.1772H56.3208V32.1147ZM61.979 32.7446C61.979 33.8335 61.835 34.8784 61.5469 35.8794C61.2637 36.8755 60.8267 37.7959 60.2358 38.6406C59.6499 39.4854 59.0347 40.0859 58.3901 40.4424L58.1045 39.6147C58.8564 39.0386 59.4595 38.145 59.9136 36.9341C60.3726 35.7183 60.6069 34.3706 60.6167 32.8911V32.6567C60.6167 31.6313 60.5093 30.6792 60.2944 29.8003C60.0796 28.9165 59.7793 28.1255 59.3936 27.4272C59.0127 26.729 58.583 26.1846 58.1045 25.7939L58.3901 24.9663C59.0347 25.3228 59.6475 25.9185 60.2285 26.7534C60.8145 27.5884 61.2515 28.5088 61.5396 29.5146C61.8325 30.5205 61.979 31.5972 61.979 32.7446ZM71.2627 31.0381H65.1543V29.8589H71.2627V31.0381ZM71.2627 34.0776H65.1543V32.9058H71.2627V34.0776Z" fill="#0B247A"/>
</svg>
