<svg viewBox="0 0 29 29" fill="none" xmlns="http://www.w3.org/2000/svg">
<path d="M14.0953 5.66075V0.713867C10.9984 0.713867 8.13601 1.71341 5.8103 3.40551L8.71812 7.40774C10.2273 6.30926 12.0854 5.66075 14.0953 5.66075Z" fill="currentColor"/>
<path d="M8.71814 7.40775L5.81032 3.40552C3.43108 5.13692 1.61564 7.5941 0.687256 10.4524L5.39289 11.9812C5.99532 10.1265 7.17377 8.5313 8.71814 7.40775Z" fill="currentColor"/>
<path d="M19.4724 7.40774L22.3802 3.40551C20.0545 1.71341 17.1921 0.713867 14.0952 0.713867V5.66075C16.1051 5.66075 17.9633 6.30926 19.4724 7.40774Z" fill="currentColor"/>
<path d="M27.5032 10.4525L22.7976 11.9812C23.087 12.8717 23.2435 13.8218 23.2435 14.8091C23.2435 15.7964 23.0863 16.7458 22.7976 17.6369L27.5032 19.1657C27.9485 17.7935 28.1904 16.3298 28.1904 14.8091C28.1904 13.2884 27.9485 11.8247 27.5032 10.4525Z" fill="currentColor"/>
<path d="M22.7977 11.9812L27.5033 10.4524C26.5756 7.5941 24.7595 5.13692 22.3802 3.40552L19.4724 7.40775C21.0161 8.5313 22.1952 10.1265 22.7977 11.9812Z" fill="currentColor"/>
<path d="M5.39289 17.637L0.687256 19.1658C1.61496 22.0241 3.43108 24.4813 5.81032 26.2127L8.71814 22.2105C7.17444 21.0869 5.99532 19.4917 5.39289 17.637Z" fill="currentColor"/>
<path d="M19.4724 22.2105L22.3802 26.2127C24.7595 24.4813 26.5749 22.0241 27.5033 19.1658L22.7977 17.637C22.1952 19.4917 21.0168 21.0869 19.4724 22.2105Z" fill="currentColor"/>
<path d="M14.0952 23.9574V28.9043C17.1921 28.9043 20.0545 27.9048 22.3802 26.2127L19.4724 22.2104C17.9633 23.3089 16.1051 23.9574 14.0952 23.9574Z" fill="currentColor"/>
<path d="M8.71812 22.2104L5.8103 26.2127C8.13601 27.9055 10.9984 28.9043 14.0953 28.9043V23.9574C12.0854 23.9574 10.2273 23.3089 8.71812 22.2104Z" fill="currentColor"/>
<path d="M4.94688 14.8091C4.94688 13.8224 5.10409 12.8724 5.39277 11.9812L0.687142 10.4525C0.241923 11.8247 0 13.2884 0 14.8091C0 16.3298 0.241923 17.7935 0.687142 19.1657L5.39277 17.6369C5.10342 16.7465 4.94688 15.7964 4.94688 14.8091Z" fill="currentColor"/>
</svg>
