<svg width="19" height="18" viewBox="0 0 19 18" fill="none" xmlns="http://www.w3.org/2000/svg">
<path d="M18.5 8.98317C18.5005 8.59326 18.3303 8.22202 18.033 7.96434L11.3555 2.18312C10.8953 1.80309 10.2109 1.85412 9.81418 2.29805C9.41741 2.74199 9.45333 3.41645 9.89508 3.81713L15.7343 8.87239C15.7667 8.90036 15.7853 8.94074 15.7853 8.98317C15.7853 9.02561 15.7667 9.06598 15.7343 9.09395L9.89508 14.1492C9.5877 14.403 9.44414 14.8008 9.51994 15.1885C9.59574 15.5763 9.879 15.8932 10.2601 16.0167C10.6413 16.1402 11.0604 16.0508 11.3555 15.7832L18.0306 10.0038C18.3286 9.74564 18.4996 9.37391 18.5 8.98317Z" fill="white"/>
</svg>
