<svg width="18" height="18" viewBox="0 0 18 18" fill="none" xmlns="http://www.w3.org/2000/svg">
<path d="M1.05688e-06 8.98317C-0.000489321 8.59326 0.169687 8.22202 0.467042 7.96434L7.14452 2.18312C7.60473 1.80309 8.28906 1.85412 8.68582 2.29805C9.08259 2.74199 9.04667 3.41645 8.60492 3.81713L2.76572 8.87239C2.73329 8.90036 2.7147 8.94074 2.7147 8.98317C2.7147 9.02561 2.73329 9.06598 2.76572 9.09395L8.60492 14.1492C8.9123 14.403 9.05586 14.8008 8.98006 15.1885C8.90426 15.5763 8.621 15.8932 8.23987 16.0167C7.85875 16.1402 7.43956 16.0508 7.14452 15.7832L0.469437 10.0038C0.171362 9.74564 0.000378081 9.37391 1.05688e-06 8.98317Z" fill="currentColor"/>
</svg>
