<svg width="40" height="40" viewBox="0 0 40 40" fill="none" xmlns="http://www.w3.org/2000/svg">
<path d="M23.0462 20.2613C22.9845 20.1998 22.9499 20.1162 22.9499 20.0291C22.9499 19.9419 22.9845 19.8584 23.0462 19.7969L35.1984 7.64596C35.9668 6.87649 35.966 5.62981 35.1965 4.86143C34.427 4.09305 33.1803 4.09393 32.412 4.8634L20.261 17.0091C20.1995 17.0707 20.116 17.1054 20.0288 17.1054C19.9417 17.1054 19.8582 17.0707 19.7966 17.0091L7.64572 4.8634C6.87734 4.09465 5.63125 4.09436 4.8625 4.86274C4.09376 5.63113 4.09346 6.87722 4.86185 7.64596L17.0114 19.7969C17.0731 19.8584 17.1078 19.9419 17.1078 20.0291C17.1078 20.1162 17.0731 20.1998 17.0114 20.2613L4.86185 32.4135C4.36479 32.9108 4.17079 33.6355 4.35293 34.3146C4.53507 34.9937 5.06567 35.5241 5.74487 35.7059C6.42406 35.8877 7.14866 35.6934 7.64572 35.1961L19.7966 23.0438C19.8582 22.9822 19.9417 22.9475 20.0288 22.9475C20.116 22.9475 20.1995 22.9822 20.261 23.0438L32.412 35.1961C33.1803 35.9648 34.4264 35.9651 35.1952 35.1967C35.9639 34.4283 35.9642 33.1822 35.1958 32.4135L23.0462 20.2613Z" fill="currentColor"/>
</svg>
