<svg width="30" height="31" viewBox="0 0 30 31" fill="none" xmlns="http://www.w3.org/2000/svg">
<path fill-rule="evenodd" clip-rule="evenodd" d="M16.062 23.5551C16.062 19.7432 19.1522 16.653 22.9641 16.653C26.7741 16.6577 29.8615 19.7451 29.8662 23.5551C29.8662 27.367 26.776 30.4572 22.9641 30.4572C19.1522 30.4572 16.062 27.367 16.062 23.5551ZM26.6806 24.617H24.5569H21.3713H19.2476C18.6611 24.617 18.1857 24.1415 18.1857 23.5551C18.1857 22.9686 18.6611 22.4932 19.2476 22.4932H21.3713H24.5569H26.6806C27.267 22.4932 27.7425 22.9686 27.7425 23.5551C27.7425 24.1415 27.267 24.617 26.6806 24.617Z" fill="url(#paint1_linear_1175_238)"/>
<path d="M13.9382 24.6169C11.9414 25.7686 9.65322 26.9636 8.09828 27.7569C7.35512 28.136 6.51559 27.4841 6.68869 26.668L8.23526 19.3763C8.30933 19.0271 8.19164 18.665 7.92648 18.426L2.52809 13.561C1.88518 12.9816 2.23191 11.9145 3.09259 11.8237L10.3195 11.0609C10.6745 11.0235 10.9826 10.7996 11.1279 10.4736L14.0866 3.83604C14.439 3.04556 15.561 3.04556 15.9134 3.83605L18.872 10.4736C19.0174 10.7996 19.3255 11.0235 19.6804 11.0609L26.9074 11.8237C27.7681 11.9145 28.1148 12.9816 27.4719 13.561L25.3917 15.4356" stroke="#0B247A" stroke-width="2.5" stroke-linecap="round"/>
<defs>
<linearGradient id="paint1_linear_1175_238" x1="16.062" y1="16.653" x2="16.062" y2="30.4572" gradientUnits="userSpaceOnUse">
<stop stop-color="#FF2E59"/>
<stop offset="1" stop-color="#DB0330"/>
</linearGradient>
</defs>
</svg>
