<svg width="30" height="31" viewBox="0 0 30 31" fill="none" xmlns="http://www.w3.org/2000/svg">
<path d="M13.9382 24.7853C11.7644 26.039 9.24521 27.3441 7.70273 28.1264C7.11904 28.4224 6.46092 27.9102 6.59672 27.27L8.26106 19.4231C8.31916 19.1491 8.22684 18.865 8.01883 18.6776L2.16889 13.4056C1.66455 12.9511 1.93654 12.114 2.61171 12.0428L10.4432 11.2162C10.7216 11.1868 10.9633 11.0112 11.0773 10.7555L14.2835 3.56272C14.5599 2.94261 15.4401 2.94262 15.7165 3.56272L18.9227 10.7555C19.0367 11.0112 19.2783 11.1868 19.5568 11.2162L27.3883 12.0428C28.0635 12.114 28.3354 12.9511 27.8311 13.4056L25.3917 15.604" stroke="currentColor" stroke-width="1.96114" stroke-linecap="round"/>
</svg>
