<svg width="48" height="48" viewBox="0 0 48 48" fill="none" xmlns="http://www.w3.org/2000/svg">
<path d="M29.9244 15.1853L24.9134 3.94348C24.561 3.15299 23.439 3.15299 23.0866 3.94348L18.0756 15.1853C17.9174 15.5401 17.568 15.7713 17.1796 15.778L5.24888 15.9852C4.34135 16.001 3.92253 17.1203 4.59679 17.7279L13.5661 25.8111C13.8313 26.05 13.949 26.4122 13.8749 26.7614L11.2482 39.1455C11.0791 39.9428 11.8784 40.5934 12.6199 40.255C15.1684 39.0919 19.9507 36.8506 23.5484 34.8172C23.8324 34.6567 24.1761 34.6416 24.4717 34.7796L35.9227 40.1244C36.7007 40.4875 37.5445 39.766 37.3065 38.9411L33.8064 26.8093C33.6987 26.4359 33.817 26.0339 34.1099 25.7784L43.3293 17.7376C44.0194 17.1358 43.6049 16.0001 42.6894 15.9842L30.8204 15.778C30.432 15.7713 30.0826 15.5401 29.9244 15.1853Z" stroke="currentColor" stroke-width="3" stroke-linecap="round"/>
<path d="M35.4695 9.32295L38.0409 6.75153" stroke="currentColor" stroke-width="2.5" stroke-linecap="round"/>
<path d="M12.7375 9.32294L10.4534 6.75151" stroke="currentColor" stroke-width="2.5" stroke-linecap="round"/>
<path d="M24 46.1056L23.9999 42.4689" stroke="currentColor" stroke-width="2.5" stroke-linecap="round"/>
<path d="M6.20325 28.806L2.74483 29.9302" stroke="currentColor" stroke-width="2.5" stroke-linecap="round"/>
<path d="M44.0016 30.4318L40.8523 28.6135" stroke="currentColor" stroke-width="2.5" stroke-linecap="round"/>
</svg>
