<svg width="18" height="18" viewBox="0 0 18 18" fill="none" xmlns="http://www.w3.org/2000/svg">
<path fill-rule="evenodd" clip-rule="evenodd" d="M9.64282 13.8214C9.64282 11.5136 11.5136 9.64282 13.8214 9.64282C16.128 9.64566 17.9971 11.5148 18 13.8214C18 16.1292 16.1292 18 13.8214 18C11.5136 18 9.64282 16.1292 9.64282 13.8214ZM14.7857 14.4643H16.0714C16.4264 14.4643 16.7142 14.1764 16.7142 13.8214C16.7142 13.4664 16.4264 13.1785 16.0714 13.1785H14.7857C14.6082 13.1785 14.4643 13.0346 14.4643 12.8571V11.5714C14.4643 11.2164 14.1764 10.9285 13.8214 10.9285C13.4664 10.9285 13.1785 11.2164 13.1785 11.5714V12.8571C13.1785 13.0346 13.0346 13.1785 12.8571 13.1785H11.5714C11.2164 13.1785 10.9285 13.4664 10.9285 13.8214C10.9285 14.1764 11.2164 14.4643 11.5714 14.4643H12.8571C13.0346 14.4643 13.1785 14.6082 13.1785 14.7857V16.0714C13.1785 16.4264 13.4664 16.7142 13.8214 16.7142C14.1764 16.7142 14.4643 16.4264 14.4643 16.0714V14.7857C14.4643 14.6082 14.6082 14.4643 14.7857 14.4643Z" fill="currentColor"/>
<path d="M8.3571 14.4643C7.42964 14.9992 6.3983 15.5496 5.54327 15.9937C4.80291 16.3783 3.96349 15.7282 4.1366 14.9121L4.8573 11.5142C4.93136 11.165 4.81368 10.8028 4.54851 10.5638L2.10695 8.36353C1.46404 7.78414 1.81076 6.71704 2.67145 6.6262L5.94002 6.28122C6.295 6.24375 6.6031 6.01991 6.74843 5.69388L8.08657 2.69188C8.43893 1.9014 9.56095 1.90139 9.91331 2.69188L11.2514 5.69388C11.3968 6.01991 11.7049 6.24375 12.0599 6.28122L15.3284 6.6262C16.1891 6.71704 16.5358 7.78414 15.8929 8.36353L15.2912 8.90582" stroke="currentColor" stroke-width="1.5" stroke-linecap="round"/>
</svg>
