<svg width="30" height="31" viewBox="0 0 30 31" fill="none" xmlns="http://www.w3.org/2000/svg">
<path fill-rule="evenodd" clip-rule="evenodd" d="M16.0618 23.7234C16.0618 19.9115 19.1519 16.8214 22.9638 16.8214C26.7738 16.826 29.8612 19.9135 29.8659 23.7234C29.8659 27.5353 26.7758 30.6255 22.9638 30.6255C19.1519 30.6255 16.0618 27.5353 16.0618 23.7234ZM24.5567 24.7853H26.6804C27.2668 24.7853 27.7422 24.3099 27.7422 23.7234C27.7422 23.137 27.2668 22.6616 26.6804 22.6616H24.5567C24.2634 22.6616 24.0257 22.4239 24.0257 22.1306V20.0069C24.0257 19.4205 23.5503 18.9451 22.9639 18.9451C22.3774 18.9451 21.902 19.4205 21.902 20.0069V22.1306C21.902 22.4239 21.6643 22.6616 21.3711 22.6616H19.2474C18.6609 22.6616 18.1855 23.137 18.1855 23.7234C18.1855 24.3099 18.6609 24.7853 19.2474 24.7853H21.3711C21.6643 24.7853 21.902 25.023 21.902 25.3162V27.4399C21.902 28.0264 22.3774 28.5018 22.9639 28.5018C23.5503 28.5018 24.0257 28.0264 24.0257 27.4399V25.3162C24.0257 25.023 24.2634 24.7853 24.5567 24.7853Z" fill="currentColor"/>
<path d="M13.9382 24.7853C11.7644 26.039 9.24521 27.3441 7.70273 28.1264C7.11904 28.4224 6.46092 27.9102 6.59672 27.27L8.26106 19.4231C8.31916 19.1491 8.22684 18.865 8.01883 18.6776L2.16889 13.4056C1.66455 12.9511 1.93654 12.114 2.61171 12.0428L10.4432 11.2162C10.7216 11.1868 10.9633 11.0112 11.0773 10.7555L14.2835 3.56272C14.5599 2.94261 15.4401 2.94262 15.7165 3.56272L18.9227 10.7555C19.0367 11.0112 19.2783 11.1868 19.5568 11.2162L27.3883 12.0428C28.0635 12.114 28.3354 12.9511 27.8311 13.4056L25.3917 15.604" stroke="#0B247A" stroke-width="1.96114" stroke-linecap="round"/>
</svg>
