<svg viewBox="0 0 44 43" fill="none" xmlns="http://www.w3.org/2000/svg">
<path d="M27.2802 13.5429L22.9133 3.74615C22.561 2.95566 21.4389 2.95566 21.0866 3.74614L16.7197 13.5429C16.5615 13.8977 16.2121 14.1289 15.8237 14.1356L5.46633 14.3155C4.55881 14.3313 4.13998 15.4506 4.81424 16.0582L12.6083 23.0822C12.8735 23.3211 12.9912 23.6833 12.9171 24.0325L10.6187 34.8689C10.4496 35.6662 11.2509 36.3155 11.9921 35.9764C14.3043 34.9183 18.4167 32.9831 21.5479 31.2172C21.8321 31.057 22.176 31.0417 22.4716 31.1796L32.4731 35.8479C33.2511 36.211 34.0948 35.4894 33.8568 34.6645L30.8032 24.0804C30.6955 23.707 30.8139 23.305 31.1068 23.0496L39.1118 16.0679C39.8018 15.4661 39.3873 14.3303 38.4719 14.3144L28.1762 14.1356C27.7878 14.1289 27.4384 13.8977 27.2802 13.5429Z" fill="currentColor"/>
<path d="M32.2748 8.3518L34.5784 6.04823" stroke="currentColor" stroke-width="2.5" stroke-linecap="round"/>
<path d="M11.9106 8.35181L9.86446 6.04824" stroke="currentColor" stroke-width="2.5" stroke-linecap="round"/>
<path d="M22 41.3029L21.9999 38.0451" stroke="currentColor" stroke-width="2.5" stroke-linecap="round"/>
<path d="M6.05708 25.8054L2.95891 26.8125" stroke="currentColor" stroke-width="2.5" stroke-linecap="round"/>
<path d="M39.9181 27.2618L37.0968 25.6329" stroke="currentColor" stroke-width="2.5" stroke-linecap="round"/>
</svg>
