<svg width="38" height="38" viewBox="0 0 38 38" fill="none" xmlns="http://www.w3.org/2000/svg">
<path d="M15.6006 27.1606C15.6046 27.0712 15.5723 26.9841 15.5111 26.919L7.23249 17.9496C5.36017 16.1176 4.89316 13.2825 6.07892 10.9468C6.96466 9.18713 8.64596 7.96382 10.5928 7.66249C12.5731 7.33336 14.5904 7.98202 16.0078 9.4037L18.0856 11.3037C18.6035 11.7757 19.3957 11.7757 19.9136 11.3037L22.0321 9.37113C23.4455 7.96761 25.4495 7.3328 27.4132 7.66656C29.3629 7.96653 31.0477 9.18979 31.9366 10.9508C32.829 12.6929 32.7587 14.7722 31.7506 16.45C31.7037 16.5325 31.6929 16.6307 31.7208 16.7214C31.748 16.8111 31.8115 16.8854 31.8958 16.9263C32.487 17.2158 33.0508 17.5583 33.5801 17.9496C33.6579 18.0074 33.7568 18.0287 33.8515 18.008C33.9461 17.9885 34.028 17.9298 34.0768 17.8465C35.5596 15.3663 35.6647 12.2984 34.355 9.72263C33.0601 7.20103 30.6459 5.44301 27.8486 4.98455C25.0512 4.52608 22.2022 5.42151 20.1701 7.39785L19.0057 8.46049L17.8806 7.43585C15.854 5.41762 12.9773 4.50269 10.1571 4.97942C7.35221 5.41718 4.93147 7.18282 3.65777 9.71992C1.94204 13.0872 2.60052 17.1774 5.28634 19.8361L14.9221 30.2671C15.0153 30.3675 15.1598 30.4019 15.2883 30.3545C15.4168 30.307 15.5042 30.1868 15.5097 30.0499L15.6006 27.1606Z" fill="currentColor"/>
<path fill-rule="evenodd" clip-rule="evenodd" d="M17.6364 26.6747C17.6364 21.8027 21.5859 17.8533 26.4578 17.8533C31.3276 17.8585 35.274 21.8049 35.2793 26.6747C35.2793 31.5466 31.3298 35.4961 26.4578 35.4961C21.5859 35.4961 17.6364 31.5466 17.6364 26.6747ZM30.8686 26.6747C30.8686 26.1125 30.4128 25.6568 29.8507 25.6568H27.815C27.6276 25.6568 27.4757 25.5049 27.4757 25.3175V23.2818C27.4757 22.7197 27.02 22.264 26.4578 22.264C25.8957 22.264 25.44 22.7197 25.44 23.2818V25.3175C25.44 25.5049 25.2881 25.6568 25.1007 25.6568H23.065C22.5028 25.6568 22.0471 26.1125 22.0471 26.6747C22.0471 27.2368 22.5028 27.6925 23.065 27.6925H25.1007C25.2881 27.6925 25.44 27.8444 25.44 28.0318V30.0675C25.44 30.6297 25.8957 31.0854 26.4578 31.0854C27.02 31.0854 27.4757 30.6297 27.4757 30.0675V28.0318C27.4757 27.8444 27.6276 27.6925 27.815 27.6925H29.8507C30.4128 27.6925 30.8686 27.2368 30.8686 26.6747Z" fill="currentColor"/>
</svg>
