<svg viewBox="0 0 44 43" fill="none" xmlns="http://www.w3.org/2000/svg">
<path fill-rule="evenodd" clip-rule="evenodd" d="M23.0177 5.0217L38.5014 21.2193V21.2207C38.8916 21.628 39.0012 22.2291 38.7799 22.7481C38.5586 23.2671 38.049 23.6039 37.4851 23.6038H35.3737C34.985 23.6038 34.6699 23.9191 34.6699 24.3081V36.2802C34.6699 37.447 33.7245 38.3929 32.5584 38.3929H11.4443C10.2782 38.3929 9.33291 37.447 9.33291 36.2802V24.3081C9.33291 23.9191 9.01781 23.6038 8.62911 23.6038H6.5177C5.9529 23.605 5.4421 23.2682 5.22028 22.7485C4.99847 22.2288 5.10859 21.6267 5.5 21.2193L20.9837 5.0217C21.5492 4.469 22.4522 4.469 23.0177 5.0217ZM23.0178 33.0265L28.3259 27.487L28.3245 27.4884C29.9381 25.8652 29.9349 23.2415 28.3171 21.6223C26.6994 20.0032 24.0773 19.9993 22.4548 21.6136L22.2492 21.8192C22.1119 21.9562 21.8897 21.9562 21.7524 21.8192L21.5468 21.6136C20.6083 20.6621 19.2649 20.2284 17.9476 20.4516C16.4121 20.7003 15.1446 21.7875 14.6641 23.2678C14.1837 24.7481 14.5709 26.373 15.6673 27.4771L20.9852 33.0265C21.2507 33.3037 21.6178 33.4605 22.0015 33.4605C22.3852 33.4605 22.7523 33.3037 23.0178 33.0265Z" fill="currentColor"/>
</svg>
