<svg width="43" height="43" viewBox="0 0 43 43" fill="none" xmlns="http://www.w3.org/2000/svg">
<path d="M6.14288 12.2857C6.14288 11.4376 6.83045 10.75 7.6786 10.75H35.3215C36.1696 10.75 36.8572 11.4376 36.8572 12.2857C36.8572 13.1339 36.1696 13.8214 35.3215 13.8214H7.6786C6.83045 13.8214 6.14288 13.1339 6.14288 12.2857Z" fill="currentColor"/>
<path d="M6.14288 21.5495C6.14288 20.7013 6.83045 20.0138 7.6786 20.0138H35.3215C36.1696 20.0138 36.8572 20.7013 36.8572 21.5495C36.8572 22.3976 36.1696 23.0852 35.3215 23.0852H7.6786C6.83045 23.0852 6.14288 22.3976 6.14288 21.5495Z" fill="currentColor"/>
<path d="M7.6786 29.2776C6.83045 29.2776 6.14288 29.9651 6.14288 30.8133C6.14288 31.6614 6.83045 32.349 7.6786 32.349H35.3215C36.1696 32.349 36.8572 31.6614 36.8572 30.8133C36.8572 29.9651 36.1696 29.2776 35.3215 29.2776H7.6786Z" fill="currentColor"/>
</svg>
