<svg width="66" height="66" viewBox="0 0 66 66" fill="none" xmlns="http://www.w3.org/2000/svg">
<path d="M56.5714 48.3215C56.5714 45.7179 54.4608 43.6072 51.8571 43.6072C50.3755 43.6099 48.9837 44.3181 48.1093 45.5142C47.8867 45.8109 47.5374 45.9856 47.1664 45.9856C44.978 45.9793 42.8767 46.8429 41.325 48.3861C39.7734 49.9294 38.8985 52.0259 38.8928 54.2144V55.393C38.8928 56.6948 37.8375 57.7501 36.5357 57.7501C35.2339 57.7501 34.1786 56.6948 34.1786 55.393V49.1913C34.1786 48.616 34.5941 48.1248 35.1615 48.0293C44.7917 46.3912 51.8416 38.0543 51.8571 28.2858V20.0358C51.8571 17.4322 49.7465 15.3215 47.1428 15.3215C45.9945 15.3213 45.0131 16.1486 44.8191 17.2805C44.6251 18.4124 45.275 19.5193 46.3579 19.9015C46.829 20.0684 47.1436 20.5143 47.1428 21.014V28.2858C47.1428 36.7476 40.2832 43.6072 31.8214 43.6072C23.3596 43.6072 16.5 36.7476 16.5 28.2858V21.014C16.4993 20.5143 16.8138 20.0684 17.2849 19.9015C18.3678 19.5193 19.0177 18.4124 18.8237 17.2805C18.6298 16.1486 17.6484 15.3213 16.5 15.3215C13.8964 15.3215 11.7857 17.4322 11.7857 20.0358V28.2858C11.8012 38.0543 18.8512 46.3912 28.4813 48.0293C29.0487 48.1248 29.4642 48.616 29.4643 49.1913V55.393C29.4643 59.2984 32.6303 62.4644 36.5357 62.4644C40.4411 62.4644 43.6071 59.2984 43.6071 55.393V54.2144C43.6095 53.2578 44.0014 52.3435 44.6926 51.6822C45.3837 51.0208 46.3144 50.6696 47.2701 50.7093C47.6236 50.7244 47.9516 50.8975 48.1635 51.1807C49.035 52.3449 50.4029 53.0319 51.8571 53.0358C54.4608 53.0358 56.5714 50.9252 56.5714 48.3215Z" fill="currentColor"/>
<path fill-rule="evenodd" clip-rule="evenodd" d="M24.75 36.5357C22.7973 36.5357 21.2143 34.9527 21.2143 33V9.42854C21.2143 7.47582 22.7973 5.89282 24.75 5.89282H38.8929C40.8456 5.89282 42.4286 7.47582 42.4286 9.42854V33C42.4286 34.9527 40.8456 36.5357 38.8929 36.5357H24.75ZM27.1072 10.6071C26.4562 10.6071 25.9286 11.1348 25.9286 11.7857V28.2857C25.9286 28.9366 26.4562 29.4643 27.1072 29.4643H36.5357C37.1866 29.4643 37.7143 28.9366 37.7143 28.2857V11.7857C37.7143 11.1348 37.1866 10.6071 36.5357 10.6071H27.1072Z" fill="currentColor"/>
</svg>
