<svg viewBox="0 0 43 43" fill="none" xmlns="http://www.w3.org/2000/svg">
<path fill-rule="evenodd" clip-rule="evenodd" d="M39.5578 33.8654L24.3778 6.26429C23.8171 5.24551 22.7088 4.60718 21.5008 4.60718C20.2928 4.60718 19.1845 5.24551 18.6238 6.26429L3.44225 33.8654C2.91481 34.8241 2.95215 35.9756 3.54069 36.9015C4.12923 37.8274 5.18334 38.3931 6.32005 38.3929H36.6799C37.8167 38.3931 38.8708 37.8274 39.4593 36.9015C40.0479 35.9756 40.0852 34.8241 39.5578 33.8654ZM19.8758 15.9641C19.8758 15.1101 20.6029 14.4178 21.4998 14.4178C22.3968 14.4178 23.1239 15.1101 23.1239 15.9641V25.2418C23.1239 26.0958 22.3968 26.7881 21.4998 26.7881C20.6029 26.7881 19.8758 26.0958 19.8758 25.2418V15.9641ZM21.5358 33.7618H21.5813C22.2262 33.7518 22.8396 33.4947 23.2829 33.0486C23.7261 32.6024 23.9616 32.0049 23.9361 31.3913C23.8839 30.1254 22.7917 29.1244 21.4611 29.1229H21.4156C20.7723 29.1341 20.1607 29.3911 19.7185 29.836C19.2762 30.281 19.0404 30.8765 19.064 31.4887C19.1145 32.7549 20.205 33.7577 21.5358 33.7618Z" fill="url(#PANIC)"/>
</svg>
