<svg width="48" height="48" viewBox="0 0 48 48" fill="none" xmlns="http://www.w3.org/2000/svg">
<path fill-rule="evenodd" clip-rule="evenodd" d="M44.1575 37.8031L27.2125 6.99262C26.5865 5.85537 25.3494 5.14282 24.0009 5.14282C22.6524 5.14282 21.4153 5.85537 20.7894 6.99262L3.84253 37.8031C3.25376 38.8733 3.29544 40.1587 3.95242 41.1923C4.60939 42.2259 5.78607 42.8573 7.05496 42.8571H40.9451C42.214 42.8573 43.3906 42.2259 44.0476 41.1923C44.7046 40.1587 44.7463 38.8733 44.1575 37.8031ZM22.187 17.8203C22.187 16.867 22.9986 16.0942 23.9998 16.0942C25.0011 16.0942 25.8127 16.867 25.8127 17.8203V28.1768C25.8127 29.1301 25.0011 29.9029 23.9998 29.9029C22.9986 29.9029 22.187 29.1301 22.187 28.1768V17.8203ZM24.04 37.6875H24.0907C24.8106 37.6764 25.4954 37.3894 25.9902 36.8913C26.4849 36.3933 26.7478 35.7264 26.7194 35.0414C26.6611 33.6283 25.4419 32.5109 23.9566 32.5092H23.9058C23.1877 32.5217 22.505 32.8086 22.0113 33.3053C21.5176 33.802 21.2544 34.4667 21.2808 35.1501C21.3372 36.5635 22.5545 37.6829 24.04 37.6875Z" fill="#0B247A"/>
</svg>
