<svg width="44" height="43" viewBox="0 0 44 43" fill="none" xmlns="http://www.w3.org/2000/svg">
<path fill-rule="evenodd" clip-rule="evenodd" d="M40.0578 33.8654L24.8778 6.26429C24.3171 5.24551 23.2089 4.60718 22.0008 4.60718C20.7928 4.60718 19.6846 5.24551 19.1238 6.26429L3.94226 33.8654C3.41482 34.8241 3.45216 35.9756 4.0407 36.9015C4.62925 37.8274 5.68335 38.3931 6.82007 38.3929H37.18C38.3167 38.3931 39.3708 37.8274 39.9593 36.9015C40.5479 35.9756 40.5852 34.8241 40.0578 33.8654ZM20.3758 15.9641C20.3758 15.1101 21.1029 14.4178 21.9999 14.4178C22.8968 14.4178 23.6239 15.1101 23.6239 15.9641V25.2418C23.6239 26.0958 22.8968 26.7881 21.9999 26.7881C21.1029 26.7881 20.3758 26.0958 20.3758 25.2418V15.9641ZM22.0358 33.7618H22.0813C22.7262 33.7518 23.3397 33.4947 23.7829 33.0486C24.2261 32.6024 24.4616 32.0049 24.4362 31.3913C24.3839 30.1254 23.2917 29.1244 21.9611 29.1229H21.9156C21.2723 29.1341 20.6608 29.3911 20.2185 29.836C19.7762 30.281 19.5404 30.8765 19.564 31.4887C19.6145 32.7549 20.705 33.7577 22.0358 33.7618Z" fill="white"/>
</svg>
