<svg width="43" height="43" viewBox="0 0 43 43" fill="none" xmlns="http://www.w3.org/2000/svg">
<path d="M17.8544 23.4702C18.2504 22.6488 18.7847 21.908 19.4319 21.2833C19.6044 21.1187 19.6916 20.8785 19.6669 20.6361C19.6422 20.3937 19.5085 20.178 19.3066 20.0547C17.6094 18.9968 15.6689 18.437 13.691 18.4346C8.80939 18.4577 4.513 21.7945 3.0983 26.6614C3.03172 26.8938 3.07443 27.1452 3.21351 27.3397C3.35259 27.5342 3.57168 27.6488 3.80448 27.6489H16.3507C16.7578 27.6489 17.0878 27.3051 17.0878 26.881C17.0862 25.6975 17.3486 24.5299 17.8544 23.4702Z" fill="currentColor"/>
<path d="M13.3873 16.8989C17.2549 16.8989 20.3902 13.6329 20.3902 9.60421C20.3902 5.57549 17.2549 2.30957 13.3873 2.30957C9.51978 2.30957 6.38449 5.57549 6.38449 9.60421C6.38449 13.6329 9.51978 16.8989 13.3873 16.8989Z" fill="currentColor"/>
<path d="M34.0833 21.5767C32.4337 21.2881 30.7525 21.8536 29.5764 23.0925L29.1268 23.5532C29.0579 23.6253 28.9642 23.6658 28.8665 23.6658C28.7689 23.6658 28.6752 23.6253 28.6063 23.5532L28.1641 23.0925C26.1287 21.0264 22.8778 21.046 20.8655 23.1363C18.8531 25.2266 18.8253 28.6129 20.8029 30.7388L28.3424 38.9303C28.4814 39.0809 28.6733 39.1661 28.8739 39.1661C29.0745 39.1661 29.2664 39.0809 29.4054 38.9303L36.9331 30.7495C38.5171 29.1026 38.9099 26.5837 37.9076 24.4992C37.1662 22.9341 35.7391 21.8435 34.0833 21.5767Z" fill="currentColor"/>
</svg>
