<svg width="18" height="18" viewBox="0 0 18 18" fill="none" xmlns="http://www.w3.org/2000/svg">
<path d="M9.20765 1.93359C6.37903 2.04639 3.90082 3.86189 2.94044 6.52488C2.91464 6.59677 2.84181 6.64057 2.76622 6.62967L1.68044 6.46638C1.55918 6.45083 1.43925 6.5035 1.36865 6.60331C1.29932 6.70494 1.29407 6.83723 1.35515 6.94402L3.07736 9.96545C3.12695 10.0522 3.21405 10.1109 3.31305 10.1244C3.41205 10.1379 3.51168 10.1046 3.58265 10.0342L6.00622 7.62609C6.09278 7.5404 6.12346 7.41315 6.08548 7.29743C6.04749 7.18171 5.94736 7.09739 5.82686 7.07967L4.72436 6.91509C4.67445 6.90784 4.63084 6.87757 4.60659 6.83335C4.58233 6.78913 4.58024 6.73609 4.60094 6.69009C5.66089 4.29029 8.31469 3.02441 10.8468 3.71081C13.3789 4.3972 15.03 6.83006 14.7328 9.43664C14.4357 12.0432 12.2793 14.042 9.65765 14.1408C9.37056 14.146 9.10804 14.3039 8.96897 14.5551C8.8299 14.8063 8.83541 15.1126 8.98343 15.3587C9.13145 15.6047 9.39949 15.7531 9.68658 15.748H9.71679C12.195 15.6719 14.4425 14.2742 15.6068 12.0853C16.771 9.89627 16.6735 7.25136 15.3513 5.15402C14.0291 3.05668 11.6847 1.82828 9.20765 1.93488V1.93359Z" fill="currentColor"/>
</svg>
