<svg width="18" height="18" viewBox="0 0 18 18" fill="none" xmlns="http://www.w3.org/2000/svg">
<path d="M9.20765 1.93372C6.37903 2.04651 3.90082 3.86202 2.94044 6.525C2.91464 6.59689 2.84181 6.64069 2.76622 6.62979L1.68044 6.4665C1.55918 6.45096 1.43925 6.50363 1.36865 6.60343C1.29932 6.70506 1.29407 6.83735 1.35515 6.94415L3.07736 9.96557C3.12695 10.0523 3.21405 10.1111 3.31305 10.1245C3.41205 10.138 3.51168 10.1047 3.58265 10.0344L6.00622 7.62622C6.09278 7.54053 6.12346 7.41327 6.08548 7.29755C6.04749 7.18183 5.94736 7.09752 5.82686 7.07979L4.72436 6.91522C4.67445 6.90796 4.63084 6.87769 4.60659 6.83347C4.58233 6.78925 4.58024 6.73621 4.60094 6.69022C5.66089 4.29041 8.31469 3.02453 10.8468 3.71093C13.3789 4.39732 15.03 6.83019 14.7328 9.43677C14.4357 12.0433 12.2793 14.0421 9.65765 14.1409C9.37056 14.1461 9.10804 14.304 8.96897 14.5552C8.8299 14.8065 8.83541 15.1128 8.98343 15.3588C9.13145 15.6049 9.39949 15.7532 9.68658 15.7481H9.71679C12.195 15.672 14.4425 14.2744 15.6068 12.0854C16.771 9.89639 16.6735 7.25148 15.3513 5.15414C14.0291 3.0568 11.6847 1.8284 9.20765 1.935V1.93372Z" fill="currentColor"/>
</svg>
