<svg width="43" height="43" viewBox="0 0 43 43" fill="none" xmlns="http://www.w3.org/2000/svg">
<path fill-rule="evenodd" clip-rule="evenodd" d="M30.7607 27.4266L37.6088 34.2747C38.7599 35.4261 38.7599 37.2925 37.6088 38.444C36.4492 39.5751 34.5991 39.5751 33.4395 38.444L26.5915 31.5974C20.1263 35.9197 11.4367 34.6328 6.50181 28.6222C1.56687 22.6116 1.99617 13.8378 7.49433 8.33771C12.9925 2.83761 21.7661 2.40521 27.7785 7.33802C33.7908 12.2708 35.0807 20.9599 30.7607 27.4266ZM28.8899 19.0365C28.8899 13.1333 24.1044 8.34788 18.2013 8.34788C12.3009 8.35438 7.51922 13.136 7.51272 19.0365C7.51272 24.9396 12.2982 29.725 18.2013 29.725C24.1044 29.725 28.8899 24.9396 28.8899 19.0365Z" fill="currentColor"/>
</svg>
