<svg viewBox="0 0 44 43" fill="none" xmlns="http://www.w3.org/2000/svg">
<path fill-rule="evenodd" clip-rule="evenodd" d="M36.0589 17.3722L38.0031 18.0617C39.4566 18.5791 40.4274 19.955 40.4274 21.4979C40.4274 23.0407 39.4566 24.4167 38.0031 24.934L36.0589 25.6266C35.4963 25.8268 35.0449 26.256 34.8166 26.8078C34.5882 27.3596 34.6044 27.9823 34.861 28.5215L35.7456 30.3843C36.4068 31.7782 36.1198 33.4373 35.0289 34.5281C33.9381 35.619 32.279 35.906 30.8851 35.2448L29.0223 34.3602C28.4831 34.1036 27.8604 34.0874 27.3086 34.3158C26.7568 34.5441 26.3276 34.9955 26.1274 35.5581L25.4364 37.5023C24.9182 38.9555 23.5422 39.9257 21.9994 39.9257C20.4567 39.9257 19.0806 38.9555 18.5625 37.5023L17.8714 35.5596C17.672 34.9965 17.2429 34.5443 16.691 34.3156C16.139 34.087 15.5159 34.1032 14.9766 34.3602L13.1138 35.2448C11.7199 35.906 10.0608 35.619 8.96992 34.5281C7.87903 33.4373 7.5921 31.7782 8.25325 30.3843L9.13782 28.5215C9.39447 27.9823 9.41063 27.3596 9.18231 26.8078C8.95399 26.256 8.50256 25.8268 7.93997 25.6266L5.99575 24.9356C4.54222 24.4182 3.57144 23.0423 3.57144 21.4994C3.57144 19.9566 4.54222 18.5806 5.99575 18.0632L7.93997 17.3722C8.50266 17.1716 8.95409 16.7421 9.18239 16.1901C9.41069 15.6381 9.39449 15.0152 9.13782 14.4758L8.25325 12.613C7.5921 11.2191 7.87903 9.56002 8.96992 8.46913C10.0608 7.37824 11.7199 7.09131 13.1138 7.75246L14.9766 8.63857C15.5161 8.89464 16.1387 8.91033 16.6904 8.68177C17.2421 8.4532 17.6712 8.00173 17.8714 7.43917L18.5625 5.49496C19.0806 4.0418 20.4567 3.07153 21.9994 3.07153C23.5422 3.07153 24.9182 4.0418 25.4364 5.49496L26.1274 7.43764C26.3274 8.00047 26.7564 8.4523 27.3081 8.68118C27.8598 8.91006 28.4826 8.89457 29.0223 8.63857L30.8851 7.75246C32.279 7.09131 33.9381 7.37824 35.0289 8.46913C36.1198 9.56002 36.4068 11.2191 35.7456 12.613L34.861 14.4758C34.6039 15.0152 34.5874 15.6383 34.8158 16.1904C35.0441 16.7426 35.4959 17.172 36.0589 17.3722ZM15.1793 24.3244C16.3724 27.0359 19.0373 28.8025 21.9994 28.8455C22.9676 28.8654 23.9295 28.6856 24.8251 28.3172C28.5874 26.7522 30.3734 22.4376 28.818 18.6714C27.2183 14.9441 22.9382 13.1724 19.1722 14.6785C15.41 16.2436 13.624 20.5581 15.1793 24.3244Z" fill="currentColor"/>
</svg>
