<svg width="29" height="28" viewBox="0 0 29 28" fill="none" xmlns="http://www.w3.org/2000/svg">
<path fill-rule="evenodd" clip-rule="evenodd" d="M19.5583 8V7C19.5583 5.89543 18.6629 5 17.5583 5H11.5583C10.4538 5 9.55835 5.89543 9.55835 7V8H6.55835C6.00607 8 5.55835 8.44772 5.55835 9C5.55835 9.55228 6.00607 10 6.55835 10H7.55835V21C7.55835 22.6569 8.9015 24 10.5583 24H18.5583C20.2152 24 21.5583 22.6569 21.5583 21V10H22.5583C23.1106 10 23.5583 9.55228 23.5583 9C23.5583 8.44772 23.1106 8 22.5583 8H19.5583ZM17.5583 7H11.5583V8H17.5583V7ZM19.5583 10H9.55835V21C9.55835 21.5523 10.0061 22 10.5583 22H18.5583C19.1106 22 19.5583 21.5523 19.5583 21V10Z" fill="white"/>
<path d="M11.5583 12H13.5583V20H11.5583V12Z" fill="white"/>
<path d="M15.5583 12H17.5583V20H15.5583V12Z" fill="white"/>
</svg>
