<svg width="48" height="48" viewBox="0 0 48 48" fill="none" xmlns="http://www.w3.org/2000/svg">
<path d="M23.9588 24.4958C24.1283 24.3018 24.2015 24.042 24.1583 23.788C24.1151 23.5341 23.96 23.3131 23.7359 23.1861C21.8344 22.0963 19.6824 21.5192 17.4908 21.5112C11.8144 21.5371 6.81864 25.2618 5.17364 30.6947C5.09622 30.9541 5.14589 31.2348 5.3076 31.4519C5.46932 31.6689 5.72408 31.7969 5.99479 31.7969H19.9491C20.3636 31.7969 20.7187 31.5003 20.7925 31.0924C21.2293 28.6468 22.3239 26.3663 23.9588 24.4958Z" fill="currentColor"/>
<path d="M17.1376 19.7969C21.6348 19.7969 25.2805 16.1513 25.2805 11.6541C25.2805 7.15691 21.6348 3.51123 17.1376 3.51123C12.6404 3.51123 8.99477 7.15691 8.99477 11.6541C8.99477 16.1513 12.6404 19.7969 17.1376 19.7969Z" fill="currentColor"/>
<path fill-rule="evenodd" clip-rule="evenodd" d="M23.1376 33.5113C23.1376 27.3572 28.1264 22.3684 34.2805 22.3684C40.4314 22.376 45.4158 27.3604 45.4233 33.5113C45.4233 39.6653 40.4345 44.6541 34.2805 44.6541C28.1264 44.6541 23.1376 39.6653 23.1376 33.5113ZM36.8519 35.2256H40.2805C41.2273 35.2256 41.9948 34.458 41.9948 33.5113C41.9948 32.5645 41.2273 31.797 40.2805 31.797H36.8519C36.3785 31.797 35.9948 31.4132 35.9948 30.9398V27.5113C35.9948 26.5645 35.2273 25.797 34.2805 25.797C33.3337 25.797 32.5662 26.5645 32.5662 27.5113V30.9398C32.5662 31.4132 32.1824 31.797 31.709 31.797H28.2805C27.3337 31.797 26.5662 32.5645 26.5662 33.5113C26.5662 34.458 27.3337 35.2256 28.2805 35.2256H31.709C32.1824 35.2256 32.5662 35.6093 32.5662 36.0827V39.5113C32.5662 40.458 33.3337 41.2256 34.2805 41.2256C35.2273 41.2256 35.9948 40.458 35.9948 39.5113V36.0827C35.9948 35.6093 36.3785 35.2256 36.8519 35.2256Z" fill="currentColor"/>
</svg>
