<svg width="48" height="48" viewBox="0 0 48 48" fill="none" xmlns="http://www.w3.org/2000/svg">
<path fill-rule="evenodd" clip-rule="evenodd" d="M5.99999 1.92859C4.61678 1.92859 3.56246 2.78704 2.9253 3.76402C2.27919 4.75471 1.92856 6.03436 1.92856 7.37145V38.9143C1.92856 40.2514 2.27919 41.531 2.9253 42.5217C3.56246 43.4987 4.61678 44.3572 5.99999 44.3572H42C43.3832 44.3572 44.4375 43.4987 45.0747 42.5217C45.7208 41.531 46.0714 40.2514 46.0714 38.9143V7.37145C46.0714 6.03436 45.7208 4.75471 45.0747 3.76402C44.4375 2.78704 43.3832 1.92859 42 1.92859H5.99999ZM4.92856 7.37145C4.92856 6.53095 5.15356 5.83917 5.43813 5.40283C5.73164 4.95278 5.96303 4.92859 5.99999 4.92859H42C42.0369 4.92859 42.2683 4.95278 42.5618 5.40283C42.8464 5.83917 43.0714 6.53095 43.0714 7.37145V38.9143C43.0714 39.7548 42.8464 40.4466 42.5618 40.8829C42.2683 41.333 42.0369 41.3572 42 41.3572H5.99999C5.96303 41.3572 5.73164 41.333 5.43813 40.8829C5.15356 40.4466 4.92856 39.7548 4.92856 38.9143V7.37145ZM29.1428 36H36C36.9468 36 37.7143 35.2325 37.7143 34.2857C37.7143 33.339 36.9468 32.5714 36 32.5714H29.1428C28.1961 32.5714 27.4286 33.339 27.4286 34.2857C27.4286 35.2325 28.1961 36 29.1428 36ZM36 30.8572H29.1428C28.1961 30.8572 27.4286 30.0896 27.4286 29.1429C27.4286 28.1961 28.1961 27.4286 29.1428 27.4286H36C36.9468 27.4286 37.7143 28.1961 37.7143 29.1429C37.7143 30.0896 36.9468 30.8572 36 30.8572ZM29.1428 15.4286H36C36.9468 15.4286 37.7143 14.6611 37.7143 13.7143C37.7143 12.7675 36.9468 12 36 12H29.1428C28.1961 12 27.4286 12.7675 27.4286 13.7143C27.4286 14.6611 28.1961 15.4286 29.1428 15.4286ZM18.8571 15.4286H17.5714C17.3347 15.4286 17.1428 15.6205 17.1428 15.8572V17.1429C17.1428 18.0896 16.3753 18.8572 15.4286 18.8572C14.4818 18.8572 13.7143 18.0896 13.7143 17.1429V15.8572C13.7143 15.6205 13.5224 15.4286 13.2857 15.4286H12C11.0532 15.4286 10.2857 14.6611 10.2857 13.7143C10.2857 12.7675 11.0532 12 12 12H13.2857C13.5224 12 13.7143 11.8081 13.7143 11.5714V10.2857C13.7143 9.33896 14.4818 8.57145 15.4286 8.57145C16.3753 8.57145 17.1428 9.33896 17.1428 10.2857V11.5714C17.1428 11.8081 17.3347 12 17.5714 12H18.8571C19.8039 12 20.5714 12.7675 20.5714 13.7143C20.5714 14.6611 19.8039 15.4286 18.8571 15.4286ZM16.1475 35.2989L17.0567 36.208C17.7261 36.8775 18.8115 36.8775 19.481 36.208C20.1505 35.5386 20.1505 34.4531 19.481 33.7837L18.5719 32.8745C18.4045 32.7072 18.4045 32.4358 18.5719 32.2684L19.481 31.3593C20.1505 30.6898 20.1505 29.6044 19.481 28.9349C18.8115 28.2655 17.7261 28.2655 17.0567 28.9349L16.1475 29.8441C15.9801 30.0114 15.7088 30.0114 15.5414 29.8441L14.6323 28.9349C13.9628 28.2655 12.8774 28.2655 12.2079 28.9349C11.5384 29.6044 11.5384 30.6898 12.2079 31.3593L13.1171 32.2684C13.2844 32.4358 13.2844 32.7072 13.1171 32.8745L12.2079 33.7837C11.5384 34.4531 11.5384 35.5386 12.2079 36.208C12.8774 36.8775 13.9628 36.8775 14.6323 36.208L15.5414 35.2989C15.7088 35.1315 15.9801 35.1315 16.1475 35.2989Z" fill="currentColor"/>
</svg>
