<svg width="48" height="48" viewBox="0 0 48 48" fill="none" xmlns="http://www.w3.org/2000/svg">
<path d="M24.4067 17.4861C24.4067 16.8044 23.8541 16.2518 23.1724 16.2518H13.2981C12.6164 16.2518 12.0638 16.8044 12.0638 17.4861C12.0638 18.1678 12.6164 18.7204 13.2981 18.7204H23.1724C23.8541 18.7204 24.4067 18.1678 24.4067 17.4861Z" fill="currentColor"/>
<path d="M24.4067 23.52C24.4067 22.8383 23.8541 22.2857 23.1724 22.2857H13.2981C12.6164 22.2857 12.0638 22.8383 12.0638 23.52C12.0638 24.2017 12.6164 24.7543 13.2981 24.7543H23.1724C23.8541 24.7543 24.4067 24.2017 24.4067 23.52Z" fill="currentColor"/>
<path d="M24.3429 28.6629C24.3429 27.9812 23.7902 27.4286 23.1086 27.4286H13.2343C12.5526 27.4286 12 27.9812 12 28.6629C12 29.3445 12.5526 29.8971 13.2343 29.8971H23.1086C23.7902 29.8971 24.3429 29.3445 24.3429 28.6629Z" fill="currentColor"/>
<path d="M20.4734 34.7661C20.5872 34.7629 20.6967 34.8098 20.7729 34.8945C21.3127 35.5017 23.5229 37.8337 24.6436 39.0137C24.7557 39.1336 24.7854 39.3088 24.7191 39.459C24.6528 39.6092 24.5033 39.7053 24.3391 39.7032H5.89233C4.52898 39.7032 3.42376 38.598 3.42376 37.2347V9.25752C3.42376 7.89416 4.52898 6.78895 5.89233 6.78895H12.4752C12.6145 6.7867 12.7422 6.71096 12.8109 6.58982C13.9448 4.67348 16.0061 3.49805 18.2327 3.49805C20.4594 3.49805 22.5206 4.67348 23.6545 6.58982C23.7242 6.71247 23.8541 6.78845 23.9952 6.78895H30.578C31.9414 6.78895 33.0466 7.89416 33.0466 9.25752V23.7282C33.0466 24.4622 32.8159 25.1776 32.387 25.7733L29.0152 30.4563C28.7316 30.8502 28.1095 30.6496 28.1095 30.1641V12.5489C28.1095 12.0945 27.7411 11.7261 27.2866 11.7261H9.18376C8.72931 11.7261 8.3609 12.0945 8.3609 12.5489V33.9432C8.3609 34.3977 8.72931 34.7661 9.18376 34.7661H20.4734Z" fill="currentColor"/>
<path d="M42.3653 20.7924C41.8363 20.4129 41.1 20.5343 40.7208 21.0636L29.6934 36.4473L26.0123 32.761C25.7146 32.463 25.2807 32.3465 24.8739 32.4555C24.4671 32.5644 24.1493 32.8822 24.0403 33.2892C23.9312 33.6962 24.0474 34.1304 24.3451 34.4284L29.0082 39.0936C29.2559 39.332 29.594 39.4526 29.9365 39.4246C30.2791 39.3966 30.5931 39.2228 30.7989 38.9473L42.6363 22.4378C43.0156 21.9085 42.8942 21.1719 42.3653 20.7924Z" fill="currentColor" stroke="currentColor" stroke-width="2"/>
</svg>
