<svg width="48" height="48" viewBox="0 0 48 48" fill="none" xmlns="http://www.w3.org/2000/svg">
<path d="M8.58639 25.5342C8.90776 25.534 9.20649 25.3804 9.37746 25.1275L11.2644 22.3348C11.8184 21.4476 12.8565 20.9195 13.9593 20.9637C15.0443 21.008 16.0237 21.5806 16.5363 22.4704L18.2494 25.3222C18.3364 25.4675 18.5051 25.5538 18.6838 25.5446C18.8625 25.5353 19.0199 25.4321 19.089 25.2787L22.0813 18.6245C22.5858 17.4265 23.8818 16.6827 25.2605 16.7998C26.5997 16.9726 27.6804 17.904 27.9666 19.132L30.452 28.7909C30.498 28.9743 30.6669 29.1087 30.869 29.1228C31.0705 29.1383 31.2598 29.0318 31.3384 28.8587L32.006 27.3745C32.4695 26.2822 33.5946 25.5562 34.858 25.5342H41.9533C42.3339 25.535 42.6771 25.3212 42.821 24.9937C43.9228 22.6149 44.5173 20.0599 44.5714 17.4706C44.5714 9.45221 39.567 5.50732 34.6074 5.15454C30.2107 4.96195 26.1488 7.33023 24.4227 11.0927C24.3443 11.2434 24.1801 11.3392 24 11.3392C23.8199 11.3392 23.6557 11.2434 23.5774 11.0927C21.8573 7.32541 17.7913 4.95476 13.3926 5.15454C8.43304 5.50732 3.42857 9.45221 3.42857 17.4706C3.48273 20.0599 4.0772 22.6149 5.17902 24.9937C5.32265 25.3206 5.6649 25.5342 6.04489 25.5342H8.58639Z" fill="currentColor"/>
<path d="M35.9502 29.0099C35.5734 29.0101 35.2336 29.2204 35.0881 29.5434L33.4761 33.1199C33.0153 34.213 31.8909 34.9402 30.6279 34.962C30.5173 34.9614 30.4068 34.9556 30.2968 34.9446C28.9578 34.7721 27.8775 33.8404 27.5926 32.6124L25.1072 22.9535C25.0602 22.7704 24.8917 22.6363 24.6898 22.6213C24.4879 22.6062 24.2986 22.7137 24.2208 22.8875L21.655 28.5824C21.2207 29.608 20.1996 30.3173 19.0181 30.4141C17.8177 30.4909 16.6819 29.9011 16.1231 28.9108L14.2081 25.7219C14.1279 25.5877 13.9775 25.5028 13.8124 25.4985C13.6473 25.4943 13.4921 25.5712 13.404 25.701L12.0949 27.6335C11.545 28.4774 10.5644 28.9968 9.50286 29.0064H8.9811C8.63886 29.0065 8.32404 29.1804 8.16032 29.4597C7.9966 29.7389 8.01015 30.079 8.19564 30.3463C12.0843 35.865 17.1083 40.6152 22.979 44.3237C23.614 44.654 24.3881 44.654 25.0231 44.3237C30.8904 40.615 35.9112 35.8655 39.7971 30.348C39.9826 30.0808 39.9961 29.7407 39.8324 29.4614C39.6687 29.1821 39.3539 29.0083 39.0116 29.0081L35.9502 29.0099Z" fill="currentColor"/>
</svg>
