<svg width="48" height="48" viewBox="0 0 48 48" fill="none" xmlns="http://www.w3.org/2000/svg">
<path d="M13.7093 33.9398C16.0762 33.9398 17.995 32.0211 17.995 29.6541C17.995 27.2872 16.0762 25.3684 13.7093 25.3684C11.3423 25.3684 9.42355 27.2872 9.42355 29.6541C9.42355 32.0211 11.3423 33.9398 13.7093 33.9398Z" fill="currentColor"/>
<path d="M42.8521 28.7969C41.9053 28.7969 41.1378 29.5645 41.1378 30.5112V36.0827C41.1378 36.3194 40.946 36.5112 40.7093 36.5112H7.2807C7.044 36.5112 6.85212 36.3194 6.85212 36.0827V26.2255C6.85212 25.2787 6.08461 24.5112 5.13784 24.5112C4.19107 24.5112 3.42355 25.2787 3.42355 26.2255V42.9398C3.42355 43.8866 4.19107 44.6541 5.13784 44.6541C6.08461 44.6541 6.85212 43.8866 6.85212 42.9398V42.0827C6.85212 41.846 7.044 41.6541 7.2807 41.6541H40.7093C40.946 41.6541 41.1378 41.846 41.1378 42.0827V42.9398C41.1378 43.8866 41.9053 44.6541 42.8521 44.6541C43.7989 44.6541 44.5664 43.8866 44.5664 42.9398V30.5112C44.5664 29.5645 43.7989 28.7969 42.8521 28.7969Z" fill="currentColor"/>
<path d="M20.5664 28.797V33.0828C20.5664 33.5561 20.9502 33.9399 21.4235 33.9399H37.7093C38.1826 33.9399 38.5664 33.5561 38.5664 33.0828V31.3685C38.5664 30.2318 38.1149 29.1417 37.3111 28.338C36.5074 27.5343 35.4173 27.0828 34.2807 27.0828H22.2807C21.3339 27.0828 20.5664 27.8503 20.5664 28.797Z" fill="currentColor"/>
<path d="M16.7093 15.0827H20.995C21.2317 15.0827 21.4236 15.2745 21.4236 15.5112V19.7969C21.4236 20.2703 21.8073 20.6541 22.2807 20.6541H26.5664C27.0398 20.6541 27.4236 20.2703 27.4236 19.7969V15.5112C27.4236 15.2745 27.6154 15.0827 27.8521 15.0827H32.1378C32.6112 15.0827 32.995 14.6989 32.995 14.2255V9.9398C32.995 9.46641 32.6112 9.08266 32.1378 9.08266H27.8521C27.6154 9.08266 27.4236 8.89078 27.4236 8.65409V4.36837C27.4236 3.89499 27.0398 3.51123 26.5664 3.51123H22.2807C21.8073 3.51123 21.4236 3.89499 21.4236 4.36837V8.65409C21.4236 8.89078 21.2317 9.08266 20.995 9.08266H16.7093C16.2359 9.08266 15.8521 9.46641 15.8521 9.9398V14.2255C15.8521 14.6989 16.2359 15.0827 16.7093 15.0827Z" fill="currentColor"/>
</svg>
