<svg width="48" height="48" viewBox="0 0 48 48" fill="none" xmlns="http://www.w3.org/2000/svg">
<path d="M22.5001 23.7979C22.3647 23.8705 22.2808 24.0077 22.2807 24.1566V25.9373C22.2805 26.0718 22.3489 26.1978 22.4636 26.2749C22.5784 26.3519 22.7252 26.3703 22.8567 26.324C23.2211 26.1948 23.6065 26.1285 23.995 26.1282H24.8041C24.9787 26.1279 25.1357 26.0259 25.2009 25.8703C25.2661 25.7148 25.2264 25.5369 25.1007 25.4205C24.4406 24.8095 23.7142 24.2683 22.9338 23.8061C22.8013 23.7288 22.6358 23.7257 22.5001 23.7979Z" fill="#F5F5F5"/>
<path fill-rule="evenodd" clip-rule="evenodd" d="M25.5006 12.3026C26.5111 16.4808 24.3977 20.7778 20.395 22.6837C20.5 22.7171 20.5698 22.8128 20.5664 22.9191V34.7682C20.5664 34.9954 20.3745 35.1796 20.1378 35.1796H4.28069C3.80731 35.1796 3.42355 34.8112 3.42355 34.3568C3.42738 30.0395 5.78066 26.0379 9.62926 23.8044C9.76125 23.7261 9.92717 23.7226 10.0626 23.7955C10.1979 23.8683 10.2815 24.006 10.2807 24.155V27.6521C10.2799 27.8109 10.1847 27.9554 10.0355 28.0241C8.94914 28.5189 8.36505 29.6705 8.62923 30.7967C8.89342 31.9229 9.93534 32.7229 11.1378 32.7229C12.3403 32.7229 13.3822 31.9229 13.6464 30.7967C13.9106 29.6705 13.3265 28.5189 12.2401 28.0241C12.091 27.9554 11.9958 27.8109 11.995 27.6521V23.0162C11.9946 22.8607 11.9031 22.7188 11.7584 22.6492C7.77235 20.7113 5.69637 16.3975 6.7431 12.2275C7.78983 8.05756 11.6848 5.12502 16.1528 5.1429C20.6208 5.16078 24.4901 8.12438 25.5006 12.3026ZM9.90526 14.4074C9.90904 17.696 12.6836 20.3619 16.1093 20.3682C19.5342 20.3655 22.3116 17.7036 22.3201 14.4156C22.3203 14.3011 22.2652 14.193 22.171 14.1227C22.0778 14.0504 21.9547 14.0242 21.8384 14.0519C20.8288 14.292 19.7928 14.4146 18.7527 14.4173C15.9786 14.4165 13.2767 13.5681 11.0384 11.9948C10.9333 11.9213 10.7993 11.8972 10.6736 11.9291C10.5479 11.9611 10.4439 12.0456 10.3904 12.1594C10.0739 12.8701 9.90895 13.6345 9.90526 14.4074Z" fill="#F5F5F5"/>
<path fill-rule="evenodd" clip-rule="evenodd" d="M41.995 28.1969H38.995C38.5216 28.1969 38.1378 27.8285 38.1378 27.374V26.5511C38.1359 24.9613 36.7939 23.673 35.1378 23.6711H31.7093C30.0532 23.673 28.7112 24.9613 28.7093 26.5511V27.374C28.7093 27.8285 28.3255 28.1969 27.8521 28.1969H24.8521C23.432 28.1969 22.2807 29.3021 22.2807 30.6654V42.1854C22.2807 43.5488 23.432 44.654 24.8521 44.654H41.995C43.4151 44.654 44.5664 43.5488 44.5664 42.1854V30.6654C44.5664 29.3021 43.4151 28.1969 41.995 28.1969ZM31.2807 26.5511C31.2807 26.3239 31.4726 26.1397 31.7093 26.1397H35.1378C35.3745 26.1397 35.5664 26.3239 35.5664 26.5511V27.374C35.5664 27.8285 35.1827 28.1969 34.7093 28.1969H32.1378C31.6644 28.1969 31.2807 27.8285 31.2807 27.374V26.5511ZM37.2807 38.0711C37.5174 38.0711 37.7093 37.8869 37.7093 37.6597V35.1911C37.7093 34.9639 37.5174 34.7797 37.2807 34.7797H35.995C35.5216 34.7797 35.1378 34.4113 35.1378 33.9569V32.7226C35.1378 32.4953 34.946 32.3111 34.7093 32.3111H32.1378C31.9011 32.3111 31.7093 32.4953 31.7093 32.7226V33.9569C31.7093 34.4113 31.3255 34.7797 30.8521 34.7797H29.5664C29.3297 34.7797 29.1378 34.9639 29.1378 35.1911V37.6597C29.1378 37.8869 29.3297 38.0711 29.5664 38.0711H30.8521C31.3255 38.0711 31.7093 38.4395 31.7093 38.894V40.1283C31.7093 40.3555 31.9011 40.5397 32.1378 40.5397H34.7093C34.946 40.5397 35.1378 40.3555 35.1378 40.1283V38.894C35.1378 38.4395 35.5216 38.0711 35.995 38.0711H37.2807Z" fill="#F5F5F5"/>
</svg>
