<svg viewBox="0 0 43 43" fill="none" xmlns="http://www.w3.org/2000/svg">
<path d="M19.1729 32.3158C19.2921 32.3125 19.4066 32.3616 19.4864 32.4502C19.4598 32.847 19.2272 33.8201 18.5096 34.5377C17.792 35.2553 17.322 36.7387 17.1767 37.3907L5.65051 37.5162C4.22375 37.5162 3.06714 36.3595 3.06714 34.9328V5.65477C3.06714 4.22802 4.22375 3.07141 5.65051 3.07141H12.5395H24.5952H31.4842C32.911 3.07141 34.0676 4.22802 34.0676 5.65477V17.0355L28.9009 21.681C28.9009 21.681 28.9044 18.4952 28.9009 18.2925V9.09924C28.9009 8.62366 28.5153 8.23812 28.0397 8.23812H9.09501C8.61942 8.23812 8.23388 8.62366 8.23388 9.09924V31.4883C8.23388 31.9639 8.61942 32.3494 9.09501 32.3494L19.1729 32.3158Z" fill="currentColor"/>
<path d="M11.0997 13.3377C11.0997 12.9047 11.4508 12.5536 11.8839 12.5536H24.7661C25.1992 12.5536 25.5502 12.9047 25.5502 13.3377V14.9807C25.5502 15.4137 25.1992 15.7648 24.7661 15.7648H11.8839C11.4508 15.7648 11.0997 15.4137 11.0997 14.9807V13.3377Z" fill="currentColor"/>
<path d="M11.0997 18.9574C11.0997 18.5243 11.4508 18.1732 11.8839 18.1732H24.7661C25.1992 18.1732 25.5502 18.5243 25.5502 18.9574V20.6003C25.5502 21.0334 25.1992 21.3844 24.7661 21.3844H11.8839C11.4508 21.3844 11.0997 21.0334 11.0997 20.6003V18.9574Z" fill="currentColor"/>
<path d="M11.0997 24.577C11.0997 24.1439 11.4508 23.7928 11.8839 23.7928H24.7661C25.1992 23.7928 25.5502 24.1439 25.5502 24.577V26.2199C25.5502 26.653 25.1992 27.0041 24.7661 27.0041H11.8839C11.4508 27.0041 11.0997 26.653 11.0997 26.2199V24.577Z" fill="currentColor"/>
<path d="M33.8998 20.6109L22.7052 31.8055C22.3691 32.1417 22.3691 32.6868 22.7052 33.0231L27.872 38.1898C28.2082 38.526 28.7533 38.526 29.0896 38.1898L40.2841 26.9953C42.0471 25.2323 42.0471 22.3739 40.2841 20.6109C38.5211 18.848 35.6628 18.848 33.8998 20.6109Z" fill="currentColor"/>
<path d="M21.6116 35.5841C21.3871 35.3603 21.0578 35.278 20.7544 35.3698C20.4511 35.4616 20.2226 35.7126 20.1598 36.0232L19.2349 40.6474C19.1785 40.9292 19.2664 41.2205 19.4691 41.4242C19.6728 41.6281 19.965 41.7167 20.2476 41.6601L24.8701 40.7353C25.1817 40.6733 25.4339 40.4447 25.5262 40.1406C25.6184 39.8365 25.5357 39.5064 25.311 39.2817L21.6116 35.5841Z" fill="currentColor"/>
</svg>
