<svg width="48" height="48" viewBox="0 0 48 48" fill="none" xmlns="http://www.w3.org/2000/svg">
<path d="M36.6069 28.202C34.7891 28.2579 33.0952 27.2842 32.2286 25.6854C32.038 25.4045 31.6995 25.2624 31.3655 25.3233C31.0315 25.3842 30.7649 25.6364 30.6857 25.9666L28.2857 35.9986C28.0073 37.174 26.9483 37.9973 25.7405 37.9771C24.5327 37.9569 23.5018 37.0987 23.2629 35.9146L19.7503 18.8043C19.6656 18.4055 19.3117 18.1215 18.904 18.1253C18.4963 18.129 18.1477 18.4194 18.0703 18.8197C17.7558 20.5953 17.3269 22.3486 16.7863 24.0689C16.4276 25.8633 15.1733 27.3481 13.464 28.0014C12.9156 28.1435 12.3505 28.2109 11.784 28.202H4.28571C3.81233 28.202 3.42857 28.5858 3.42857 29.0591V40.1489C3.42857 41.2855 3.8801 42.3756 4.68383 43.1793C5.48755 43.983 6.57764 44.4346 7.71428 44.4346H40.2857C41.4224 44.4346 42.5124 43.983 43.3162 43.1793C44.1199 42.3756 44.5714 41.2855 44.5714 40.1489V29.0574C44.5714 28.584 44.1877 28.2003 43.7143 28.2003L36.6069 28.202Z" fill="currentColor"/>
<path d="M11.784 24.7732C13.1931 24.7732 13.4983 24.2589 14.9829 16.4572C15.348 14.5458 15.7783 12.2864 16.3337 9.62579C16.582 8.43325 17.633 7.57857 18.8511 7.57857C20.0693 7.57857 21.1202 8.43325 21.3686 9.62579L25.0714 27.6824C25.1522 28.0758 25.4954 28.3604 25.897 28.367C26.2986 28.3736 26.6509 28.1004 26.7446 27.7098L28.5617 20.1344C28.8224 19.0436 29.7599 18.2476 30.8784 18.1672C31.997 18.0869 33.0386 18.7407 33.4526 19.7829C33.6566 20.2972 33.8434 20.8012 34.0234 21.2915C35.052 24.0721 35.4566 24.7715 36.6069 24.7715H43.7143C44.1877 24.7715 44.5714 24.3877 44.5714 23.9144V7.57722C44.5714 6.44058 44.1199 5.35049 43.3162 4.54676C42.5124 3.74303 41.4224 3.2915 40.2857 3.2915H7.71428C5.34735 3.2915 3.42857 5.21028 3.42857 7.57722V23.9144C3.42857 24.3877 3.81233 24.7715 4.28571 24.7715L11.784 24.7732Z" fill="currentColor"/>
</svg>
