<svg width="48" height="48" viewBox="0 0 48 48" fill="none" xmlns="http://www.w3.org/2000/svg">
<path d="M35.9263 29.5153C35.6674 29.5376 35.412 29.5496 35.1429 29.5496C34.8737 29.5496 34.6183 29.5376 34.3594 29.5153C34.1196 29.4946 33.8822 29.5757 33.7051 29.7387C33.528 29.9018 33.4277 30.1318 33.4286 30.3725V32.121C33.4286 37.0916 29.3991 41.121 24.4286 41.121C19.458 41.121 15.4286 37.0916 15.4286 32.121V27.2525C20.3714 26.4127 23.9907 22.1347 24 17.121V11.9782C23.992 8.93432 21.9755 6.26124 19.0509 5.4176C18.9361 5.3847 18.8571 5.27979 18.8571 5.16045V5.12102C18.8571 4.17425 18.0896 3.40674 17.1429 3.40674C16.1961 3.40674 15.4286 4.17425 15.4286 5.12102V9.40674C15.4286 10.3535 16.1961 11.121 17.1429 11.121C18.0896 11.121 18.8571 10.3535 18.8571 9.40674C18.8568 9.32904 18.9007 9.25792 18.9703 9.22331C19.0396 9.18877 19.1224 9.19606 19.1846 9.24217C20.0548 9.88246 20.5694 10.8978 20.5714 11.9782V17.121C20.5714 20.9081 17.5014 23.9782 13.7143 23.9782C9.92719 23.9782 6.85715 20.9081 6.85715 17.121V11.9782C6.85695 10.8954 7.37184 9.87703 8.244 9.23531C8.30619 9.1892 8.389 9.18192 8.45829 9.21645C8.53013 9.25212 8.57441 9.32658 8.57143 9.40674C8.57143 10.3535 9.33894 11.121 10.2857 11.121C11.2325 11.121 12 10.3535 12 9.40674V5.12102C12 4.17425 11.2325 3.40674 10.2857 3.40674C9.33894 3.40674 8.57143 4.17425 8.57143 5.12102V5.16045C8.57205 5.27998 8.49278 5.38521 8.37772 5.4176C5.45311 6.26124 3.4366 8.93432 3.42857 11.9782V17.121C3.43788 22.1347 7.0572 26.4127 12 27.2525V32.121C12 38.9851 17.5645 44.5496 24.4286 44.5496C31.2927 44.5496 36.8571 38.9851 36.8571 32.121V30.3707C36.858 30.13 36.7577 29.9001 36.5806 29.737C36.4036 29.574 36.1661 29.4929 35.9263 29.5136V29.5153Z" fill="#F5F5F5"/>
<path fill-rule="evenodd" clip-rule="evenodd" d="M26.5714 19.2641C26.5714 14.5302 30.409 10.6926 35.1429 10.6926C39.8744 10.6983 43.7086 14.5325 43.7143 19.2641C43.7143 23.9979 39.8767 27.8355 35.1429 27.8355C30.409 27.8355 26.5714 23.9979 26.5714 19.2641ZM30 19.2641C30 22.1044 32.3025 24.4069 35.1429 24.4069C36.5068 24.4069 37.8149 23.8651 38.7794 22.9006C39.7439 21.9361 40.2857 20.628 40.2857 19.2641C40.2857 16.4237 37.9832 14.1212 35.1429 14.1212C32.3025 14.1212 30 16.4237 30 19.2641Z" fill="#F5F5F5"/>
<path d="M35.1429 21.8355C36.563 21.8355 37.7143 20.6842 37.7143 19.2641C37.7143 17.8439 36.563 16.6926 35.1429 16.6926C33.7227 16.6926 32.5714 17.8439 32.5714 19.2641C32.5714 20.6842 33.7227 21.8355 35.1429 21.8355Z" fill="#F5F5F5"/>
</svg>
