<svg width="48" height="48" viewBox="0 0 48 48" fill="none" xmlns="http://www.w3.org/2000/svg">
<path fill-rule="evenodd" clip-rule="evenodd" d="M27.4809 20.8417C31.0153 17.1621 36.7436 17.1621 40.278 20.8417C41.9755 22.6104 42.9288 25.0092 42.9281 27.5102C42.9275 30.0111 41.973 32.4094 40.2747 34.1772L36.2098 38.4303L32.1284 42.6663C28.5746 46.2372 22.9292 46.1823 19.44 42.543C15.9507 38.9037 15.9053 33.023 19.3379 29.3257L23.4193 25.0914L27.4809 20.8417ZM24.1516 41.9853C26.2018 42.5253 28.3713 41.8516 29.803 40.2303L32.1367 37.8114C32.4579 37.4767 32.4579 36.9342 32.1367 36.5994L25.1605 29.3326C24.8393 28.9991 24.3197 28.9991 23.9986 29.3326L21.6617 31.7549C20.1061 33.2472 19.4606 35.5075 19.9804 37.6429C20.5001 39.7782 22.1013 41.4452 24.1516 41.9853Z" fill="#F5F5F5"/>
<path d="M21.1168 15.4092C20.4351 15.4092 19.8825 15.9848 19.8825 16.6949V20.8418C19.8828 20.9956 19.8036 21.1377 19.6752 21.2138L14.738 24.1503C14.33 24.3642 14.0687 24.7953 14.0588 25.271C14.0489 25.7467 14.292 26.1892 14.6908 26.4212C15.0895 26.6533 15.5787 26.637 15.9624 26.3789L21.7224 22.9503C22.1077 22.7223 22.3454 22.2959 22.3445 21.8343V16.6915C22.3427 15.9854 21.7946 15.4129 21.1168 15.4092Z" fill="#F5F5F5"/>
<path d="M15.9049 38.6016C16.2938 37.7272 15.9302 36.6899 15.0919 36.2822C14.0793 35.7868 13.1268 35.1676 12.2547 34.4376C12.1638 34.3615 12.1081 34.2487 12.1017 34.1273C12.094 34.0055 12.1372 33.8861 12.2201 33.7999L14.1226 31.8182C14.6103 31.302 14.607 30.4727 14.1151 29.9608C13.6233 29.4489 12.8271 29.4462 12.3321 29.9547L10.4395 31.9245C10.3561 32.0114 10.2409 32.0568 10.1232 32.0493C10.0055 32.0417 9.89651 31.9819 9.82399 31.885C8.22772 29.735 7.22255 27.1734 6.91601 24.4742C6.9024 24.3523 6.93938 24.2302 7.01764 24.1385C7.09591 24.0468 7.20802 23.9943 7.32579 23.9942H9.97704C10.676 23.9942 11.2426 23.404 11.2426 22.6759C11.2426 21.9478 10.676 21.3576 9.97704 21.3576H7.30275C7.18494 21.357 7.07298 21.3041 6.99502 21.212C6.91706 21.12 6.88053 20.9977 6.89462 20.8759C7.21425 18.175 8.23883 15.6171 9.8569 13.4805C9.92979 13.3843 10.039 13.3256 10.1564 13.3193C10.2738 13.3115 10.3889 13.3564 10.4724 13.4427L12.3584 15.409C12.8539 15.9171 13.6501 15.9136 14.1415 15.4013C14.6329 14.8889 14.6355 14.0596 14.1473 13.5439L12.2629 11.581C12.1805 11.4937 12.1375 11.374 12.1448 11.2517C12.152 11.1294 12.2087 11.0161 12.3008 10.9399C14.3568 9.26127 16.8151 8.20174 19.4086 7.87646C19.5254 7.86175 19.6427 7.89985 19.7308 7.98111C19.8189 8.06238 19.8693 8.17904 19.8694 8.3016V11.0907C19.894 11.8008 20.4537 12.3632 21.1358 12.3632C21.8179 12.3632 22.3776 11.8008 22.4022 11.0907V8.33246C22.4023 8.2099 22.4527 8.09324 22.5408 8.01197C22.6289 7.9307 22.7462 7.89261 22.863 7.90732C25.4538 8.23083 27.911 9.28337 29.9708 10.9519C30.0668 11.0251 30.127 11.1386 30.1354 11.2622C30.1432 11.385 30.1 11.5055 30.0169 11.593L28.1112 13.5713C27.7748 13.9005 27.6371 14.3944 27.7519 14.8601C27.8667 15.3257 28.2158 15.6894 28.6629 15.809C29.1099 15.9286 29.584 15.7852 29.9001 15.4347L31.7992 13.4582C31.8822 13.3719 31.9965 13.3264 32.1135 13.333C32.232 13.3425 32.3407 13.405 32.4114 13.5045C33.1031 14.4032 33.6898 15.3844 34.1592 16.4273C34.4027 17.0085 34.9295 17.4066 35.5355 17.4673C36.1416 17.5281 36.7316 17.2419 37.077 16.7197C37.4225 16.1975 37.4691 15.5213 37.1988 14.953C33.8957 7.55796 26.323 3.29979 18.5754 4.48112C10.8279 5.66244 4.74452 12.0029 3.61479 20.0739C2.48505 28.1448 6.57713 36.0307 13.6783 39.4673C14.5226 39.8679 15.519 39.4805 15.9049 38.6016Z" fill="#F5F5F5"/>
</svg>
