<svg width="48" height="48" viewBox="0 0 48 48" fill="none" xmlns="http://www.w3.org/2000/svg">
<path d="M33.4419 27.3961L31.9916 25.9458C31.6569 25.6112 31.1143 25.6112 30.7796 25.9458L25.9385 30.7869C25.6038 31.1216 25.6038 31.6642 25.9385 31.9989L27.3939 33.4544C27.5942 33.6619 27.6767 33.9564 27.6133 34.2378C27.082 36.7587 27.7141 39.3848 29.3344 41.3878C30.9546 43.3908 33.3908 44.5576 35.967 44.5646C36.894 44.5643 37.8149 44.415 38.6945 44.1224C38.9776 44.0303 39.1927 43.7979 39.2626 43.5085C39.3325 43.219 39.2472 42.9141 39.0373 42.7029L34.839 38.5046C34.6784 38.3436 34.5883 38.1253 34.5887 37.8978V35.4789C34.5887 35.0055 34.9725 34.6218 35.4459 34.6218H37.8682C38.0959 34.6218 38.3143 34.7125 38.475 34.8738L42.6802 39.0789C42.8897 39.2884 43.1925 39.3748 43.481 39.3075C43.7695 39.2401 44.0027 39.0286 44.0979 38.7481C45.0959 35.833 44.4498 32.6066 42.4063 30.3006C40.3629 27.9946 37.2375 26.9651 34.2236 27.6052C33.9445 27.6706 33.6511 27.5921 33.4419 27.3961Z" fill="#F5F5F5"/>
<path d="M22.0505 16.0046L20.5933 14.5475C20.3918 14.3399 20.3087 14.0446 20.3722 13.7624C21.0114 10.7497 19.9824 7.6259 17.6779 5.58283C15.3734 3.53976 12.1489 2.89252 9.23449 3.88806C8.95408 3.98416 8.74323 4.21831 8.67694 4.50721C8.61064 4.79611 8.69832 5.09876 8.90877 5.30749L13.1191 9.52121C13.2793 9.68185 13.3693 9.89946 13.3693 10.1264V12.5504C13.3693 13.0237 12.9856 13.4075 12.5122 13.4075H10.0882C9.86106 13.407 9.64342 13.3164 9.48306 13.1555L5.28477 8.95892C5.07361 8.74901 4.76865 8.66372 4.47923 8.73363C4.18981 8.80354 3.95741 9.01863 3.86534 9.30178C2.89877 12.2109 3.56173 15.4148 5.60342 17.7014C7.64511 19.9881 10.7538 21.0083 13.7533 20.3761C14.0351 20.3132 14.3295 20.3963 14.5368 20.5972L15.9973 22.0578C16.3321 22.3924 16.8746 22.3924 17.2093 22.0578L22.0505 17.2166C22.3851 16.8819 22.3851 16.3394 22.0505 16.0046Z" fill="#F5F5F5"/>
<path d="M31.9609 19.9168L28.0797 16.0356C27.745 15.701 27.2024 15.701 26.8677 16.0356L5.2883 37.6151C3.94985 38.9539 3.94985 41.1242 5.2883 42.4631L5.53344 42.7082C6.17646 43.3515 7.04874 43.7129 7.9583 43.7129C8.86785 43.7129 9.74013 43.3515 10.3832 42.7082L31.9609 21.1288C32.2955 20.7941 32.2955 20.2515 31.9609 19.9168Z" fill="#F5F5F5"/>
<path d="M36.0167 19.8877C36.9305 20.7978 38.4081 20.7978 39.3219 19.8877L43.8819 15.3277C44.7939 14.4147 44.7939 12.9355 43.8819 12.0226L37.0899 5.23056C36.8073 4.94818 36.3672 4.89841 36.0287 5.11056C33.3791 6.55634 30.0852 6.01042 28.0436 3.78713C27.7037 3.46516 27.1715 3.46516 26.8316 3.78713L25.023 5.59227C24.111 6.50523 24.111 7.98445 25.023 8.89741L36.0167 19.8877Z" fill="#F5F5F5"/>
</svg>
