<svg width="767" height="571" viewBox="0 0 767 571" fill="none" xmlns="http://www.w3.org/2000/svg">
<g clip-path="url(#clip0_1439_5874)">
<path d="M278.545 120.563L269.451 162.621C186.706 128.063 137.979 192.171 123.968 228.547L239.901 231.96L218.299 270.605H113.728C115.996 326.292 131.917 337.677 146.692 351.307C158.503 362.219 182.686 367.968 193.285 369.495C197.821 380.408 200.493 408.903 201.234 421.792C123.945 427.473 76.2067 364.959 67.1126 312.685C58.0184 260.41 72.7936 181.976 143.256 133.093C199.64 93.9993 256.921 108.46 278.523 120.585L278.545 120.563Z" fill="url(#paint0_linear_1439_5874)"/>
<path d="M347.144 80.3244L300.551 82.5923C297.137 197.403 250.544 253.09 241.45 270.133C232.356 287.176 183.472 366.778 230.088 432.682C267.363 485.405 326.71 494.814 351.702 492.928V442.921C283.507 431.559 267.587 379.262 267.587 358.806C267.587 338.35 280.094 315.626 321.007 231.511C353.745 164.215 352.084 102.689 347.144 80.3468V80.3244Z" fill="#003E7A"/>
<path d="M460.809 124.65C455.353 111.918 440.353 89.8002 433.527 80.3244C347.144 124.65 333.828 200.816 368.745 255.358C403.64 309.923 491.505 325.821 477.852 382.653C466.939 428.124 405.863 441.754 376.694 442.899V492.905C531.272 496.318 531.272 379.24 531.272 347.422C531.272 315.604 499.454 286.053 466.49 267.865C433.527 249.677 407.39 229.221 407.39 192.844C407.39 163.743 443.003 135.248 460.809 124.65Z" fill="#003E7A"/>
<path fill-rule="evenodd" clip-rule="evenodd" d="M536.436 124.65C510.681 122.382 452.097 130.331 423.916 180.337C418.235 190.936 417.09 219.655 458.025 249.677C472.036 258.008 503.495 277.408 517.125 288.321C534.168 301.951 542.14 315.604 543.262 351.98C543.352 355.011 543.42 357.998 543.509 360.939C544.273 393.162 544.879 418.76 575.103 428.146C608.066 438.385 646.711 416.784 676.261 374.727C705.811 332.669 746.723 153.077 536.459 124.672L536.436 124.65ZM515.8 224.011C505.157 215.321 495.165 207.148 487.552 200.816C483.915 197.784 483.017 194.259 483.017 192.867C484.835 178.316 511.803 173.174 525.074 172.411C611.457 175.824 647.833 241.75 647.833 282.663C647.833 323.575 619.428 366.778 608.044 366.778C596.659 366.778 595.537 362.242 594.414 340.641C594.391 340.169 594.369 339.72 594.347 339.248C593.224 317.939 591.899 292.61 580.784 279.272C575.125 272.491 543.33 246.511 515.823 224.034L515.8 224.011Z" fill="url(#paint1_linear_1439_5874)"/>
<path d="M383.7 568.532C594.151 568.532 764.755 441.982 764.755 285.874C764.755 129.766 594.151 3.21527 383.7 3.21527C173.249 3.21527 2.64545 129.766 2.64545 285.874C2.64545 441.982 173.249 568.532 383.7 568.532Z" stroke="#003E7A" stroke-width="4.49092" stroke-miterlimit="10"/>
<path d="M25.7063 294.9L26.4473 304.668L32.6896 304.197L32.016 295.17L36.0354 294.878L36.709 303.905L43.2433 303.411L42.5023 293.643L46.5217 293.329L47.6444 308.081L22.8096 309.968L21.6869 295.215L25.7063 294.9Z" fill="#003E7A"/>
<path d="M22.6525 265.71C23.7303 266.293 24.8081 266.9 25.886 267.528C26.9638 268.157 28.0191 268.808 29.0521 269.482C30.085 270.156 31.0954 270.852 32.0834 271.57C33.0714 272.289 34.0145 273.03 34.9127 273.748C36.9561 272.446 39.0443 271.188 41.1326 270.021C43.2209 268.853 45.3541 267.753 47.5322 266.742L47.2178 272.401C45.5786 273.187 43.917 274.063 42.2554 274.983C40.5937 275.904 38.9545 276.914 37.3378 277.97C38.0788 278.554 38.8647 279.115 39.6506 279.676C40.4365 280.238 41.2224 280.754 42.0084 281.248C42.7943 281.742 43.5577 282.214 44.3436 282.64C45.1071 283.067 45.8705 283.471 46.5666 283.83L46.2747 288.995C44.0742 287.872 41.8961 286.592 39.7404 285.2C37.5848 283.808 35.4741 282.281 33.4082 280.597C31.4547 281.809 29.5011 282.977 27.5251 284.077C25.5491 285.178 23.5282 286.233 21.4399 287.221L21.7543 281.562C23.3261 280.799 24.8755 279.991 26.4024 279.137C27.9518 278.284 29.4787 277.363 30.9831 276.375C29.591 275.298 28.1763 274.31 26.7617 273.389C25.347 272.468 23.865 271.615 22.3606 270.852L22.6525 265.687V265.71Z" fill="#003E7A"/>
<path d="M31.2301 241.009L29.8829 247.97L50.2941 251.9L49.351 256.817L28.9398 252.888L27.5925 259.871L23.5507 259.085L27.1883 240.224L31.2301 241.009Z" fill="#003E7A"/>
<path d="M29.5236 231.623C29.7706 230.703 30.0176 229.805 30.2646 228.951C30.5116 228.076 30.7586 227.267 31.0056 226.526C31.6118 224.662 32.3528 223.068 33.1612 221.721C33.9696 220.374 34.8902 219.296 35.8782 218.51C36.8662 217.724 37.9216 217.208 39.0219 216.983C40.1221 216.758 41.2673 216.848 42.4574 217.23C43.2209 217.477 43.8945 217.836 44.4783 218.263C45.0621 218.69 45.5786 219.206 46.0052 219.812C46.4319 220.396 46.7687 221.07 47.0157 221.833C47.2627 222.574 47.4423 223.383 47.5321 224.258C49.2612 223.832 51.08 223.45 52.9886 223.091C54.8973 222.731 56.8508 222.417 58.8942 222.148L57.1652 227.335C55.5933 227.559 53.9542 227.851 52.2476 228.188C50.5411 228.525 48.857 228.906 47.1953 229.333C47.128 229.76 47.0157 230.164 46.9034 230.613C46.7687 231.04 46.634 231.511 46.4768 232.005L54.7176 234.745L53.1458 239.483L29.5236 231.646V231.623ZM42.7269 230.748C42.7942 230.546 42.8616 230.343 42.929 230.141C42.9963 229.939 43.0637 229.76 43.131 229.535C43.4454 228.57 43.6475 227.694 43.6924 226.885C43.7598 226.077 43.6924 225.359 43.5128 224.752C43.3331 224.124 43.0412 223.607 42.637 223.18C42.2329 222.754 41.7164 222.439 41.0877 222.237C40.4814 222.035 39.8976 221.99 39.3362 222.103C38.7524 222.215 38.2135 222.462 37.7195 222.866C37.2255 223.27 36.7539 223.809 36.3273 224.505C35.9007 225.201 35.5189 226.01 35.2046 226.975C35.1372 227.177 35.0698 227.357 35.0249 227.537C34.9576 227.716 34.8902 227.918 34.8453 228.098L42.7718 230.725L42.7269 230.748Z" fill="#003E7A"/>
<path d="M43.9844 195.112C48.408 195.382 52.7866 195.831 57.1428 196.46C61.499 197.088 65.698 197.942 69.7623 198.974L67.5393 203.578C66.7309 203.353 65.9226 203.151 65.0917 202.949C64.2609 202.747 63.4076 202.545 62.5544 202.365L58.5125 210.763C59.1862 211.324 59.8598 211.863 60.5335 212.402C61.2071 212.919 61.8807 213.435 62.5544 213.929L60.3763 218.42C57.053 215.905 53.7746 213.121 50.5636 210.112C47.3526 207.103 44.2763 203.937 41.2899 200.681L43.9844 195.09V195.112ZM58.535 201.579C56.6039 201.242 54.6953 200.95 52.7642 200.681C50.8555 200.434 48.9244 200.232 47.0158 200.097C48.3406 201.467 49.6879 202.837 51.0801 204.206C52.4722 205.576 53.8869 206.878 55.3689 208.158L58.5574 201.579H58.535Z" fill="#003E7A"/>
<path d="M65.1366 170.255C64.1711 170.592 63.2953 171.063 62.5094 171.67C61.7235 172.276 61.0723 172.995 60.5559 173.825C60.0394 174.634 59.7026 175.509 59.523 176.453C59.3433 177.396 59.4107 178.316 59.6577 179.259C59.9047 180.202 60.3987 181.123 61.0948 182.021C61.7909 182.919 62.7564 183.75 63.9465 184.514C65.0692 185.232 66.1695 185.726 67.2698 186.018C68.3701 186.31 69.3805 186.377 70.3685 186.265C71.3565 186.13 72.2547 185.794 73.0855 185.232C73.9163 184.671 74.6349 183.907 75.2636 182.942C75.6004 182.403 75.8924 181.864 76.0944 181.325C76.319 180.786 76.4762 180.247 76.566 179.686C76.6558 179.125 76.7232 178.563 76.7007 178.002C76.7007 177.441 76.6334 176.834 76.5211 176.228L80.4955 177.373C80.6303 178.81 80.518 180.225 80.2036 181.617C79.8893 183.009 79.283 184.401 78.4073 185.794C77.4642 187.298 76.3414 188.488 75.0615 189.409C73.7816 190.329 72.4119 190.913 70.9299 191.205C69.4479 191.497 67.8985 191.452 66.2818 191.093C64.6651 190.734 63.0259 190.038 61.3867 188.982C60.1966 188.241 59.1861 187.41 58.3329 186.535C57.4796 185.659 56.7835 184.738 56.267 183.773C55.7506 182.807 55.3689 181.819 55.1443 180.809C54.9198 179.798 54.8299 178.788 54.8973 177.777C54.9647 176.767 55.1668 175.756 55.5036 174.768C55.8404 173.78 56.3119 172.815 56.8958 171.894C57.6368 170.727 58.49 169.739 59.4331 168.93C60.3762 168.122 61.4091 167.538 62.5319 167.156L65.1591 170.255H65.1366Z" fill="#003E7A"/>
<path d="M73.31 149.529C73.9837 148.699 74.7696 147.958 75.6004 147.306C76.4537 146.655 77.3519 146.116 78.2949 145.712C79.2605 145.308 80.2485 145.016 81.2814 144.881C82.3143 144.747 83.3921 144.747 84.47 144.881C85.5478 145.039 86.6481 145.375 87.7259 145.869C88.8262 146.363 89.904 147.037 90.9818 147.935C92.0821 148.833 92.9803 149.776 93.6988 150.787C94.4174 151.797 94.9787 152.808 95.3605 153.863C95.7422 154.919 95.9667 155.974 96.0341 157.052C96.1014 158.13 96.0341 159.185 95.8095 160.218C95.585 161.251 95.2482 162.261 94.7542 163.249C94.2602 164.237 93.6539 165.158 92.9578 166.034C92.2617 166.887 91.4983 167.628 90.645 168.279C89.7917 168.93 88.8935 169.469 87.928 169.873C86.9624 170.3 85.9744 170.569 84.9191 170.727C83.8637 170.884 82.8083 170.861 81.7305 170.727C80.6527 170.569 79.5524 170.233 78.4746 169.739C77.3743 169.245 76.2965 168.571 75.2187 167.695C74.1184 166.797 73.2202 165.854 72.5017 164.843C71.7831 163.833 71.2442 162.8 70.84 161.767C70.4583 160.712 70.2337 159.656 70.1664 158.579C70.099 157.501 70.1664 156.445 70.4134 155.39C70.6379 154.357 70.9972 153.324 71.4912 152.336C71.9852 151.348 72.5915 150.428 73.2876 149.552L73.31 149.529ZM76.4088 152.359C75.8025 153.1 75.3758 153.931 75.0839 154.851C74.792 155.772 74.7247 156.737 74.8369 157.748C74.9492 158.736 75.286 159.746 75.8474 160.734C76.4088 161.722 77.2171 162.665 78.2949 163.541C79.4177 164.462 80.518 165.09 81.6407 165.472C82.741 165.831 83.7963 165.966 84.8068 165.899C85.8172 165.831 86.7379 165.54 87.6136 165.046C88.4669 164.574 89.2303 163.945 89.8591 163.182C90.4429 162.463 90.892 161.632 91.1839 160.712C91.4758 159.791 91.5656 158.826 91.4309 157.838C91.2962 156.85 90.9818 155.839 90.4204 154.829C89.8591 153.841 89.0507 152.898 87.9504 151.999C86.8277 151.079 85.705 150.45 84.6047 150.068C83.5044 149.709 82.4491 149.574 81.4386 149.642C80.4281 149.732 79.5075 150.001 78.6542 150.473C77.8009 150.944 77.0599 151.573 76.4312 152.336L76.4088 152.359Z" fill="#003E7A"/>
<path d="M88.1526 133.227C88.7813 132.531 89.41 131.835 90.0388 131.184C90.6675 130.533 91.2513 129.927 91.8127 129.365C93.2049 127.995 94.5746 126.918 95.9443 126.087C97.2916 125.278 98.594 124.74 99.829 124.493C101.064 124.246 102.232 124.268 103.309 124.582C104.387 124.897 105.375 125.481 106.251 126.379C106.812 126.963 107.261 127.569 107.576 128.22C107.89 128.871 108.115 129.567 108.227 130.286C108.339 131.004 108.317 131.768 108.227 132.531C108.115 133.317 107.89 134.103 107.576 134.934C109.305 135.338 111.101 135.832 112.965 136.393C114.829 136.955 116.715 137.561 118.646 138.257L114.739 142.074C113.234 141.558 111.663 141.064 109.978 140.592C108.317 140.121 106.633 139.694 104.949 139.29C104.679 139.627 104.41 139.964 104.095 140.278C103.781 140.615 103.444 140.952 103.085 141.311L109.17 147.531L105.6 151.034L88.1975 133.227H88.1526ZM100.301 138.482C100.458 138.325 100.615 138.19 100.75 138.033C100.884 137.898 101.042 137.741 101.199 137.584C101.917 136.887 102.479 136.191 102.905 135.495C103.332 134.799 103.601 134.148 103.714 133.497C103.826 132.846 103.826 132.262 103.646 131.7C103.489 131.139 103.175 130.623 102.703 130.151C102.254 129.702 101.76 129.388 101.199 129.208C100.637 129.028 100.031 129.006 99.4023 129.141C98.7736 129.253 98.1 129.545 97.4039 129.949C96.7078 130.376 96.0117 130.937 95.2707 131.633C95.136 131.768 94.9788 131.925 94.8441 132.06C94.7093 132.194 94.5521 132.329 94.4174 132.486L100.256 138.459L100.301 138.482Z" fill="#003E7A"/>
<path d="M107.508 114.972C108.272 114.253 108.968 113.602 109.597 113.041C110.225 112.479 110.854 111.963 111.416 111.514C112.942 110.279 114.424 109.313 115.862 108.64C117.299 107.966 118.668 107.584 119.971 107.472C121.273 107.36 122.486 107.539 123.586 108.011C124.709 108.482 125.674 109.223 126.528 110.279C127.448 111.379 128.032 112.569 128.301 113.804C128.571 115.039 128.526 116.297 128.189 117.599C127.852 118.901 127.224 120.204 126.281 121.506C125.337 122.808 124.125 124.088 122.62 125.346C122.62 125.346 122.598 125.368 122.576 125.391C122.576 125.391 122.553 125.391 122.531 125.436L127.156 131.072L123.294 134.238L107.508 114.994V114.972ZM119.948 122.247C120.106 122.112 120.263 122 120.397 121.865C120.532 121.753 120.689 121.618 120.847 121.484C121.61 120.855 122.239 120.204 122.71 119.53C123.182 118.856 123.496 118.183 123.653 117.509C123.811 116.836 123.811 116.162 123.653 115.511C123.496 114.859 123.182 114.231 122.688 113.647C122.216 113.086 121.7 112.659 121.094 112.389C120.51 112.12 119.859 112.008 119.185 112.053C118.489 112.098 117.77 112.277 117.007 112.614C116.243 112.951 115.457 113.445 114.671 114.096C114.537 114.208 114.402 114.321 114.245 114.455C114.11 114.568 113.975 114.702 113.841 114.837L119.926 122.247H119.948Z" fill="#003E7A"/>
<path d="M137.485 91.6864C138.383 91.0801 139.327 90.5861 140.315 90.2044C141.303 89.8227 142.335 89.5532 143.368 89.4409C144.401 89.3287 145.434 89.3287 146.467 89.4858C147.5 89.643 148.533 89.9574 149.521 90.4065C150.509 90.8556 151.475 91.4843 152.373 92.2702C153.271 93.0561 154.124 94.0217 154.91 95.1669C155.696 96.3345 156.302 97.5021 156.706 98.6698C157.111 99.8374 157.358 100.983 157.425 102.083C157.492 103.206 157.425 104.283 157.156 105.316C156.909 106.372 156.549 107.36 156.033 108.28C155.539 109.223 154.91 110.077 154.147 110.885C153.383 111.693 152.552 112.412 151.632 113.041C150.734 113.647 149.768 114.141 148.78 114.523C147.77 114.904 146.759 115.151 145.726 115.286C144.693 115.421 143.66 115.398 142.605 115.264C141.55 115.129 140.539 114.792 139.551 114.343C138.563 113.872 137.62 113.265 136.699 112.479C135.779 111.693 134.948 110.728 134.162 109.583C133.376 108.415 132.77 107.247 132.366 106.08C131.961 104.912 131.737 103.767 131.67 102.644C131.602 101.522 131.67 100.444 131.939 99.3883C132.186 98.333 132.568 97.3449 133.084 96.4019C133.601 95.4588 134.229 94.6055 134.993 93.7971C135.734 92.9888 136.587 92.2702 137.508 91.6415L137.485 91.6864ZM139.641 95.2791C138.855 95.818 138.204 96.4917 137.665 97.3C137.126 98.1084 136.767 99.0066 136.61 99.9946C136.43 100.983 136.475 102.038 136.722 103.161C136.969 104.283 137.485 105.406 138.271 106.551C139.08 107.741 139.978 108.685 140.921 109.336C141.864 109.987 142.852 110.436 143.84 110.638C144.828 110.84 145.794 110.84 146.759 110.638C147.725 110.414 148.623 110.032 149.431 109.47C150.195 108.954 150.868 108.28 151.385 107.472C151.924 106.664 152.283 105.765 152.44 104.777C152.62 103.789 152.575 102.734 152.328 101.611C152.081 100.489 151.564 99.3659 150.778 98.1982C149.97 97.0081 149.072 96.065 148.129 95.4139C147.163 94.7402 146.198 94.3136 145.21 94.1115C144.222 93.9094 143.256 93.9094 142.291 94.1115C141.325 94.3136 140.449 94.7178 139.618 95.2567L139.641 95.2791Z" fill="#003E7A"/>
<path d="M155.831 80.3917C156.617 79.8753 157.403 79.3813 158.188 78.9097C158.974 78.4382 159.693 78.0115 160.389 77.6074C162.096 76.6418 163.712 75.9457 165.217 75.5191C166.721 75.0924 168.136 74.9128 169.393 74.9802C170.651 75.07 171.773 75.3844 172.739 75.9682C173.705 76.552 174.49 77.3828 175.097 78.4606C175.501 79.1567 175.77 79.8753 175.905 80.5938C176.04 81.3124 176.085 82.0309 175.995 82.7495C175.905 83.468 175.703 84.209 175.389 84.9276C175.074 85.6461 174.648 86.3646 174.131 87.0832C175.703 87.9365 177.297 88.8571 178.959 89.89C180.598 90.9005 182.282 92.0008 183.966 93.1684L179.206 95.8405C177.881 94.9423 176.489 94.0441 175.007 93.1684C173.525 92.2927 172.02 91.4394 170.494 90.6086C170.157 90.8556 169.797 91.1026 169.416 91.3496C169.034 91.5741 168.607 91.8211 168.158 92.0906L172.425 99.6578L168.068 102.105L155.876 80.3917H155.831ZM166.182 88.6101C166.362 88.4978 166.564 88.408 166.721 88.2957C166.878 88.1835 167.08 88.0937 167.26 87.9814C168.136 87.4874 168.877 86.9709 169.461 86.4096C170.044 85.8482 170.494 85.2868 170.763 84.703C171.055 84.1192 171.19 83.5354 171.167 82.9515C171.167 82.3677 170.988 81.7839 170.673 81.2225C170.359 80.6612 169.955 80.2345 169.461 79.9426C168.967 79.6283 168.383 79.4486 167.754 79.4037C167.103 79.3588 166.407 79.4486 165.621 79.6732C164.835 79.8977 164.004 80.257 163.128 80.751C162.949 80.8408 162.769 80.9531 162.612 81.0429C162.432 81.1327 162.275 81.245 162.096 81.3348L166.182 88.6326V88.6101Z" fill="#003E7A"/>
<path d="M193.959 65.1226L185.112 69.344L187.806 74.9801L195.98 71.073L197.709 74.7107L189.535 78.6178L192.364 84.5233L201.211 80.3019L202.94 83.9395L189.602 90.3166L178.869 67.862L192.207 61.4849L193.936 65.1226H193.959Z" fill="#003E7A"/>
<path d="M211.181 53.536C214.28 56.7246 217.199 60.003 220.006 63.4161C222.79 66.8292 225.35 70.2647 227.641 73.7676L222.88 75.6763C222.431 74.9802 221.96 74.2616 221.488 73.5655C221.016 72.847 220.522 72.1509 220.006 71.4324L211.361 74.9128C211.473 75.7885 211.608 76.6418 211.765 77.4726C211.9 78.3259 212.057 79.1343 212.214 79.9651L207.589 81.8288C206.825 77.7196 206.286 73.4757 205.949 69.0746C205.613 64.6735 205.455 60.2724 205.455 55.8489L211.204 53.536H211.181ZM217.581 68.1315C216.391 66.5822 215.178 65.0777 213.921 63.5957C212.663 62.1137 211.383 60.6766 210.059 59.2844C210.104 61.1931 210.171 63.1242 210.283 65.0553C210.395 66.9863 210.553 68.9399 210.777 70.871L217.558 68.1315H217.581Z" fill="#003E7A"/>
<path d="M236.78 66.3127L245.447 63.3936L246.749 67.3007L233.344 71.7916L225.417 48.1919L230.155 46.5976L236.757 66.2903L236.78 66.3127Z" fill="#003E7A"/>
<path d="M268.351 57.0164L277.22 54.7934L278.208 58.7904L264.489 62.2259L258.471 38.0648L263.321 36.8522L268.351 57.0164Z" fill="#003E7A"/>
<path d="M289.121 56.5224L284.226 57.5329L279.151 33.1697L284.047 32.1592L289.121 56.5224Z" fill="#003E7A"/>
<path d="M307.938 32.0245L298.642 33.5739L299.787 40.4675L308.32 39.0304L308.994 43.0497L300.461 44.4868L302.078 54.0974L297.16 54.9282L293.051 30.3629L307.265 27.9827L307.938 32.0021V32.0245Z" fill="#003E7A"/>
<path d="M330.281 29.1728L320.558 30.318L321.299 36.5379L330.303 35.4825L330.775 39.4795L321.77 40.5348L322.534 47.0467L332.257 45.9015L332.728 49.8984L318.043 51.6274L315.124 26.9049L329.809 25.1759L330.281 29.1728Z" fill="#003E7A"/>
<path d="M352.308 42.7803C353.252 43.3416 354.24 43.7458 355.272 44.0377C356.305 44.3072 357.316 44.4419 358.326 44.397C358.933 44.3745 359.471 44.2847 359.965 44.1275C360.437 43.9704 360.864 43.7683 361.178 43.5213C361.492 43.2743 361.762 42.9599 361.941 42.6006C362.121 42.2414 362.188 41.8596 362.166 41.4105C362.144 40.8492 361.964 40.3327 361.627 39.9285C361.29 39.5019 360.841 39.1426 360.302 38.8282C359.763 38.5139 359.157 38.222 358.461 37.9525C357.765 37.6831 357.069 37.3912 356.35 37.0992C355.632 36.7849 354.936 36.4705 354.24 36.0888C353.543 35.7071 352.915 35.2804 352.376 34.7415C351.814 34.2251 351.388 33.5963 351.029 32.8778C350.669 32.1592 350.49 31.306 350.445 30.3404C350.4 29.2401 350.557 28.2297 350.939 27.3315C351.32 26.4333 351.859 25.6474 352.578 24.9962C353.296 24.345 354.172 23.8286 355.205 23.4693C356.238 23.11 357.383 22.8855 358.663 22.8406C359.943 22.7957 361.133 22.8855 362.188 23.1549C363.244 23.4244 364.277 23.8061 365.265 24.3675L364.232 28.297C363.356 27.8255 362.48 27.4662 361.582 27.2192C360.684 26.9722 359.786 26.8824 358.865 26.9273C358.349 26.9273 357.877 27.0396 357.428 27.1743C356.979 27.309 356.62 27.5111 356.305 27.7581C355.991 28.0051 355.766 28.297 355.587 28.6339C355.43 28.9707 355.34 29.3524 355.362 29.7566C355.385 30.318 355.564 30.7895 355.901 31.1712C356.238 31.553 356.665 31.9122 357.226 32.2266C357.787 32.541 358.394 32.8104 359.067 33.0799C359.741 33.3493 360.459 33.6188 361.178 33.9107C361.897 34.2026 362.593 34.5394 363.289 34.9211C363.985 35.3029 364.614 35.752 365.152 36.2909C365.714 36.8298 366.163 37.4585 366.5 38.1995C366.859 38.9405 367.039 39.8163 367.084 40.8267C367.128 41.9494 366.949 42.9824 366.545 43.903C366.14 44.8236 365.557 45.632 364.793 46.2832C364.03 46.9568 363.109 47.4733 362.031 47.855C360.953 48.2367 359.786 48.4613 358.483 48.5062C357.046 48.5735 355.744 48.4388 354.554 48.1469C353.364 47.855 352.286 47.4059 351.298 46.7772L352.219 42.8027L352.308 42.7803Z" fill="#003E7A"/>
<path d="M393.625 38.9854C393.625 40.4674 393.356 41.7698 392.862 42.8925C392.368 44.0153 391.694 44.9808 390.818 45.7667C389.942 46.5302 388.887 47.114 387.63 47.5182C386.395 47.8999 385.002 48.102 383.476 48.0796C382.016 48.0796 380.691 47.855 379.501 47.4508C378.311 47.0466 377.3 46.4628 376.447 45.6994C375.594 44.9359 374.965 43.9928 374.516 42.8701C374.067 41.7474 373.842 40.4674 373.865 39.0079L374.067 22.7059L379.052 22.7732L378.872 38.8732C378.872 39.7489 378.985 40.5124 379.232 41.1411C379.479 41.7698 379.838 42.2863 380.264 42.6905C380.691 43.0946 381.23 43.3865 381.836 43.5886C382.443 43.7907 383.094 43.8805 383.79 43.8805C384.464 43.8805 385.115 43.8132 385.721 43.6335C386.327 43.4539 386.844 43.1845 387.315 42.8027C387.787 42.421 388.124 41.9494 388.393 41.3432C388.662 40.7369 388.775 40.0633 388.797 39.2324L388.999 22.8855L393.85 22.9529L393.67 39.0079L393.625 38.9854Z" fill="#003E7A"/>
<path d="M402.809 23.3121C403.864 23.3121 404.807 23.3121 405.661 23.3346C406.514 23.357 407.3 23.4019 408.041 23.4468C409.994 23.5816 411.746 23.8959 413.25 24.3675C414.755 24.8615 416.035 25.5127 417.045 26.321C418.056 27.1294 418.819 28.0949 419.313 29.1952C419.807 30.2955 420.009 31.5305 419.919 32.8553C419.829 34.2924 419.448 35.5499 418.797 36.6277C418.145 37.7055 417.247 38.6262 416.124 39.3223C415.002 40.0408 413.632 40.5573 412.06 40.8716C410.466 41.186 408.714 41.2983 406.761 41.1635C406.738 41.1635 406.716 41.1635 406.716 41.1635C406.716 41.1635 406.694 41.1635 406.671 41.1635L406.2 48.4388L401.215 48.102L402.854 23.2672L402.809 23.3121ZM406.896 37.1217C407.098 37.1217 407.3 37.1442 407.479 37.1666C407.659 37.1666 407.861 37.1891 408.063 37.2115C409.051 37.2789 409.949 37.2115 410.758 37.0543C411.566 36.8747 412.262 36.6052 412.824 36.2235C413.407 35.8418 413.857 35.3478 414.193 34.764C414.53 34.1801 414.71 33.5065 414.777 32.7431C414.822 32.002 414.732 31.3509 414.485 30.7446C414.238 30.1383 413.857 29.6219 413.318 29.1952C412.801 28.7461 412.15 28.3869 411.342 28.1174C410.556 27.8479 409.658 27.6683 408.625 27.6009C408.445 27.6009 408.265 27.6009 408.086 27.5785C407.906 27.5785 407.726 27.5785 407.524 27.5785L406.896 37.1442V37.1217Z" fill="#003E7A"/>
<path d="M428.25 25.2207C429.283 25.2656 430.248 25.333 431.079 25.4004C431.932 25.4677 432.718 25.5575 433.437 25.6474C435.39 25.8719 437.097 26.2761 438.579 26.8599C440.061 27.4213 441.296 28.1398 442.262 29.0156C443.227 29.8688 443.946 30.8793 444.372 32.002C444.799 33.1247 444.934 34.3597 444.776 35.6846C444.597 37.1217 444.17 38.3567 443.474 39.3896C442.778 40.4449 441.835 41.2982 440.667 41.9494C439.5 42.6006 438.107 43.0497 436.513 43.2742C434.919 43.4988 433.145 43.5212 431.214 43.2742C431.191 43.2742 431.169 43.2742 431.169 43.2742C431.169 43.2742 431.147 43.2742 431.124 43.2742L430.271 50.5046L425.308 49.9208L428.25 25.1983V25.2207ZM431.596 39.2548C431.798 39.2773 432 39.2998 432.179 39.3222C432.359 39.3447 432.561 39.3671 432.763 39.3896C433.751 39.5019 434.649 39.5019 435.458 39.3896C436.266 39.2549 436.962 39.0303 437.569 38.671C438.175 38.3118 438.646 37.8402 439.006 37.2788C439.365 36.7175 439.589 36.0438 439.679 35.3028C439.769 34.5618 439.679 33.9107 439.477 33.3044C439.253 32.6981 438.893 32.1592 438.399 31.6877C437.905 31.2161 437.277 30.8119 436.491 30.4976C435.727 30.1832 434.829 29.9586 433.796 29.8464C433.617 29.8464 433.437 29.8015 433.257 29.779C433.078 29.779 432.898 29.7566 432.696 29.779L431.551 39.2998L431.596 39.2548Z" fill="#003E7A"/>
<path d="M465.345 30.2057C466.4 30.4078 467.433 30.6997 468.421 31.1263C469.409 31.5529 470.307 32.0919 471.116 32.7206C471.924 33.3493 472.665 34.0903 473.294 34.9436C473.923 35.7744 474.439 36.7175 474.821 37.7504C475.202 38.7833 475.449 39.8836 475.539 41.0737C475.629 42.2638 475.539 43.5437 475.315 44.9134C475.068 46.3056 474.664 47.5631 474.147 48.6633C473.631 49.7861 472.979 50.7516 472.261 51.6049C471.542 52.4582 470.712 53.1543 469.791 53.7381C468.893 54.3219 467.927 54.7485 466.917 55.0629C465.906 55.3773 464.851 55.5569 463.751 55.6018C462.65 55.6467 461.55 55.5794 460.45 55.3773C459.372 55.1752 458.362 54.8608 457.374 54.4342C456.386 54.0075 455.487 53.4686 454.657 52.8399C453.826 52.2112 453.085 51.4702 452.456 50.6394C451.827 49.8085 451.311 48.8654 450.929 47.8325C450.547 46.7996 450.3 45.6993 450.211 44.5092C450.098 43.3191 450.188 42.0392 450.435 40.6695C450.682 39.2773 451.086 38.0199 451.625 36.9196C452.164 35.7969 452.793 34.8313 453.534 33.978C454.275 33.1248 455.083 32.4287 456.004 31.8448C456.924 31.261 457.89 30.8344 458.9 30.52C459.933 30.2057 460.989 30.0485 462.089 29.9811C463.189 29.9362 464.29 30.0036 465.39 30.2057H465.345ZM464.357 34.2924C463.414 34.1128 462.493 34.1352 461.528 34.3373C460.562 34.5394 459.686 34.9211 458.878 35.5274C458.07 36.1112 457.351 36.8971 456.745 37.8627C456.139 38.8282 455.712 39.9959 455.465 41.3656C455.195 42.7802 455.173 44.0826 455.398 45.2278C455.622 46.373 456.004 47.361 456.565 48.1918C457.127 49.0226 457.823 49.7187 458.653 50.2352C459.484 50.7516 460.405 51.1109 461.37 51.2905C462.291 51.4702 463.212 51.4477 464.155 51.2456C465.098 51.0435 465.974 50.6618 466.804 50.078C467.635 49.4942 468.331 48.7083 468.938 47.7427C469.544 46.7772 469.971 45.5871 470.218 44.2173C470.487 42.8027 470.509 41.5003 470.285 40.3551C470.06 39.21 469.679 38.222 469.117 37.3911C468.556 36.5603 467.86 35.8642 467.029 35.3478C466.198 34.8313 465.3 34.472 464.312 34.2924H464.357Z" fill="#003E7A"/>
<path d="M486.003 34.8089C486.946 34.9886 487.844 35.1682 488.72 35.3478C489.596 35.5275 490.427 35.7296 491.19 35.9092C493.076 36.3807 494.738 36.987 496.13 37.7056C497.545 38.4241 498.668 39.2549 499.521 40.1756C500.374 41.0962 500.958 42.1067 501.272 43.1845C501.587 44.2623 501.564 45.4075 501.272 46.62C501.07 47.4059 500.778 48.102 500.397 48.7308C500.015 49.3595 499.521 49.8984 498.959 50.37C498.398 50.8415 497.747 51.2232 497.028 51.5376C496.31 51.852 495.501 52.0765 494.648 52.2337C495.21 53.9178 495.726 55.7141 496.22 57.5779C496.714 59.4416 497.185 61.3952 497.59 63.3936L492.29 62.0688C491.954 60.5194 491.549 58.9027 491.078 57.2411C490.606 55.5794 490.112 53.9178 489.573 52.2786C489.147 52.2337 488.72 52.1663 488.271 52.0765C487.822 51.9867 487.35 51.8744 486.856 51.7397L484.746 60.1602L479.895 58.9476L485.981 34.8089H486.003ZM487.844 47.8999C488.046 47.9449 488.249 48.0122 488.451 48.0571C488.653 48.102 488.855 48.1469 489.057 48.2143C490.022 48.4613 490.921 48.5736 491.729 48.5736C492.537 48.5736 493.256 48.4613 493.862 48.2368C494.468 48.0122 494.962 47.6754 495.367 47.2488C495.771 46.8221 496.04 46.2832 496.198 45.632C496.355 45.0258 496.355 44.4419 496.198 43.8581C496.04 43.2968 495.748 42.7803 495.322 42.2863C494.895 41.7923 494.311 41.3881 493.593 41.0064C492.874 40.6247 492.021 40.3327 491.055 40.0857C490.853 40.0408 490.674 39.9959 490.472 39.9286C490.269 39.8612 490.09 39.8387 489.888 39.7714L487.844 47.8775V47.8999Z" fill="#003E7A"/>
<path d="M525.838 50.3475L519.056 48.2367L512.859 68.0642L508.099 66.5822L514.296 46.7547L507.492 44.6216L508.727 40.692L527.073 46.4179L525.838 50.3475Z" fill="#003E7A"/>
<path d="M557.633 57.8024C558.621 58.2291 559.542 58.7455 560.418 59.3742C561.293 60.003 562.034 60.7215 562.708 61.5299C563.359 62.3382 563.921 63.214 564.347 64.1795C564.774 65.1451 565.066 66.1555 565.223 67.2558C565.38 68.3336 565.358 69.4788 565.201 70.6689C565.043 71.859 564.684 73.094 564.123 74.3739C563.561 75.6763 562.91 76.799 562.147 77.787C561.383 78.7526 560.552 79.5609 559.654 80.2346C558.756 80.8857 557.79 81.4022 556.78 81.7615C555.77 82.1208 554.737 82.3453 553.681 82.4127C552.626 82.5025 551.548 82.4351 550.47 82.233C549.392 82.0309 548.337 81.7166 547.282 81.2675C546.271 80.8408 545.351 80.3019 544.475 79.6732C543.622 79.0445 542.858 78.3259 542.185 77.5176C541.511 76.7092 540.972 75.8335 540.523 74.8679C540.096 73.9024 539.804 72.8919 539.647 71.7916C539.512 70.7138 539.512 69.5686 539.67 68.3785C539.827 67.1884 540.186 65.9534 540.725 64.6735C541.286 63.3712 541.938 62.2484 542.701 61.2604C543.464 60.2724 544.295 59.4865 545.193 58.8129C546.092 58.1392 547.057 57.6452 548.068 57.286C549.078 56.9267 550.133 56.7021 551.189 56.6348C552.244 56.5674 553.322 56.6348 554.422 56.8144C555.5 57.0165 556.555 57.3309 557.611 57.78L557.633 57.8024ZM555.77 61.5523C554.894 61.1706 553.973 60.991 553.008 60.9685C552.042 60.9685 551.099 61.1482 550.156 61.5299C549.235 61.9116 548.36 62.5179 547.574 63.3263C546.765 64.1346 546.092 65.19 545.553 66.4699C544.991 67.7947 544.677 69.0522 544.632 70.2198C544.587 71.3875 544.744 72.4428 545.104 73.3859C545.463 74.329 546.002 75.1374 546.698 75.8335C547.394 76.5296 548.202 77.0685 549.123 77.4502C549.976 77.8095 550.897 78.0116 551.862 78.034C552.828 78.034 553.771 77.8768 554.692 77.4727C555.612 77.0685 556.488 76.4846 557.296 75.6763C558.105 74.8679 558.778 73.8126 559.34 72.5326C559.901 71.2078 560.216 69.9504 560.26 68.7827C560.305 67.6151 560.148 66.5597 559.789 65.6166C559.43 64.6735 558.891 63.8652 558.195 63.1691C557.499 62.473 556.69 61.9341 555.77 61.5523Z" fill="#003E7A"/>
<path d="M576.944 66.9863C577.82 67.3681 578.651 67.7498 579.459 68.154C580.268 68.5582 581.031 68.9174 581.75 69.2767C583.479 70.1749 584.938 71.1404 586.151 72.1733C587.341 73.2063 588.261 74.2841 588.89 75.3843C589.519 76.4846 589.833 77.6074 589.878 78.7301C589.923 79.8528 589.654 80.9755 589.07 82.0758C588.688 82.7944 588.239 83.4006 587.722 83.9171C587.206 84.4335 586.6 84.8377 585.949 85.1746C585.297 85.4889 584.579 85.7359 583.793 85.8482C583.007 85.9605 582.199 86.0054 581.3 85.9605C581.435 87.7344 581.547 89.5981 581.592 91.5292C581.637 93.4603 581.637 95.4588 581.592 97.5021L576.742 94.9872C576.765 93.3929 576.742 91.7313 576.675 90.0023C576.607 88.2733 576.495 86.5443 576.36 84.8153C575.956 84.6806 575.552 84.5009 575.148 84.3213C574.744 84.1192 574.317 83.9171 573.846 83.6701L569.826 91.372L565.403 89.0592L576.899 66.9863H576.944ZM575.709 80.1672C575.889 80.257 576.091 80.3693 576.271 80.4591C576.45 80.5489 576.63 80.6387 576.832 80.751C577.73 81.2225 578.561 81.5369 579.347 81.739C580.133 81.9186 580.851 81.986 581.503 81.8962C582.154 81.8064 582.715 81.6043 583.187 81.2674C583.658 80.9306 584.062 80.4815 584.377 79.8977C584.669 79.3364 584.803 78.775 584.803 78.1912C584.803 77.6074 584.624 77.0235 584.309 76.4622C583.995 75.9008 583.523 75.3394 582.917 74.823C582.311 74.2841 581.547 73.7901 580.649 73.3185C580.47 73.2287 580.29 73.1389 580.11 73.0491C579.931 72.9592 579.751 72.8694 579.571 72.7796L575.709 80.1896V80.1672Z" fill="#003E7A"/>
<path d="M605.462 110.144C604.047 110.032 602.632 109.74 601.195 109.246C599.758 108.752 598.321 108.056 596.884 107.158C595.267 106.147 593.92 104.98 592.887 103.655C591.854 102.33 591.136 100.938 590.731 99.4108C590.327 97.8839 590.282 96.312 590.574 94.6729C590.866 93.0337 591.54 91.372 592.573 89.6879C593.336 88.4754 594.167 87.4425 595.065 86.6117C595.963 85.7584 596.929 85.0847 597.939 84.5683C598.95 84.0518 599.983 83.6926 601.061 83.5129C602.138 83.3108 603.239 83.2659 604.339 83.3782C605.439 83.4905 606.539 83.715 607.617 84.0967C608.718 84.4785 609.773 84.9949 610.783 85.6237C612.131 86.4769 613.298 87.4425 614.264 88.5428C615.229 89.643 615.993 90.8556 616.532 92.2029L613.388 94.8076C613.141 94.2462 612.872 93.7073 612.557 93.1684C612.243 92.6295 611.884 92.1355 611.479 91.6864C611.075 91.2149 610.649 90.7882 610.177 90.384C609.706 89.9799 609.234 89.6206 608.718 89.3062C608.089 88.902 607.438 88.5877 606.764 88.3631C606.09 88.1161 605.417 87.9589 604.721 87.8916C604.025 87.8242 603.328 87.8691 602.655 88.0038C601.981 88.1386 601.307 88.3856 600.634 88.7449C599.983 89.1041 599.331 89.5757 598.725 90.1595C598.119 90.7433 597.558 91.4619 597.019 92.2927C596.278 93.4828 595.784 94.628 595.559 95.7282C595.335 96.8285 595.312 97.8839 595.514 98.8719C595.716 99.8599 596.143 100.781 596.772 101.611C597.4 102.442 598.209 103.161 599.197 103.789C599.803 104.171 600.387 104.463 600.971 104.71C601.554 104.957 602.183 105.137 602.857 105.249L605.709 100.691L601.105 97.8165L603.126 94.5606L611.794 99.9722L605.417 110.189L605.462 110.144Z" fill="#003E7A"/>
<path d="M635.012 102.891C633.889 107.18 632.609 111.402 631.15 115.556C629.69 119.71 628.073 123.684 626.277 127.457L622.168 124.38C622.527 123.639 622.886 122.876 623.246 122.09C623.605 121.326 623.964 120.518 624.301 119.71L616.824 114.119C616.15 114.68 615.476 115.219 614.825 115.78C614.174 116.342 613.545 116.903 612.939 117.464L608.942 114.478C612.063 111.693 615.409 109.021 618.979 106.439C622.55 103.857 626.232 101.432 630.027 99.1413L634.989 102.846L635.012 102.891ZM625.85 115.937C626.547 114.119 627.22 112.277 627.826 110.458C628.455 108.617 628.994 106.776 629.511 104.912C627.894 105.945 626.3 107 624.705 108.101C623.111 109.201 621.539 110.346 619.99 111.559L625.85 115.937Z" fill="#003E7A"/>
<path d="M647.092 145.982L642.557 141.85L645.835 123.482C645.925 122.943 646.037 122.427 646.172 121.933C646.307 121.439 646.441 120.967 646.621 120.496C646.351 120.877 646.06 121.237 645.768 121.596C645.476 121.955 645.184 122.292 644.869 122.629L634.226 134.328L630.768 131.162L647.519 112.749L652.055 116.88L648.799 135.293C648.709 135.832 648.597 136.326 648.44 136.82C648.305 137.292 648.17 137.763 648.013 138.235C648.283 137.898 648.552 137.539 648.844 137.179C649.136 136.82 649.428 136.483 649.72 136.169L660.363 124.47L663.821 127.614L647.07 146.027L647.092 145.982Z" fill="#003E7A"/>
<path d="M655.962 155.48L652.549 151.82L670.76 134.822L674.173 138.482L655.984 155.48H655.962Z" fill="#003E7A"/>
<path d="M687.309 160.308L669.794 162.396C669.412 162.418 669.031 162.441 668.649 162.463C668.267 162.486 667.885 162.486 667.481 162.463L674.465 171.131L671.254 173.713L660.543 160.442L663.641 157.95L681.156 155.862C681.538 155.817 681.897 155.794 682.301 155.794C682.683 155.794 683.087 155.794 683.469 155.794L676.935 147.711L680.146 145.128L690.385 157.838L687.286 160.33L687.309 160.308Z" fill="#003E7A"/>
<path d="M702.286 175.173C699.771 178.81 697.099 182.336 694.292 185.726C691.485 189.117 688.589 192.283 685.602 195.202L682.818 190.913C683.424 190.329 684.03 189.746 684.637 189.139C685.243 188.533 685.849 187.927 686.433 187.276L681.358 179.439C680.527 179.731 679.719 180.023 678.911 180.315C678.102 180.607 677.316 180.921 676.553 181.235L673.836 177.036C677.721 175.509 681.785 174.14 686.051 172.972C690.295 171.804 694.584 170.794 698.94 169.963L702.308 175.173H702.286ZM689.172 184.244C690.475 182.785 691.71 181.303 692.922 179.776C694.135 178.249 695.302 176.722 696.425 175.173C694.561 175.577 692.698 176.026 690.812 176.497C688.925 176.969 687.062 177.508 685.198 178.092L689.172 184.222V184.244Z" fill="#003E7A"/>
<path d="M713.356 203.892L710.123 197.56L691.62 206.991L689.352 202.545L707.855 193.114L704.621 186.782L708.281 184.918L717.016 202.028L713.356 203.892Z" fill="#003E7A"/>
<path d="M698.828 223.472L696.964 218.824L720.092 209.596L721.956 214.244L698.828 223.472Z" fill="#003E7A"/>
<path d="M729.254 235.463C729.523 236.496 729.703 237.551 729.725 238.629C729.748 239.707 729.68 240.74 729.456 241.75C729.231 242.761 728.872 243.749 728.378 244.67C727.884 245.59 727.255 246.466 726.514 247.252C725.751 248.038 724.853 248.734 723.82 249.34C722.787 249.946 721.597 250.418 720.25 250.777C718.88 251.136 717.577 251.339 716.342 251.339C715.107 251.339 713.962 251.181 712.884 250.889C711.807 250.598 710.819 250.148 709.92 249.565C709.022 248.981 708.191 248.307 707.473 247.521C706.754 246.735 706.148 245.86 705.632 244.894C705.115 243.929 704.711 242.896 704.419 241.795C704.127 240.74 703.97 239.685 703.948 238.607C703.925 237.529 704.015 236.496 704.217 235.463C704.442 234.453 704.778 233.465 705.272 232.522C705.766 231.579 706.395 230.725 707.136 229.939C707.877 229.153 708.798 228.457 709.831 227.851C710.864 227.245 712.054 226.751 713.401 226.392C714.771 226.032 716.073 225.853 717.308 225.853C718.543 225.853 719.711 226.01 720.766 226.302C721.844 226.594 722.832 227.043 723.752 227.604C724.673 228.188 725.481 228.862 726.2 229.647C726.919 230.433 727.525 231.332 728.041 232.297C728.558 233.263 728.962 234.296 729.254 235.396V235.463ZM725.145 236.316C724.898 235.396 724.493 234.565 723.887 233.779C723.303 233.016 722.562 232.387 721.687 231.893C720.811 231.399 719.8 231.107 718.655 230.972C717.51 230.838 716.275 230.972 714.928 231.309C713.536 231.691 712.368 232.207 711.425 232.903C710.482 233.599 709.763 234.363 709.247 235.239C708.73 236.114 708.416 237.035 708.304 238.001C708.191 238.966 708.259 239.954 708.528 240.92C708.775 241.818 709.179 242.649 709.763 243.435C710.347 244.22 711.066 244.827 711.964 245.321C712.84 245.815 713.85 246.129 714.995 246.241C716.14 246.354 717.375 246.241 718.723 245.882C720.115 245.5 721.282 244.984 722.226 244.288C723.169 243.592 723.887 242.828 724.404 241.953C724.92 241.077 725.234 240.179 725.347 239.191C725.459 238.225 725.392 237.26 725.122 236.294L725.145 236.316Z" fill="#003E7A"/>
<path d="M711.155 282.371L710.594 276.263L725.392 264.901C725.841 264.564 726.267 264.25 726.694 263.981C727.121 263.711 727.547 263.442 727.996 263.217C727.525 263.307 727.076 263.397 726.627 263.464C726.178 263.531 725.729 263.576 725.279 263.621L709.539 265.103L709.09 260.433L733.879 258.12L734.441 264.228L719.643 275.634C719.217 275.971 718.79 276.263 718.363 276.533C717.937 276.802 717.51 277.049 717.106 277.296C717.533 277.229 717.982 277.139 718.431 277.072C718.88 277.004 719.329 276.959 719.756 276.914L735.496 275.432L735.923 280.08L711.133 282.393L711.155 282.371Z" fill="#003E7A"/>
<path d="M257.842 509.522L246.772 505.57L244.392 512.216L255.35 516.146L254.406 518.818L243.449 514.888L240.417 523.376L251.375 527.306L250.41 530L236.645 525.083L244.953 501.865L258.808 506.827L257.842 509.522Z" fill="#003E7A" stroke="#003E7A" stroke-width="0.561365" stroke-miterlimit="10"/>
<path d="M271.27 519.469L268.979 520.704C268.036 519.132 267.026 518.189 265.948 517.852C265.274 517.65 264.623 517.673 264.039 517.965C263.456 518.234 263.051 518.683 262.872 519.312C262.692 519.941 262.782 520.547 263.164 521.153C263.545 521.782 264.286 522.613 265.409 523.69C266.532 524.768 267.318 525.824 267.789 526.857C268.261 527.889 268.306 528.99 267.947 530.18C267.497 531.684 266.577 532.785 265.185 533.503C263.792 534.222 262.333 534.334 260.761 533.862C258.583 533.211 257.034 531.752 256.135 529.506L258.426 528.159C259.212 529.865 260.222 530.921 261.457 531.28C262.288 531.527 263.096 531.482 263.86 531.123C264.623 530.764 265.117 530.225 265.319 529.506C265.521 528.788 265.454 528.114 265.05 527.463C264.646 526.812 263.905 525.958 262.782 524.925C261.659 523.893 260.896 522.86 260.447 521.872C260.02 520.884 259.998 519.761 260.379 518.481C260.761 517.201 261.569 516.258 262.804 515.652C264.039 515.045 265.432 514.978 267.026 515.45C268.598 515.921 270.012 517.268 271.27 519.469Z" fill="#003E7A" stroke="#003E7A" stroke-width="0.561365" stroke-miterlimit="10"/>
<path d="M285.888 523.646L282.273 522.702L279.039 535.165C278.927 535.614 278.904 535.906 279.039 536.04C279.174 536.175 279.466 536.31 280.005 536.445L281.599 536.871L280.993 539.184C279.87 539.072 279.039 538.96 278.478 538.802C277.4 538.533 276.681 538.061 276.3 537.433C275.918 536.782 275.873 535.906 276.165 534.806L279.488 521.984L276.345 521.176L276.951 518.84L280.095 519.649L281.824 512.957L284.608 513.676L282.879 520.367L286.494 521.31L285.888 523.668V523.646Z" fill="#003E7A" stroke="#003E7A" stroke-width="0.561365" stroke-miterlimit="10"/>
<path d="M306.793 544.461L304.054 543.9L304.593 541.272C302.145 543.024 299.608 543.608 296.98 543.069C294.353 542.53 292.31 541.138 290.85 538.87C289.368 536.602 288.897 534.177 289.436 531.572C289.975 528.967 291.367 526.924 293.612 525.464C295.858 523.982 298.35 523.533 301.045 524.095C303.739 524.656 305.783 526.183 307.175 528.698L307.736 525.958L310.476 526.52L306.771 544.506L306.793 544.461ZM297.721 540.576C299.585 540.958 301.337 540.644 302.976 539.588C304.593 538.555 305.625 537.051 306.03 535.075C306.434 533.099 306.097 531.325 305.042 529.708C303.986 528.114 302.482 527.104 300.551 526.699C298.62 526.295 296.846 526.655 295.229 527.755C293.612 528.855 292.624 530.337 292.22 532.201C291.838 534.065 292.175 535.838 293.253 537.478C294.331 539.117 295.813 540.15 297.699 540.531L297.721 540.576Z" fill="#003E7A" stroke="#003E7A" stroke-width="0.561365" stroke-miterlimit="10"/>
<path d="M320.49 530.831C322.713 529.012 325.183 528.294 327.9 528.675C330.617 529.057 332.773 530.315 334.367 532.448C335.962 534.581 336.568 536.984 336.209 539.633C335.849 542.283 334.569 544.416 332.414 546.055C330.258 547.672 327.833 548.301 325.161 547.919C322.489 547.537 320.333 546.1 318.717 543.54L318.335 546.347L315.573 545.965L319.053 520.951L321.815 521.333L320.49 530.831ZM325.43 545.224C327.362 545.494 329.113 545.022 330.662 543.81C332.212 542.597 333.132 541.048 333.379 539.184C333.649 537.298 333.2 535.569 332.077 533.997C330.954 532.403 329.382 531.482 327.406 531.19C325.43 530.898 323.679 531.347 322.152 532.47C320.625 533.593 319.727 535.165 319.458 537.141C319.188 539.139 319.615 540.913 320.76 542.485C321.905 544.057 323.454 544.977 325.408 545.247L325.43 545.224Z" fill="#003E7A" stroke="#003E7A" stroke-width="0.561365" stroke-miterlimit="10"/>
<path d="M344.809 549.581L341.979 549.311L344.382 524.162L347.211 524.431L344.809 549.581Z" fill="#003E7A" stroke="#003E7A" stroke-width="0.561365" stroke-miterlimit="10"/>
<path d="M355.026 550.411L352.174 550.209L353.499 531.909L356.35 532.111L355.026 550.411ZM355.407 525.105C356.036 525.15 356.53 525.397 356.934 525.846C357.338 526.295 357.496 526.812 357.473 527.395C357.428 528.002 357.181 528.473 356.732 528.855C356.283 529.237 355.744 529.416 355.138 529.371C354.532 529.327 354.038 529.08 353.633 528.608C353.229 528.159 353.072 527.642 353.094 527.081C353.139 526.52 353.386 526.026 353.835 525.622C354.285 525.217 354.823 525.06 355.407 525.105Z" fill="#003E7A" stroke="#003E7A" stroke-width="0.561365" stroke-miterlimit="10"/>
<path d="M373.259 535.142L371.35 536.916C370.048 535.636 368.835 534.963 367.712 534.895C366.994 534.873 366.388 535.053 365.894 535.479C365.4 535.906 365.13 536.422 365.108 537.074C365.085 537.702 365.332 538.286 365.849 538.78C366.365 539.296 367.308 539.925 368.655 540.689C370.003 541.452 371.036 542.283 371.754 543.181C372.473 544.057 372.787 545.135 372.742 546.37C372.675 547.942 372.046 549.244 370.901 550.277C369.733 551.31 368.341 551.781 366.702 551.714C364.434 551.624 362.57 550.591 361.133 548.638L363.019 546.774C364.209 548.233 365.444 548.997 366.724 549.064C367.6 549.109 368.364 548.862 369.015 548.323C369.666 547.784 370.003 547.133 370.025 546.392C370.048 545.651 369.801 545 369.262 544.461C368.723 543.922 367.78 543.293 366.432 542.575C365.085 541.834 364.097 541.048 363.424 540.195C362.75 539.341 362.458 538.241 362.503 536.916C362.57 535.591 363.109 534.469 364.165 533.571C365.197 532.672 366.545 532.268 368.206 532.336C369.846 532.403 371.552 533.368 373.326 535.187L373.259 535.142Z" fill="#003E7A" stroke="#003E7A" stroke-width="0.561365" stroke-miterlimit="10"/>
<path d="M396.14 551.444H393.266L393.243 542.71C393.243 541.003 393.176 539.813 393.064 539.094C392.951 538.398 392.727 537.747 392.345 537.118C391.963 536.512 391.469 536.041 390.841 535.704C390.212 535.389 389.448 535.232 388.55 535.232C387.675 535.232 386.821 535.434 386.013 535.861C385.204 536.265 384.508 536.826 383.947 537.545C383.386 538.264 382.981 539.027 382.757 539.835C382.532 540.644 382.443 542.26 382.443 544.686V551.489H379.591L379.501 526.228H382.375L382.42 535.883C384.284 533.728 386.484 532.627 389.044 532.627C390.392 532.627 391.627 532.964 392.749 533.638C393.872 534.312 394.68 535.255 395.242 536.467C395.803 537.68 396.073 539.521 396.095 541.991L396.14 551.422V551.444Z" fill="#003E7A" stroke="#003E7A" stroke-width="0.561365" stroke-miterlimit="10"/>
<path d="M422.502 541.362L406.02 542.373C406.267 544.394 407.053 545.965 408.4 547.111C409.747 548.256 411.319 548.772 413.093 548.66C416.102 548.48 418.303 546.886 419.717 543.9L422.21 544.955C421.244 546.976 420.054 548.48 418.639 549.513C417.225 550.546 415.496 551.108 413.452 551.242C410.623 551.422 408.221 550.614 406.267 548.84C404.313 547.066 403.258 544.843 403.078 542.171C402.921 539.499 403.685 537.163 405.436 535.142C407.165 533.121 409.411 532.021 412.128 531.864C414.867 531.684 417.202 532.448 419.156 534.132C421.109 535.816 422.21 538.241 422.479 541.362H422.502ZM419.178 539.117C418.729 537.567 417.876 536.4 416.596 535.591C415.316 534.783 413.902 534.446 412.307 534.536C409.096 534.738 407.053 536.534 406.2 539.903L419.178 539.094V539.117Z" fill="#003E7A" stroke="#003E7A" stroke-width="0.561365" stroke-miterlimit="10"/>
<path d="M449.402 546.976L446.618 547.313L446.281 544.641C444.53 547.088 442.306 548.458 439.634 548.795C436.962 549.131 434.582 548.458 432.471 546.796C430.361 545.135 429.148 542.979 428.811 540.329C428.474 537.68 429.148 535.299 430.81 533.166C432.471 531.033 434.672 529.82 437.389 529.484C440.128 529.147 442.554 529.933 444.664 531.864L443.452 522.231L446.236 521.894L449.38 546.953L449.402 546.976ZM439.545 546.212C441.341 545.988 442.868 545.135 444.125 543.63C445.383 542.148 445.877 540.374 445.63 538.376C445.383 536.355 444.507 534.761 443.025 533.57C441.543 532.38 439.792 531.909 437.793 532.178C435.795 532.425 434.223 533.323 433.055 534.895C431.888 536.467 431.438 538.174 431.663 540.06C431.888 541.946 432.786 543.495 434.335 544.73C435.884 545.965 437.614 546.459 439.545 546.212Z" fill="#003E7A" stroke="#003E7A" stroke-width="0.561365" stroke-miterlimit="10"/>
<path d="M478.728 541.474L475.854 542.103L471.206 520.771L467.186 521.647L468.331 518.503L473.474 517.381L478.705 541.474H478.728Z" fill="#003E7A" stroke="#003E7A" stroke-width="0.561365" stroke-miterlimit="10"/>
<path d="M497.433 526.048C496.826 526.385 496.198 526.632 495.569 526.812C493.593 527.373 491.752 527.149 490.023 526.138C488.294 525.15 487.148 523.601 486.565 521.535C485.981 519.469 486.25 517.516 487.328 515.697C488.428 513.878 490.045 512.665 492.201 512.059C494.356 511.453 496.332 511.677 498.151 512.733C499.97 513.766 501.16 515.292 501.721 517.313C502.036 518.414 502.103 519.581 501.946 520.839C501.789 522.096 501.452 523.488 500.936 525.015L496.579 537.814L493.773 536.984L497.433 526.071V526.048ZM495.457 524.162C496.781 523.78 497.792 523.017 498.466 521.827C499.139 520.659 499.296 519.424 498.937 518.144C498.578 516.864 497.814 515.899 496.624 515.248C495.434 514.596 494.177 514.439 492.852 514.821C491.527 515.203 490.517 515.966 489.843 517.134C489.169 518.301 489.012 519.536 489.371 520.839C489.731 522.141 490.517 523.107 491.684 523.758C492.874 524.409 494.132 524.544 495.457 524.162Z" fill="#003E7A" stroke="#003E7A" stroke-width="0.561365" stroke-miterlimit="10"/>
<path d="M520.583 515.405C523.884 515.854 525.972 517.358 526.848 519.941C527.567 522.051 527.432 524.05 526.399 525.981C525.366 527.912 523.637 529.282 521.167 530.135C518.72 530.988 516.519 530.966 514.543 530.068C512.567 529.169 511.265 527.755 510.569 525.779C509.648 523.107 510.366 520.547 512.747 518.122C510.187 517.65 508.57 516.37 507.852 514.282C507.29 512.643 507.492 510.981 508.458 509.252C509.423 507.523 510.883 506.333 512.836 505.659C514.79 504.986 516.654 505.008 518.45 505.749C520.246 506.49 521.437 507.725 522.043 509.454C522.739 511.475 522.245 513.451 520.583 515.405ZM516.317 515.584C517.417 515.203 518.27 514.484 518.832 513.429C519.416 512.373 519.528 511.363 519.191 510.375C518.854 509.387 518.158 508.691 517.148 508.264C516.137 507.838 514.992 507.838 513.757 508.264C512.522 508.691 511.624 509.387 511.04 510.352C510.479 511.318 510.366 512.306 510.703 513.294C511.04 514.282 511.781 515.001 512.926 515.472C514.071 515.944 515.194 515.966 516.339 515.584H516.317ZM520.336 527.485C521.908 526.946 523.031 526.048 523.704 524.791C524.401 523.533 524.513 522.276 524.086 520.996C523.637 519.716 522.739 518.795 521.392 518.212C520.044 517.628 518.63 517.605 517.148 518.099C515.688 518.616 514.588 519.536 513.847 520.861C513.106 522.186 512.971 523.511 513.42 524.813C513.869 526.116 514.745 527.036 516.025 527.53C517.305 528.024 518.742 528.024 520.336 527.463V527.485Z" fill="#003E7A" stroke="#003E7A" stroke-width="0.561365" stroke-miterlimit="10"/>
<path d="M539.535 511.363C538.974 511.767 538.39 512.104 537.784 512.351C535.897 513.137 534.034 513.137 532.192 512.351C530.351 511.565 529.026 510.195 528.195 508.197C527.365 506.221 527.387 504.245 528.24 502.314C529.094 500.383 530.553 498.968 532.619 498.115C534.685 497.261 536.683 497.239 538.614 498.047C540.545 498.856 541.915 500.225 542.724 502.156C543.173 503.212 543.375 504.357 543.375 505.615C543.375 506.872 543.218 508.287 542.881 509.903L540.119 523.129L537.222 522.658L539.512 511.363H539.535ZM537.357 509.701C538.637 509.162 539.535 508.287 540.051 507.029C540.568 505.772 540.59 504.537 540.074 503.324C539.557 502.112 538.682 501.236 537.424 500.719C536.167 500.203 534.887 500.225 533.629 500.764C532.372 501.303 531.451 502.179 530.912 503.436C530.373 504.671 530.373 505.929 530.912 507.164C531.451 508.399 532.327 509.275 533.584 509.769C534.842 510.263 536.099 510.24 537.379 509.724L537.357 509.701Z" fill="#003E7A" stroke="#003E7A" stroke-width="0.561365" stroke-miterlimit="10"/>
</g>
<defs>
<linearGradient id="paint0_linear_1439_5874" x1="171.639" y1="107.607" x2="171.639" y2="422.151" gradientUnits="userSpaceOnUse">
<stop stop-color="#FF2E59"/>
<stop offset="1" stop-color="#DB0330"/>
</linearGradient>
<linearGradient id="paint1_linear_1439_5874" x1="560.732" y1="124.313" x2="560.732" y2="430.661" gradientUnits="userSpaceOnUse">
<stop stop-color="#FF2E59"/>
<stop offset="1" stop-color="#DB0330"/>
</linearGradient>
<clipPath id="clip0_1439_5874">
<rect width="766.6" height="569.83" fill="white" transform="translate(0.400024 0.969818)"/>
</clipPath>
</defs>
</svg>
