<svg width="28" height="28" viewBox="0 0 28 28" fill="none" xmlns="http://www.w3.org/2000/svg">
<path d="M23 19.5C22.1716 19.5 21.5 18.8284 21.5 18V13.138C21.6193 9.21437 18.8594 5.78997 15 5.073V3C15 2.44772 14.5523 2 14 2C13.4477 2 13 2.44772 13 3V5.073C9.14059 5.78997 6.38069 9.21437 6.5 13.138V18C6.5 18.8284 5.82843 19.5 5 19.5C4.44772 19.5 4 19.9477 4 20.5C4 21.0523 4.44772 21.5 5 21.5H23C23.5523 21.5 24 21.0523 24 20.5C24 19.9477 23.5523 19.5 23 19.5Z" fill="currentColor"/>
<path d="M16.236 23H11.764C11.6369 23.0002 11.5302 23.0957 11.516 23.222C11.5051 23.3143 11.4998 23.4071 11.5 23.5C11.5 24.8807 12.6193 26 14 26C15.3807 26 16.5 24.8807 16.5 23.5C16.5002 23.4071 16.4949 23.3143 16.484 23.222C16.4707 23.0953 16.3634 22.9993 16.236 23Z" fill="currentColor"/>
</svg>
