<svg width="28" height="28" viewBox="0 0 28 28" fill="none" xmlns="http://www.w3.org/2000/svg">
<path d="M11.8104 19.886C11.7817 19.8008 11.7096 19.7375 11.6214 19.72C11.2774 19.653 10.9354 19.576 10.5974 19.479C10.3792 19.4163 10.1461 19.4297 9.93644 19.517L6.28844 21.037C6.19691 21.0751 6.09155 21.0554 6.01986 20.987C5.94817 20.9186 5.92368 20.8142 5.95744 20.721L6.80744 18.382C6.94778 17.9972 6.8392 17.5656 6.53344 17.293C4.97223 15.9945 4.04777 14.0851 3.99744 12.055C3.99744 7.69703 8.48344 4.15503 13.9974 4.15503C19.5114 4.15503 23.9974 7.70103 23.9974 12.055C23.994 12.4006 23.9606 12.7452 23.8974 13.085C23.8768 13.2065 23.9476 13.3249 24.0644 13.364C24.5362 13.5254 24.9814 13.7559 25.3854 14.048C25.4532 14.0966 25.5408 14.1082 25.6189 14.0789C25.697 14.0496 25.7554 13.9832 25.7744 13.902C25.9195 13.297 25.9943 12.6772 25.9974 12.055C25.9974 6.59403 20.6154 2.15503 13.9974 2.15503C7.37944 2.15503 1.99744 6.59403 1.99744 12.055C2.03008 14.4189 3.00443 16.6721 4.70444 18.315L3.10444 22.715C2.96853 23.0882 3.06628 23.5063 3.35351 23.7806C3.64073 24.0548 4.063 24.1331 4.42944 23.98L10.3874 21.497C11.1054 21.6843 11.837 21.815 12.5754 21.888C12.6772 21.8981 12.7748 21.8452 12.8219 21.7545C12.8691 21.6638 12.8562 21.5535 12.7894 21.476C12.3553 21.0205 12.0217 20.4788 11.8104 19.886Z" fill="currentColor"/>
<path d="M23.0364 14.649C21.9172 14.4607 20.7764 14.8289 19.9784 15.636L19.4974 16.118L19.0154 15.636C17.6348 14.2907 15.4298 14.3034 14.0648 15.6645C12.6998 17.0257 12.6809 19.2307 14.0224 20.615L19.1354 25.949C19.2297 26.0477 19.3603 26.1036 19.4969 26.1036C19.6334 26.1036 19.764 26.0477 19.8584 25.949L24.9644 20.627C25.8998 19.6912 26.2325 18.3104 25.8261 17.0512C25.4196 15.792 24.3424 14.8663 23.0364 14.654V14.649Z" fill="currentColor"/>
</svg>
