<svg width="28" height="28" viewBox="0 0 28 28" fill="none" xmlns="http://www.w3.org/2000/svg">
<path d="M5.00873 14.895C5.19619 14.8948 5.37045 14.8052 5.47018 14.6577L6.57091 13.0287C6.89408 12.5111 7.49962 12.203 8.14291 12.2288C8.77582 12.2547 9.34717 12.5887 9.64618 13.1077L10.6455 14.7713C10.6962 14.856 10.7947 14.9064 10.8989 14.901C11.0031 14.8956 11.0949 14.8354 11.1353 14.7459L12.8807 10.8643C13.1751 10.1655 13.931 9.73159 14.7353 9.7999C15.5165 9.90071 16.1469 10.444 16.3138 11.1603L17.7636 16.7947C17.7905 16.9017 17.889 16.9801 18.0069 16.9883C18.1244 16.9974 18.2349 16.9352 18.2807 16.8342L18.6702 15.9685C18.9406 15.3313 19.5969 14.9078 20.3338 14.895H24.4727C24.6948 14.8954 24.895 14.7707 24.9789 14.5797C25.6216 13.192 25.9684 11.7016 26 10.1912C26 5.51381 23.0807 3.21262 20.1876 3.00683C17.6229 2.89449 15.2535 4.27599 14.2465 6.47078C14.2008 6.55868 14.1051 6.61453 14 6.61453C13.8949 6.61453 13.7992 6.55868 13.7535 6.47078C12.7501 4.27318 10.3783 2.8903 7.81236 3.00683C4.91927 3.21262 2 5.51381 2 10.1912C2.03159 11.7016 2.37837 13.192 3.02109 14.5797C3.10488 14.7704 3.30452 14.895 3.52618 14.895H5.00873Z" fill="currentColor"/>
<path d="M20.971 16.9225C20.7512 16.9226 20.5529 17.0452 20.4681 17.2337L19.5277 19.3199C19.2589 19.9576 18.603 20.3818 17.8662 20.3945C17.8017 20.3942 17.7373 20.3908 17.6732 20.3844C16.8921 20.2837 16.2619 19.7403 16.0957 19.0239L14.6459 13.3896C14.6185 13.2828 14.5202 13.2045 14.4024 13.1958C14.2846 13.187 14.1742 13.2497 14.1288 13.351L12.6321 16.6731C12.3787 17.2714 11.7831 17.6851 11.0939 17.7416C10.3936 17.7864 9.73108 17.4423 9.40516 16.8647L8.28807 15.0045C8.24129 14.9262 8.15355 14.8767 8.05725 14.8742C7.96095 14.8717 7.87037 14.9166 7.81897 14.9923L7.05534 16.1196C6.73459 16.6118 6.16257 16.9148 5.54334 16.9204H5.23897C5.03934 16.9205 4.85569 17.0219 4.76019 17.1848C4.66468 17.3477 4.67259 17.5461 4.78079 17.702C7.04916 20.9213 9.97986 23.6922 13.4044 25.8555C13.7748 26.0482 14.2264 26.0482 14.5968 25.8555C18.0194 23.6921 20.9482 20.9216 23.215 17.703C23.3232 17.5471 23.3311 17.3487 23.2356 17.1858C23.1401 17.0229 22.9564 16.9215 22.7568 16.9214L20.971 16.9225Z" fill="currentColor"/>
</svg>
