<svg width="28" height="28" viewBox="0 0 28 28" fill="none" xmlns="http://www.w3.org/2000/svg">
<path d="M3.91662 14.3579L3.91661 14.3579C3.82238 14.454 3.74784 14.5679 3.69705 14.6929C3.64626 14.818 3.62017 14.9518 3.62017 15.087C3.62017 15.2221 3.64626 15.3559 3.69705 15.481C3.74784 15.606 3.82238 15.7199 3.91661 15.816C4.01085 15.9121 4.12294 15.9885 4.24658 16.0407C4.37024 16.093 4.50291 16.1199 4.63699 16.1199C4.77107 16.1199 4.90374 16.093 5.0274 16.0407C5.15104 15.9885 5.26313 15.9121 5.35737 15.816L15.8597 5.10621C16.6776 4.31599 17.7657 3.88457 18.8907 3.90329C20.0166 3.92203 21.0912 4.39012 21.8836 5.20838C22.6762 6.02676 23.1232 7.13018 23.1274 8.28197C23.1317 9.43331 22.6933 10.5398 21.9075 11.3642C21.9071 11.3645 21.9068 11.3648 21.9065 11.3651L9.30374 24.2168C8.65052 24.8047 8.03025 25.1105 7.46206 25.136C6.89753 25.1613 6.27928 24.9216 5.5948 24.323C5.32336 24.0502 5.1081 23.7244 4.96197 23.3648C4.84626 23.0557 4.80657 22.7222 4.8465 22.3936L4.84658 22.3929C4.90182 21.9257 5.06942 21.4799 5.33418 21.0951C5.65184 20.6547 6.00749 20.2442 6.39687 19.8685L6.39692 19.8686L6.40076 19.8647L18.1138 7.92851C18.1138 7.92846 18.1139 7.92841 18.1139 7.92836C18.2577 7.78245 18.4514 7.70126 18.6526 7.70126C18.8532 7.70126 19.0465 7.78204 19.1902 7.92726C19.3266 8.07134 19.4052 8.26347 19.4091 8.46529C19.4129 8.66596 19.3426 8.86009 19.213 9.00925L9.11186 19.314C9.11185 19.314 9.11184 19.314 9.11183 19.314C9.01761 19.4101 8.94308 19.524 8.89229 19.649C8.84151 19.774 8.81541 19.9079 8.81541 20.043C8.81541 20.1781 8.84151 20.312 8.89229 20.437C8.94308 20.5621 9.01763 20.6759 9.11186 20.772C9.2061 20.8681 9.31819 20.9446 9.44183 20.9968C9.56549 21.049 9.69816 21.076 9.83224 21.076C9.96632 21.076 10.099 21.049 10.2226 20.9968C10.3463 20.9446 10.4584 20.8681 10.5526 20.7721C10.5526 20.7721 10.5526 20.772 10.5526 20.772L20.6358 10.4937L20.6361 10.494L20.6438 10.4851L20.6896 10.4326C21.1895 9.89454 21.4632 9.17958 21.4536 8.43991C21.444 7.6991 21.151 6.99069 20.6358 6.466L20.6179 6.44776L20.6163 6.4462C20.0894 5.92064 19.3797 5.62729 18.6409 5.63099C17.9022 5.63469 17.1954 5.93511 16.6735 6.4659L16.6733 6.46611L4.96799 18.4066C4.48654 18.8708 4.04944 19.3804 3.66255 19.9287L3.66129 19.9306C3.20758 20.589 2.92179 21.3519 2.82934 22.1505C2.74834 22.8125 2.82977 23.4847 3.06646 24.1068L3.06645 24.1068L3.06715 24.1086C3.31682 24.7463 3.69475 25.324 4.17683 25.8042C4.1771 25.8045 4.17738 25.8048 4.17765 25.8051L4.2059 25.8339L4.21129 25.8394L4.21708 25.8444L4.23018 25.8559C4.23035 25.856 4.23053 25.8562 4.23071 25.8563C5.3116 26.812 6.43159 27.2453 7.54181 27.1957C8.64875 27.1463 9.68455 26.6344 10.6593 25.7571L10.6593 25.7571L10.6615 25.7551L10.7273 25.694L10.7275 25.6942L10.7342 25.6874L23.3492 12.8191L23.3505 12.8178C24.5162 11.6064 25.167 9.97672 25.1635 8.28113C25.16 6.58554 24.5025 4.95868 23.3319 3.75224C22.1611 2.54568 20.571 1.85654 18.9049 1.83501C17.2388 1.81349 15.6321 2.46133 14.4316 3.63732L14.4316 3.6373L14.4288 3.64015L3.91662 14.3579Z" fill="white" stroke="white" stroke-width="0.4"/>
</svg>
