<svg width="28" height="28" viewBox="0 0 28 28" fill="none" xmlns="http://www.w3.org/2000/svg">
<path fill-rule="evenodd" clip-rule="evenodd" d="M21.8947 11.5H21.1053V8.75C21.1053 5.02208 17.9241 2 14 2C10.0759 2 6.89474 5.02208 6.89474 8.75V11.5H6.10526C4.94256 11.5 4 12.3954 4 13.5V24C4 25.1046 4.94256 26 6.10526 26H21.8947C23.0574 26 24 25.1046 24 24V13.5C24 12.3954 23.0574 11.5 21.8947 11.5ZM11.8948 17.5C11.8901 16.5283 12.6214 15.694 13.6282 15.5224C14.635 15.3508 15.6259 15.8915 15.9772 16.8041C16.3285 17.7167 15.9385 18.7371 15.0527 19.223V21.5C15.0527 22.0523 14.5814 22.5 14 22.5C13.4187 22.5 12.9474 22.0523 12.9474 21.5V19.223C12.298 18.8683 11.8969 18.2116 11.8948 17.5ZM14 4.5C11.5293 4.5 9.52632 6.40279 9.52632 8.75V11C9.52632 11.2761 9.76196 11.5 10.0526 11.5H17.9474C18.238 11.5 18.4737 11.2761 18.4737 11V8.75C18.4737 6.40279 16.4707 4.5 14 4.5Z" fill="currentColor"/>
</svg>
