<svg width="28" height="28" viewBox="0 0 28 28" fill="none" xmlns="http://www.w3.org/2000/svg">
<path fill-rule="evenodd" clip-rule="evenodd" d="M23.1546 11.312L24.4206 11.761C25.3671 12.0979 25.9992 12.9939 25.9992 13.9985C25.9992 15.0032 25.3671 15.8992 24.4206 16.236L23.1546 16.687C22.7883 16.8174 22.4943 17.0969 22.3457 17.4562C22.197 17.8155 22.2075 18.2209 22.3746 18.572L22.9506 19.785C23.3811 20.6927 23.1943 21.773 22.484 22.4834C21.7736 23.1937 20.6933 23.3806 19.7856 22.95L18.5726 22.374C18.2215 22.2069 17.8161 22.1964 17.4568 22.3451C17.0975 22.4938 16.818 22.7877 16.6876 23.154L16.2376 24.42C15.9002 25.3663 15.0042 25.9981 13.9996 25.9981C12.995 25.9981 12.099 25.3663 11.7616 24.42L11.3116 23.155C11.1817 22.7883 10.9024 22.4939 10.5429 22.345C10.1835 22.1961 9.77781 22.2066 9.42662 22.374L8.21362 22.95C7.30597 23.3806 6.22564 23.1937 5.51529 22.4834C4.80494 21.773 4.6181 20.6927 5.04862 19.785L5.62462 18.572C5.79174 18.2209 5.80226 17.8155 5.65359 17.4562C5.50491 17.0969 5.21096 16.8174 4.84462 16.687L3.57862 16.237C2.63214 15.9002 2 15.0042 2 13.9995C2 12.9949 2.63214 12.0989 3.57862 11.762L4.84462 11.312C5.21103 11.1815 5.50498 10.9018 5.65364 10.5423C5.8023 10.1829 5.79176 9.77729 5.62462 9.42604L5.04862 8.21305C4.6181 7.30539 4.80494 6.22506 5.51529 5.51471C6.22564 4.80437 7.30597 4.61753 8.21362 5.04805L9.42662 5.62505C9.77789 5.79179 10.1833 5.80201 10.5426 5.65317C10.9018 5.50434 11.1812 5.21036 11.3116 4.84405L11.7616 3.57805C12.099 2.6318 12.995 2 13.9996 2C15.0042 2 15.9002 2.6318 16.2376 3.57805L16.6876 4.84304C16.8178 5.20954 17.0972 5.50375 17.4564 5.65279C17.8157 5.80183 18.2212 5.79175 18.5726 5.62505L19.7856 5.04805C20.6933 4.61753 21.7736 4.80437 22.484 5.51471C23.1943 6.22506 23.3811 7.30539 22.9506 8.21305L22.3746 9.42604C22.2072 9.77725 22.1965 10.183 22.3451 10.5425C22.4938 10.9021 22.788 11.1817 23.1546 11.312ZM9.55862 15.839C10.3355 17.6047 12.0708 18.7551 13.9996 18.783C14.6301 18.796 15.2564 18.6789 15.8396 18.439C18.2894 17.42 19.4524 14.6105 18.4396 12.158C17.3979 9.73099 14.6109 8.57732 12.1586 9.55804C9.70881 10.5771 8.54583 13.3866 9.55862 15.839Z" fill="currentColor"/>
</svg>
