<svg width="28" height="28" viewBox="0 0 28 28" fill="none" xmlns="http://www.w3.org/2000/svg">
<path d="M15.6734 10.0665C15.6734 9.62222 15.3132 9.26204 14.8689 9.26204H8.43308C7.98878 9.26204 7.6286 9.62222 7.6286 10.0665C7.6286 10.5108 7.98878 10.871 8.43308 10.871H14.8689C15.3132 10.871 15.6734 10.5108 15.6734 10.0665Z" fill="currentColor"/>
<path d="M15.6734 13.9992C15.6734 13.5549 15.3132 13.1947 14.8689 13.1947H8.43308C7.98878 13.1947 7.6286 13.5549 7.6286 13.9992C7.6286 14.4435 7.98878 14.8037 8.43308 14.8037H14.8689C15.3132 14.8037 15.6734 14.4435 15.6734 13.9992Z" fill="currentColor"/>
<path d="M15.6734 18.4686C15.6734 18.0243 15.3132 17.6641 14.8689 17.6641H8.43308C7.98878 17.6641 7.6286 18.0243 7.6286 18.4686C7.6286 18.9129 7.98878 19.2731 8.43308 19.2731H14.8689C15.3132 19.2731 15.6734 18.9129 15.6734 18.4686Z" fill="currentColor"/>
<path d="M12.0281 21.3082C12.1023 21.3062 12.1737 21.3367 12.2234 21.3919C12.2068 21.6391 12.062 22.2451 11.615 22.6921C11.1681 23.139 10.8754 24.0628 10.7849 24.4689L3.60616 24.5471C2.71755 24.5471 1.99719 23.8267 1.99719 22.9381V4.7033C1.99719 3.8147 2.71755 3.09434 3.60616 3.09434H7.89673C7.9875 3.09288 8.07074 3.04351 8.11555 2.96456C8.85459 1.71553 10.1981 0.949417 11.6494 0.949417C13.1007 0.949417 14.4442 1.71553 15.1832 2.96456C15.2286 3.0445 15.3133 3.09402 15.4052 3.09434H19.6958C20.5844 3.09434 21.3048 3.8147 21.3048 4.7033V11.7914L18.0868 14.6847C18.0868 14.6847 18.089 12.7005 18.0868 12.5743V6.84857C18.0868 6.55237 17.8467 6.31225 17.5505 6.31225H5.75144C5.45524 6.31225 5.21512 6.55237 5.21512 6.84857V20.7928C5.21512 21.089 5.45524 21.3292 5.75144 21.3292L12.0281 21.3082Z" fill="currentColor"/>
<path d="M21.2002 14.0183L14.2281 20.9904C14.0187 21.1998 14.0187 21.5393 14.2281 21.7487L17.446 24.9666C17.6554 25.176 17.9949 25.176 18.2044 24.9666L25.1765 17.9945C26.2745 16.8965 26.2745 15.1163 25.1765 14.0183C24.0785 12.9202 22.2982 12.9202 21.2002 14.0183Z" fill="currentColor"/>
<path d="M13.547 23.3438C13.4071 23.2044 13.2021 23.1531 13.0131 23.2103C12.8242 23.2675 12.6819 23.4238 12.6427 23.6173L12.0667 26.4973C12.0316 26.6728 12.0863 26.8542 12.2126 26.9811C12.3394 27.1081 12.5214 27.1633 12.6974 27.128L15.5764 26.552C15.7705 26.5134 15.9276 26.371 15.985 26.1817C16.0425 25.9923 15.9909 25.7866 15.851 25.6467L13.547 23.3438Z" fill="currentColor"/>
</svg>
