<svg width="271" height="49" viewBox="0 0 271 49" fill="none" xmlns="http://www.w3.org/2000/svg">
<path d="M104.5 9.67139C104.5 8.56787 104.646 7.5083 104.939 6.49268C105.237 5.47705 105.679 4.5542 106.265 3.72412C106.851 2.89404 107.458 2.30811 108.088 1.96631L108.367 2.85986C107.654 3.40674 107.068 4.2417 106.609 5.36475C106.155 6.48779 105.906 7.74512 105.862 9.13672L105.854 9.75928C105.854 11.644 106.199 13.2798 106.887 14.6665C107.302 15.4966 107.795 16.146 108.367 16.6147L108.088 17.4424C107.439 17.0811 106.819 16.4756 106.228 15.626C105.076 13.9658 104.5 11.981 104.5 9.67139ZM117.694 12.1323L119.218 6.0752H120.573L118.266 14H117.167L115.241 7.99414L113.366 14H112.267L109.967 6.0752H111.315L112.875 12.0078L114.721 6.0752H115.812L117.694 12.1323ZM126.246 14.1465C125.171 14.1465 124.297 13.7949 123.624 13.0918C122.95 12.3838 122.613 11.439 122.613 10.2573V10.0083C122.613 9.22217 122.762 8.52148 123.06 7.90625C123.362 7.28613 123.782 6.80273 124.319 6.45605C124.861 6.10449 125.447 5.92871 126.077 5.92871C127.107 5.92871 127.908 6.26807 128.479 6.94678C129.051 7.62549 129.336 8.59717 129.336 9.86182V10.4258H123.968C123.987 11.207 124.214 11.8394 124.649 12.3228C125.088 12.8013 125.645 13.0405 126.319 13.0405C126.797 13.0405 127.203 12.9429 127.535 12.7476C127.867 12.5522 128.157 12.2935 128.406 11.9712L129.234 12.6157C128.57 13.6362 127.574 14.1465 126.246 14.1465ZM126.077 7.04199C125.53 7.04199 125.071 7.24219 124.7 7.64258C124.329 8.03809 124.1 8.59473 124.012 9.3125H127.981V9.20996C127.942 8.52148 127.757 7.98926 127.425 7.61328C127.093 7.23242 126.644 7.04199 126.077 7.04199ZM133.383 14H132.028V6.0752H133.383V14ZM131.918 3.97314C131.918 3.75342 131.984 3.56787 132.116 3.4165C132.253 3.26514 132.453 3.18945 132.717 3.18945C132.98 3.18945 133.181 3.26514 133.317 3.4165C133.454 3.56787 133.522 3.75342 133.522 3.97314C133.522 4.19287 133.454 4.37598 133.317 4.52246C133.181 4.66895 132.98 4.74219 132.717 4.74219C132.453 4.74219 132.253 4.66895 132.116 4.52246C131.984 4.37598 131.918 4.19287 131.918 3.97314ZM136.236 9.97168C136.236 8.73633 136.522 7.75488 137.093 7.02734C137.665 6.29492 138.421 5.92871 139.364 5.92871C140.331 5.92871 141.085 6.27051 141.627 6.9541L141.693 6.0752H142.931V13.8096C142.931 14.835 142.625 15.6431 142.015 16.2339C141.41 16.8247 140.594 17.1201 139.569 17.1201C138.998 17.1201 138.438 16.998 137.892 16.7539C137.345 16.5098 136.927 16.1753 136.639 15.7505L137.342 14.9375C137.923 15.6553 138.634 16.0142 139.474 16.0142C140.133 16.0142 140.646 15.8286 141.012 15.4575C141.383 15.0864 141.568 14.564 141.568 13.8901V13.209C141.026 13.834 140.287 14.1465 139.349 14.1465C138.421 14.1465 137.669 13.7729 137.093 13.0259C136.522 12.2788 136.236 11.2607 136.236 9.97168ZM137.599 10.1255C137.599 11.019 137.782 11.7222 138.148 12.2349C138.514 12.7427 139.027 12.9966 139.686 12.9966C140.541 12.9966 141.168 12.6084 141.568 11.832V8.21387C141.153 7.45703 140.531 7.07861 139.701 7.07861C139.042 7.07861 138.526 7.33496 138.155 7.84766C137.784 8.36035 137.599 9.11963 137.599 10.1255ZM147.336 7.03467C147.937 6.29736 148.718 5.92871 149.68 5.92871C151.355 5.92871 152.2 6.87354 152.214 8.76318V14H150.859V8.75586C150.854 8.18457 150.723 7.76221 150.464 7.48877C150.21 7.21533 149.812 7.07861 149.27 7.07861C148.831 7.07861 148.445 7.1958 148.113 7.43018C147.781 7.66455 147.522 7.97217 147.336 8.35303V14H145.981V2.75H147.336V7.03467ZM157.082 4.15625V6.0752H158.561V7.12256H157.082V12.0371C157.082 12.3545 157.147 12.5938 157.279 12.7549C157.411 12.9111 157.636 12.9893 157.953 12.9893C158.109 12.9893 158.324 12.96 158.598 12.9014V14C158.241 14.0977 157.895 14.1465 157.558 14.1465C156.952 14.1465 156.496 13.9634 156.188 13.5972C155.88 13.231 155.727 12.7109 155.727 12.0371V7.12256H154.284V6.0752H155.727V4.15625H157.082ZM161.099 9.67139C161.099 8.56787 161.246 7.5083 161.539 6.49268C161.836 5.47705 162.278 4.5542 162.864 3.72412C163.45 2.89404 164.058 2.30811 164.688 1.96631L164.966 2.85986C164.253 3.40674 163.667 4.2417 163.208 5.36475C162.754 6.48779 162.505 7.74512 162.461 9.13672L162.454 9.75928C162.454 11.644 162.798 13.2798 163.487 14.6665C163.902 15.4966 164.395 16.146 164.966 16.6147L164.688 17.4424C164.039 17.0811 163.418 16.4756 162.828 15.626C161.675 13.9658 161.099 11.981 161.099 9.67139ZM169.489 10.3306L168.64 11.2168V14H167.285V2.75H168.64V9.5542L169.365 8.68262L171.833 6.0752H173.481L170.397 9.38574L173.84 14H172.25L169.489 10.3306ZM175.411 9.97168C175.411 8.73633 175.697 7.75488 176.268 7.02734C176.839 6.29492 177.596 5.92871 178.539 5.92871C179.505 5.92871 180.26 6.27051 180.802 6.9541L180.868 6.0752H182.105V13.8096C182.105 14.835 181.8 15.6431 181.19 16.2339C180.584 16.8247 179.769 17.1201 178.744 17.1201C178.172 17.1201 177.613 16.998 177.066 16.7539C176.52 16.5098 176.102 16.1753 175.814 15.7505L176.517 14.9375C177.098 15.6553 177.809 16.0142 178.648 16.0142C179.308 16.0142 179.82 15.8286 180.187 15.4575C180.558 15.0864 180.743 14.564 180.743 13.8901V13.209C180.201 13.834 179.461 14.1465 178.524 14.1465C177.596 14.1465 176.844 13.7729 176.268 13.0259C175.697 12.2788 175.411 11.2607 175.411 9.97168ZM176.773 10.1255C176.773 11.019 176.957 11.7222 177.323 12.2349C177.689 12.7427 178.202 12.9966 178.861 12.9966C179.715 12.9966 180.343 12.6084 180.743 11.832V8.21387C180.328 7.45703 179.706 7.07861 178.875 7.07861C178.216 7.07861 177.701 7.33496 177.33 7.84766C176.959 8.36035 176.773 9.11963 176.773 10.1255ZM188.284 9.74463C188.284 10.8335 188.14 11.8784 187.852 12.8794C187.568 13.8755 187.131 14.7959 186.541 15.6406C185.955 16.4854 185.339 17.0859 184.695 17.4424L184.409 16.6147C185.161 16.0386 185.764 15.145 186.218 13.9341C186.677 12.7183 186.912 11.3706 186.921 9.89111V9.65674C186.921 8.63135 186.814 7.6792 186.599 6.80029C186.384 5.9165 186.084 5.12549 185.698 4.42725C185.317 3.729 184.888 3.18457 184.409 2.79395L184.695 1.96631C185.339 2.32275 185.952 2.91846 186.533 3.75342C187.119 4.58838 187.556 5.50879 187.844 6.51465C188.137 7.52051 188.284 8.59717 188.284 9.74463ZM197.483 6.80029L195.271 6.14111L195.608 5.03516L197.82 5.85547L197.754 3.33594H198.875L198.802 5.89209L200.977 5.08643L201.314 6.19971L199.065 6.86621L200.516 8.85107L199.607 9.53955L198.245 7.43018L196.927 9.48828L196.011 8.82178L197.483 6.80029ZM213.854 10.4185H215.333V11.5244H213.854V14H212.491V11.5244H207.635V10.7261L212.411 3.33594H213.854V10.4185ZM209.173 10.4185H212.491V5.18896L212.33 5.48193L209.173 10.4185ZM220.823 9.74463C220.823 10.8335 220.679 11.8784 220.391 12.8794C220.107 13.8755 219.67 14.7959 219.08 15.6406C218.494 16.4854 217.878 17.0859 217.234 17.4424L216.948 16.6147C217.7 16.0386 218.303 15.145 218.757 13.9341C219.216 12.7183 219.451 11.3706 219.46 9.89111V9.65674C219.46 8.63135 219.353 7.6792 219.138 6.80029C218.923 5.9165 218.623 5.12549 218.237 4.42725C217.856 3.729 217.427 3.18457 216.948 2.79395L217.234 1.96631C217.878 2.32275 218.491 2.91846 219.072 3.75342C219.658 4.58838 220.095 5.50879 220.383 6.51465C220.676 7.52051 220.823 8.59717 220.823 9.74463ZM232.513 8.27979H235.486V9.56152H232.513V12.9307H231.15V9.56152H228.177V8.27979H231.15V5.16699H232.513V8.27979ZM249.608 4.09766L245.191 14H243.771L248.172 4.44922H242.401V3.33594H249.608V4.09766ZM255.413 9.74463C255.413 10.8335 255.269 11.8784 254.98 12.8794C254.697 13.8755 254.26 14.7959 253.669 15.6406C253.083 16.4854 252.468 17.0859 251.824 17.4424L251.538 16.6147C252.29 16.0386 252.893 15.145 253.347 13.9341C253.806 12.7183 254.041 11.3706 254.05 9.89111V9.65674C254.05 8.63135 253.943 7.6792 253.728 6.80029C253.513 5.9165 253.213 5.12549 252.827 4.42725C252.446 3.729 252.017 3.18457 251.538 2.79395L251.824 1.96631C252.468 2.32275 253.081 2.91846 253.662 3.75342C254.248 4.58838 254.685 5.50879 254.973 6.51465C255.266 7.52051 255.413 8.59717 255.413 9.74463Z" fill="#0B247A"/>
<path d="M90 21H270" stroke="#0B247A" stroke-width="1.5" stroke-linecap="round"/>
<path d="M124.289 37C123.987 37.3594 123.625 37.6484 123.203 37.8672C122.786 38.0859 122.328 38.1953 121.828 38.1953C121.172 38.1953 120.599 38.0339 120.109 37.7109C119.625 37.388 119.25 36.9349 118.984 36.3516C118.719 35.763 118.586 35.1146 118.586 34.4062C118.586 33.6458 118.729 32.9609 119.016 32.3516C119.307 31.7422 119.719 31.276 120.25 30.9531C120.781 30.6302 121.401 30.4688 122.109 30.4688C123.234 30.4688 124.12 30.8906 124.766 31.7344C125.417 32.5729 125.742 33.7188 125.742 35.1719V35.5938C125.742 37.8073 125.305 39.4245 124.43 40.4453C123.555 41.4609 122.234 41.9818 120.469 42.0078H120.188V40.7891H120.492C121.685 40.7682 122.602 40.4583 123.242 39.8594C123.883 39.2552 124.232 38.3021 124.289 37ZM122.062 37C122.547 37 122.992 36.8516 123.398 36.5547C123.81 36.2578 124.109 35.8906 124.297 35.4531V34.875C124.297 33.9271 124.091 33.1562 123.68 32.5625C123.268 31.9688 122.747 31.6719 122.117 31.6719C121.482 31.6719 120.971 31.9167 120.586 32.4062C120.201 32.8906 120.008 33.5312 120.008 34.3281C120.008 35.1042 120.193 35.7448 120.562 36.25C120.938 36.75 121.438 37 122.062 37ZM135.867 37.1484C135.867 38.8411 135.578 40.099 135 40.9219C134.422 41.7448 133.518 42.1562 132.289 42.1562C131.076 42.1562 130.177 41.7552 129.594 40.9531C129.01 40.1458 128.708 38.9427 128.688 37.3438V35.4141C128.688 33.7422 128.977 32.5 129.555 31.6875C130.133 30.875 131.039 30.4688 132.273 30.4688C133.497 30.4688 134.398 30.862 134.977 31.6484C135.555 32.4297 135.852 33.638 135.867 35.2734V37.1484ZM134.422 35.1719C134.422 33.9479 134.25 33.0573 133.906 32.5C133.562 31.9375 133.018 31.6562 132.273 31.6562C131.534 31.6562 130.995 31.9349 130.656 32.4922C130.318 33.0495 130.143 33.9062 130.133 35.0625V37.375C130.133 38.6042 130.31 39.513 130.664 40.1016C131.023 40.6849 131.565 40.9766 132.289 40.9766C133.003 40.9766 133.531 40.7005 133.875 40.1484C134.224 39.5964 134.406 38.7266 134.422 37.5391V35.1719ZM147.977 35.8984H151.148V37.2656H147.977V40.8594H146.523V37.2656H143.352V35.8984H146.523V32.5781H147.977V35.8984ZM166.367 40.0078L167.992 33.5469H169.438L166.977 42H165.805L163.75 35.5938L161.75 42H160.578L158.125 33.5469H159.562L161.227 39.875L163.195 33.5469H164.359L166.367 40.0078ZM175.422 42.1562C174.276 42.1562 173.344 41.7812 172.625 41.0312C171.906 40.276 171.547 39.2682 171.547 38.0078V37.7422C171.547 36.9036 171.706 36.1562 172.023 35.5C172.346 34.8385 172.794 34.3229 173.367 33.9531C173.945 33.5781 174.57 33.3906 175.242 33.3906C176.341 33.3906 177.195 33.7526 177.805 34.4766C178.414 35.2005 178.719 36.237 178.719 37.5859V38.1875H172.992C173.013 39.0208 173.255 39.6953 173.719 40.2109C174.188 40.7214 174.781 40.9766 175.5 40.9766C176.01 40.9766 176.443 40.8724 176.797 40.6641C177.151 40.4557 177.461 40.1797 177.727 39.8359L178.609 40.5234C177.901 41.612 176.839 42.1562 175.422 42.1562ZM175.242 34.5781C174.659 34.5781 174.169 34.7917 173.773 35.2188C173.378 35.6406 173.133 36.2344 173.039 37H177.273V36.8906C177.232 36.1562 177.034 35.5885 176.68 35.1875C176.326 34.7812 175.846 34.5781 175.242 34.5781ZM182.969 42H181.523V33.5469H182.969V42ZM181.406 31.3047C181.406 31.0703 181.477 30.8724 181.617 30.7109C181.763 30.5495 181.977 30.4688 182.258 30.4688C182.539 30.4688 182.753 30.5495 182.898 30.7109C183.044 30.8724 183.117 31.0703 183.117 31.3047C183.117 31.5391 183.044 31.7344 182.898 31.8906C182.753 32.0469 182.539 32.125 182.258 32.125C181.977 32.125 181.763 32.0469 181.617 31.8906C181.477 31.7344 181.406 31.5391 181.406 31.3047ZM185.945 37.7031C185.945 36.3854 186.25 35.3385 186.859 34.5625C187.469 33.7812 188.276 33.3906 189.281 33.3906C190.312 33.3906 191.117 33.7552 191.695 34.4844L191.766 33.5469H193.086V41.7969C193.086 42.8906 192.76 43.7526 192.109 44.3828C191.464 45.013 190.594 45.3281 189.5 45.3281C188.891 45.3281 188.294 45.1979 187.711 44.9375C187.128 44.6771 186.682 44.3203 186.375 43.8672L187.125 43C187.745 43.7656 188.503 44.1484 189.398 44.1484C190.102 44.1484 190.648 43.9505 191.039 43.5547C191.435 43.1589 191.633 42.6016 191.633 41.8828V41.1562C191.055 41.8229 190.266 42.1562 189.266 42.1562C188.276 42.1562 187.474 41.7578 186.859 40.9609C186.25 40.1641 185.945 39.0781 185.945 37.7031ZM187.398 37.8672C187.398 38.8203 187.594 39.5703 187.984 40.1172C188.375 40.6589 188.922 40.9297 189.625 40.9297C190.536 40.9297 191.206 40.5156 191.633 39.6875V35.8281C191.19 35.0208 190.526 34.6172 189.641 34.6172C188.938 34.6172 188.388 34.8906 187.992 35.4375C187.596 35.9844 187.398 36.7943 187.398 37.8672ZM197.719 34.5703C198.359 33.7839 199.193 33.3906 200.219 33.3906C202.005 33.3906 202.906 34.3984 202.922 36.4141V42H201.477V36.4062C201.471 35.7969 201.331 35.3464 201.055 35.0547C200.784 34.763 200.359 34.6172 199.781 34.6172C199.312 34.6172 198.901 34.7422 198.547 34.9922C198.193 35.2422 197.917 35.5703 197.719 35.9766V42H196.273V30H197.719V34.5703ZM208.047 31.5V33.5469H209.625V34.6641H208.047V39.9062C208.047 40.2448 208.117 40.5 208.258 40.6719C208.398 40.8385 208.638 40.9219 208.977 40.9219C209.143 40.9219 209.372 40.8906 209.664 40.8281V42C209.284 42.1042 208.914 42.1562 208.555 42.1562C207.909 42.1562 207.422 41.9609 207.094 41.5703C206.766 41.1797 206.602 40.625 206.602 39.9062V34.6641H205.062V33.5469H206.602V31.5H208.047ZM212.266 37.3828C212.266 36.2057 212.422 35.0755 212.734 33.9922C213.052 32.9089 213.523 31.9245 214.148 31.0391C214.773 30.1536 215.422 29.5286 216.094 29.1641L216.391 30.1172C215.63 30.7005 215.005 31.5911 214.516 32.7891C214.031 33.987 213.766 35.3281 213.719 36.8125L213.711 37.4766C213.711 39.487 214.078 41.2318 214.812 42.7109C215.255 43.5964 215.781 44.2891 216.391 44.7891L216.094 45.6719C215.401 45.2865 214.74 44.6406 214.109 43.7344C212.88 41.9635 212.266 39.8464 212.266 37.3828ZM221.148 38.0859L220.242 39.0312V42H218.797V30H220.242V37.2578L221.016 36.3281L223.648 33.5469H225.406L222.117 37.0781L225.789 42H224.094L221.148 38.0859ZM227.398 37.7031C227.398 36.3854 227.703 35.3385 228.312 34.5625C228.922 33.7812 229.729 33.3906 230.734 33.3906C231.766 33.3906 232.57 33.7552 233.148 34.4844L233.219 33.5469H234.539V41.7969C234.539 42.8906 234.214 43.7526 233.562 44.3828C232.917 45.013 232.047 45.3281 230.953 45.3281C230.344 45.3281 229.747 45.1979 229.164 44.9375C228.581 44.6771 228.135 44.3203 227.828 43.8672L228.578 43C229.198 43.7656 229.956 44.1484 230.852 44.1484C231.555 44.1484 232.102 43.9505 232.492 43.5547C232.888 43.1589 233.086 42.6016 233.086 41.8828V41.1562C232.508 41.8229 231.719 42.1562 230.719 42.1562C229.729 42.1562 228.927 41.7578 228.312 40.9609C227.703 40.1641 227.398 39.0781 227.398 37.7031ZM228.852 37.8672C228.852 38.8203 229.047 39.5703 229.438 40.1172C229.828 40.6589 230.375 40.9297 231.078 40.9297C231.99 40.9297 232.659 40.5156 233.086 39.6875V35.8281C232.643 35.0208 231.979 34.6172 231.094 34.6172C230.391 34.6172 229.841 34.8906 229.445 35.4375C229.049 35.9844 228.852 36.7943 228.852 37.8672ZM241.062 37.4609C241.062 38.6224 240.909 39.737 240.602 40.8047C240.299 41.8672 239.833 42.849 239.203 43.75C238.578 44.651 237.922 45.2917 237.234 45.6719L236.93 44.7891C237.732 44.1745 238.375 43.2214 238.859 41.9297C239.349 40.6328 239.599 39.1953 239.609 37.6172V37.3672C239.609 36.2734 239.495 35.2578 239.266 34.3203C239.036 33.3776 238.716 32.5339 238.305 31.7891C237.898 31.0443 237.44 30.4635 236.93 30.0469L237.234 29.1641C237.922 29.5443 238.576 30.1797 239.195 31.0703C239.82 31.9609 240.286 32.9427 240.594 34.0156C240.906 35.0885 241.062 36.237 241.062 37.4609Z" fill="#0B247A"/>
<path d="M1.23779 30V19.3359H4.72412C5.88135 19.3359 6.75049 19.5752 7.33154 20.0537C7.91748 20.5322 8.21045 21.2402 8.21045 22.1777C8.21045 22.6758 8.06885 23.1177 7.78564 23.5034C7.50244 23.8843 7.1167 24.1797 6.62842 24.3896C7.20459 24.5508 7.65869 24.8584 7.99072 25.3125C8.32764 25.7617 8.49609 26.2988 8.49609 26.9238C8.49609 27.8809 8.18604 28.6328 7.56592 29.1797C6.9458 29.7266 6.06934 30 4.93652 30H1.23779ZM2.64404 25.0122V28.8501H4.96582C5.62012 28.8501 6.13525 28.6816 6.51123 28.3447C6.89209 28.0029 7.08252 27.5342 7.08252 26.9385C7.08252 25.6543 6.38428 25.0122 4.98779 25.0122H2.64404ZM2.64404 23.8843H4.76807C5.3833 23.8843 5.87402 23.7305 6.24023 23.4229C6.61133 23.1152 6.79688 22.6978 6.79688 22.1704C6.79688 21.5845 6.62598 21.1597 6.28418 20.896C5.94238 20.6274 5.42236 20.4932 4.72412 20.4932H2.64404V23.8843ZM14.7256 25.2466C13.5195 24.8999 12.6406 24.4751 12.0889 23.9722C11.542 23.4644 11.2686 22.8394 11.2686 22.0972C11.2686 21.2573 11.603 20.564 12.272 20.0171C12.9458 19.4653 13.8198 19.1895 14.894 19.1895C15.6265 19.1895 16.2783 19.3311 16.8496 19.6143C17.4258 19.8975 17.8701 20.2881 18.1826 20.7861C18.5 21.2842 18.6587 21.8286 18.6587 22.4194H17.2451C17.2451 21.7749 17.04 21.2695 16.6299 20.9033C16.2197 20.5322 15.6411 20.3467 14.894 20.3467C14.2007 20.3467 13.6587 20.5005 13.2681 20.8081C12.8823 21.1108 12.6895 21.5332 12.6895 22.0752C12.6895 22.5098 12.8726 22.8784 13.2388 23.1812C13.6099 23.479 14.2373 23.7524 15.1211 24.0015C16.0098 24.2505 16.7031 24.5264 17.2012 24.8291C17.7041 25.127 18.0752 25.4761 18.3145 25.8765C18.5586 26.2769 18.6807 26.748 18.6807 27.29C18.6807 28.1543 18.3438 28.8477 17.6699 29.3701C16.9961 29.8877 16.0952 30.1465 14.9673 30.1465C14.2349 30.1465 13.5513 30.0073 12.9165 29.729C12.2817 29.4458 11.791 29.0601 11.4443 28.5718C11.1025 28.0835 10.9316 27.5293 10.9316 26.9092H12.3452C12.3452 27.5537 12.582 28.064 13.0557 28.4399C13.5342 28.811 14.1714 28.9966 14.9673 28.9966C15.7095 28.9966 16.2783 28.8452 16.6738 28.5425C17.0693 28.2397 17.2671 27.8271 17.2671 27.3047C17.2671 26.7822 17.084 26.3794 16.7178 26.0962C16.3516 25.8081 15.6875 25.5249 14.7256 25.2466ZM27.3784 27.2168H22.9106L21.9072 30H20.457L24.5293 19.3359H25.7598L29.8394 30H28.3965L27.3784 27.2168ZM23.3354 26.0596H26.9609L25.1445 21.0718L23.3354 26.0596ZM32.0112 25.6714C32.0112 24.5679 32.1577 23.5083 32.4507 22.4927C32.7485 21.4771 33.1904 20.5542 33.7764 19.7241C34.3623 18.894 34.9702 18.3081 35.6001 17.9663L35.8784 18.8599C35.1655 19.4067 34.5796 20.2417 34.1206 21.3647C33.6665 22.4878 33.4175 23.7451 33.3735 25.1367L33.3662 25.7593C33.3662 27.644 33.7104 29.2798 34.3989 30.6665C34.814 31.4966 35.3071 32.146 35.8784 32.6147L35.6001 33.4424C34.9507 33.0811 34.3306 32.4756 33.7397 31.626C32.5874 29.9658 32.0112 27.981 32.0112 25.6714ZM39.4639 22.0752L39.5005 22.9541C40.0815 22.2705 40.8652 21.9287 41.8516 21.9287C42.96 21.9287 43.7144 22.3535 44.1147 23.2031C44.3784 22.8223 44.7202 22.5146 45.1401 22.2803C45.5649 22.0459 46.0654 21.9287 46.6416 21.9287C48.3799 21.9287 49.2637 22.8491 49.293 24.6899V30H47.938V24.7705C47.938 24.2041 47.8086 23.7817 47.5498 23.5034C47.291 23.2202 46.8564 23.0786 46.2461 23.0786C45.7432 23.0786 45.3257 23.23 44.9937 23.5327C44.6616 23.8306 44.4688 24.2334 44.415 24.7412V30H43.0527V24.8071C43.0527 23.6548 42.4888 23.0786 41.3608 23.0786C40.4722 23.0786 39.8643 23.457 39.5371 24.2139V30H38.1821V22.0752H39.4639ZM56.3208 25.1147H51.9336V24.3237L54.1309 22.2583C54.6631 21.7603 54.9292 21.3428 54.9292 21.0059C54.9292 20.7666 54.8511 20.5737 54.6948 20.4272C54.5386 20.2759 54.314 20.2002 54.021 20.2002C53.6548 20.2002 53.3838 20.293 53.208 20.4785C53.0371 20.6641 52.9517 20.896 52.9517 21.1743H51.8018C51.8018 20.6177 52.0044 20.1587 52.4097 19.7974C52.8198 19.436 53.3472 19.2554 53.9917 19.2554C54.6362 19.2554 55.1465 19.4116 55.5225 19.7241C55.8984 20.0317 56.0864 20.4541 56.0864 20.9912C56.0864 21.499 55.8252 22.0142 55.3027 22.5366L54.6875 23.1152L53.3984 24.1772H56.3208V25.1147ZM61.979 25.7446C61.979 26.8335 61.835 27.8784 61.5469 28.8794C61.2637 29.8755 60.8267 30.7959 60.2358 31.6406C59.6499 32.4854 59.0347 33.0859 58.3901 33.4424L58.1045 32.6147C58.8564 32.0386 59.4595 31.145 59.9136 29.9341C60.3726 28.7183 60.6069 27.3706 60.6167 25.8911V25.6567C60.6167 24.6313 60.5093 23.6792 60.2944 22.8003C60.0796 21.9165 59.7793 21.1255 59.3936 20.4272C59.0127 19.729 58.583 19.1846 58.1045 18.7939L58.3901 17.9663C59.0347 18.3228 59.6475 18.9185 60.2285 19.7534C60.8145 20.5884 61.2515 21.5088 61.5396 22.5146C61.8325 23.5205 61.979 24.5972 61.979 25.7446ZM71.2627 24.0381H65.1543V22.8589H71.2627V24.0381ZM71.2627 27.0776H65.1543V25.9058H71.2627V27.0776Z" fill="#0B247A"/>
</svg>
